<svg width="24" height="17" viewBox="0 0 24 17" fill="none" xmlns="http://www.w3.org/2000/svg">
<path d="M18.1438 16.9993C17.8977 17.0066 17.6531 16.9577 17.428 16.856C17.2029 16.7543 17.003 16.6025 16.843 16.4117C16.6829 16.2209 16.5668 15.996 16.5032 15.7535C16.4395 15.5109 16.43 15.2569 16.4752 15.0101C16.5634 14.466 16.8344 13.9701 17.2416 13.6073C17.6488 13.2444 18.1669 13.0372 18.7075 13.0209C18.9535 13.0136 19.1981 13.0626 19.4232 13.1643C19.6483 13.2659 19.8482 13.4177 20.0083 13.6085C20.1683 13.7993 20.2844 14.0242 20.348 14.2668C20.4117 14.5093 20.4213 14.7633 20.376 15.0101C20.2878 15.5542 20.0169 16.0501 19.6097 16.413C19.2024 16.7758 18.6843 16.9831 18.1438 16.9993ZM7.00138 15.0101C7.04659 14.7633 7.03702 14.5093 6.97337 14.2668C6.90973 14.0242 6.79362 13.7993 6.63358 13.6085C6.47355 13.4177 6.27364 13.2659 6.04854 13.1643C5.82345 13.0626 5.57888 13.0136 5.33279 13.0209C4.79228 13.0372 4.2741 13.2444 3.86689 13.6073C3.45969 13.9701 3.18878 14.466 3.10051 15.0101C3.0553 15.2569 3.06487 15.5109 3.12852 15.7535C3.19217 15.996 3.30827 16.2209 3.46831 16.4117C3.62835 16.6025 3.82826 16.7543 4.05335 16.856C4.27845 16.9577 4.52301 17.0066 4.76909 16.9993C5.3096 16.9831 5.82778 16.7758 6.23498 16.413C6.64218 16.0501 6.9131 15.5542 7.00138 15.0101ZM0.00836945 6.85863C0.0363656 6.66101 0.133241 6.4803 0.281248 6.3496C0.429255 6.21889 0.618483 6.14695 0.814265 6.14695H8.35036C8.44537 6.14695 8.53933 6.1266 8.62614 6.08723C8.71295 6.04785 8.79069 5.99032 8.85432 5.91837C8.91796 5.84641 8.96606 5.76163 8.99554 5.66952C9.02501 5.5774 9.03519 5.48 9.02542 5.38361C9.00179 5.2089 8.91604 5.04913 8.78445 4.93469C8.65287 4.82024 8.48464 4.75911 8.31175 4.7629L2.82934 4.73737C2.72229 4.73757 2.61625 4.71623 2.51729 4.67459C2.41832 4.63295 2.32839 4.57181 2.25262 4.49467C2.17685 4.41754 2.11674 4.32593 2.07573 4.22508C2.03472 4.12423 2.01361 4.01612 2.01361 3.90694C2.01361 3.79776 2.03472 3.68965 2.07573 3.5888C2.11674 3.48795 2.17685 3.39633 2.25262 3.3192C2.32839 3.24207 2.41832 3.18093 2.51729 3.13928C2.61625 3.09764 2.72229 3.07631 2.82934 3.0765L11.6074 3.10203C11.7024 3.10203 11.7964 3.08168 11.8832 3.04231C11.97 3.00293 12.0477 2.9454 12.1114 2.87345C12.175 2.80149 12.2231 2.71671 12.2526 2.62459C12.2821 2.53248 12.2922 2.43507 12.2825 2.33869C12.2588 2.16398 12.1731 2.00421 12.0415 1.88976C11.9099 1.77532 11.7417 1.71418 11.5688 1.71798H2.73889L2.82195 1.13171C2.87216 0.822272 3.02624 0.54024 3.25784 0.333872C3.48944 0.127504 3.78415 0.00962743 4.09156 0.000409452H17.5882C17.7282 -0.00376894 17.8672 0.0240771 17.9953 0.0819026C18.1233 0.139728 18.237 0.226064 18.328 0.334571C18.419 0.443078 18.4851 0.571 18.5213 0.708942C18.5575 0.846885 18.5629 0.991345 18.5372 1.13171L18.132 3.99092H21.0425C21.3153 3.99188 21.5814 4.07703 21.8058 4.23519C22.0302 4.39335 22.2024 4.6171 22.2997 4.87698L23.8183 8.91112C23.9859 9.35614 24.0387 9.83754 23.9719 10.3093L23.4573 13.9411C23.4211 14.1639 23.3102 14.367 23.1434 14.5156C22.9767 14.6642 22.7645 14.7491 22.5431 14.7557H21.3972C21.4272 14.4209 21.3912 14.0834 21.2912 13.763C21.1912 13.4426 21.0293 13.1459 20.815 12.8904C20.6007 12.6349 20.3384 12.4259 20.0435 12.2755C19.7486 12.1252 19.4272 12.0366 19.0982 12.0151C17.4968 11.8753 15.8975 13.1023 15.5261 14.7557H8.02275C8.05304 14.4207 8.01713 14.0829 7.91716 13.7622C7.81718 13.4416 7.65517 13.1446 7.4407 12.8889C7.22623 12.6333 6.96366 12.4241 6.66853 12.2737C6.37339 12.1233 6.05168 12.0348 5.72243 12.0135C4.12082 11.8745 2.52202 13.1022 2.15149 14.7557H1.69025C1.58947 14.7587 1.48931 14.7387 1.39713 14.6971C1.30495 14.6554 1.22308 14.5932 1.15754 14.5151C1.092 14.437 1.04446 14.3449 1.01839 14.2455C0.992328 14.1462 0.98841 14.0422 1.00693 13.9411L1.67986 9.19188H5.09332C5.18833 9.19188 5.28228 9.17153 5.36909 9.13215C5.4559 9.09278 5.53364 9.03525 5.59727 8.96329C5.6609 8.89134 5.70901 8.80656 5.73848 8.71444C5.76795 8.62232 5.77813 8.52492 5.76835 8.42853C5.74473 8.25382 5.65898 8.09405 5.5274 7.97961C5.39582 7.86516 5.22759 7.80403 5.0547 7.80782H0.814263C0.697492 7.80782 0.582086 7.78221 0.475876 7.73272C0.369666 7.68323 0.275135 7.61102 0.198697 7.52099C0.122259 7.43096 0.0657024 7.32521 0.032863 7.21093C2.36314e-05 7.09665 -0.00832978 6.9765 0.00836945 6.85863ZM17.3407 9.5756L22.9778 9.58749L21.3663 5.23657C21.3412 5.16967 21.2968 5.11207 21.2391 5.07137C21.1813 5.03066 21.1127 5.00875 21.0425 5.00852H17.9879L17.3407 9.5756Z" fill="black"/>
</svg>
