<svg width="80" height="72" viewBox="0 0 80 72" fill="none" xmlns="http://www.w3.org/2000/svg">
<path d="M37.0605 3.73145C43.3241 0.0034517 50.9365 -0.681556 57.7607 1.87402H57.7617C64.5858 4.42644 69.8911 9.94356 72.1855 16.875C74.4831 23.8101 73.5247 31.4099 69.5791 37.5508C69.5145 37.6509 69.4418 37.7436 69.3623 37.8262L69.3604 37.8281L69.2949 37.8975L68.7344 38.4883H75.3066C76.4466 38.5195 77.5315 38.9873 78.3379 39.7988L78.3389 39.7998C79.1798 40.6398 79.6536 41.7853 79.6504 42.9746V53.749C79.6467 56.229 77.6432 58.236 75.1719 58.2393H66.2744V67.1602C66.2707 69.64 64.2649 71.6471 61.7969 71.6504H51.0537C48.6595 71.6473 46.705 69.7634 46.582 67.3906L46.5762 67.1592V61.2031L45.9756 61.8193L38.1104 69.8877C37.7852 70.2194 37.3442 70.4091 36.8818 70.4092C36.4799 70.4092 36.0884 70.2642 35.7793 70.0059L35.6523 69.8877L4.40039 37.8262H4.40137C4.32181 37.7436 4.24827 37.651 4.18359 37.5508C0.23815 31.4098 -0.719393 23.8098 1.57812 16.875C3.87233 9.94336 9.17776 4.42924 16.002 1.87402C22.826 -0.681663 30.4387 0.0035178 36.7021 3.73145L36.8818 3.83789L37.0605 3.73145ZM51.0537 28.5225C50.4757 28.5225 50.0137 28.9929 50.0137 29.5645V40.209C50.0137 40.6665 49.8327 41.1069 49.5088 41.4316C49.1887 41.7524 48.7506 41.9336 48.2949 41.9336H37.6787C37.1007 41.9336 36.6396 42.404 36.6396 42.9756V53.748C36.6396 54.3242 37.1018 54.79 37.6787 54.79H48.2949C48.7505 54.79 49.1882 54.9707 49.5078 55.2939L49.5088 55.2959C49.8331 55.6211 50.0137 56.0578 50.0137 56.5146V67.1592C50.0137 67.7353 50.4768 68.2002 51.0537 68.2002H61.7979C62.3701 68.2002 62.8378 67.7364 62.8379 67.1592V56.5146C62.8379 55.5623 63.6064 54.79 64.5566 54.79H75.1729C75.7462 54.7899 76.2119 54.3207 76.2119 53.748V42.9756C76.2119 42.701 76.1041 42.4347 75.9102 42.2402C75.7137 42.0433 75.4487 41.9336 75.1729 41.9336H64.5566C63.606 41.9336 62.8379 41.1644 62.8379 40.209V29.5645C62.8379 28.9917 62.3713 28.5225 61.7979 28.5225H51.0537ZM55.6924 4.79785C49.6733 2.84948 43.093 3.77442 37.8418 7.3125V7.31348C37.2604 7.70688 36.5053 7.70672 35.9238 7.31348L35.9229 7.3125L35.4238 6.9873C30.2343 3.70618 23.8468 2.90471 17.9951 4.82617C11.9547 6.80985 7.1664 11.4738 5.00977 17.4697C2.85636 23.4621 3.57568 30.1158 6.96387 35.5068L6.9834 35.5381L7.00879 35.5654L36.6318 65.959L36.8828 66.2158L37.1328 65.959L44.0771 58.833L44.6562 58.2393H37.6787L37.4482 58.2324C35.0835 58.1093 33.2014 56.151 33.2012 53.749V42.9756C33.2012 40.5735 35.0832 38.6144 37.4482 38.4912L37.6787 38.4854H46.5762V29.5645L46.582 29.334C46.7006 27.0377 48.535 25.1993 50.8232 25.0801L51.0537 25.0742H61.7969L62.0273 25.0801C64.3889 25.2031 66.2721 27.1617 66.2754 29.5645V36.3555L66.9238 35.2959C70.2312 29.8942 70.8873 23.2653 68.6953 17.3145C66.5033 11.3642 61.7113 6.74993 55.6924 4.79785ZM20.5215 8.93457C21.4096 8.60708 22.3979 9.05765 22.7305 9.94824C23.0632 10.8427 22.6101 11.8336 21.7227 12.167C19.8344 12.8726 18.122 13.9755 16.7002 15.4082C13.4968 18.6308 12.037 23.2077 12.7793 27.6953C12.854 28.1474 12.7476 28.6111 12.4834 28.9854C12.2166 29.355 11.8176 29.6064 11.3721 29.6816C11.2721 29.6968 11.1764 29.7051 11.084 29.7051C10.2457 29.7051 9.52827 29.0966 9.39062 28.2656C8.46434 22.6755 10.2841 16.9804 14.2734 12.9668C16.0407 11.1881 18.1721 9.81139 20.5205 8.93359L20.5215 8.93457Z" fill="black" stroke="#A4C75A" stroke-width="0.7"/>
</svg>
