<svg width="44" height="84" viewBox="0 0 44 84" fill="none" xmlns="http://www.w3.org/2000/svg">
<path fill-rule="evenodd" clip-rule="evenodd" d="M39.4486 2.31655L29.2011 34.5661H42.3055C43.6824 34.5661 44.5912 36.2243 43.5482 37.4583L7.42215 83.3556C6.29314 84.7894 3.97644 83.6395 4.49283 81.778L12.7714 49.4307H1.6875C0.582554 49.4307 -0.271162 48.3649 0.0800003 47.1695L10.4236 8.25992C10.5923 7.61487 11.1018 7.15209 11.7007 7.02241L37.4311 0.0600547C38.7632 -0.301031 39.9164 1.03111 39.4483 2.31772L39.4486 2.31655ZM25.2735 35.7651L35.3078 4.18866L13.4362 10.1064L3.89802 45.9843H14.9546V45.9913C16.0526 45.9913 16.865 47.0501 16.5862 48.1403L9.73277 74.9314L38.7889 38.0196H26.882V38.0126C25.7495 38.0091 24.9233 36.8803 25.2745 35.7654L25.2735 35.7651Z" fill="black"/>
</svg>
