<svg width="74" height="64" viewBox="0 0 74 64" fill="none" xmlns="http://www.w3.org/2000/svg">
<path d="M70.0975 16.7643C64.9899 11.66 56.1366 12.2008 50.3629 17.9744L40.4614 27.8759C38.7468 25.9832 36.7222 24.3906 34.4768 23.1739C35.9045 22.1485 37.1443 20.8823 38.1368 19.4314C41.0384 15.1284 41.3747 9.17965 41.3847 6.82203C41.388 6.03726 41.055 5.29207 40.4713 4.77108C39.8778 4.24351 39.0865 3.9929 38.2951 4.08523C32.1654 4.80405 26.8135 8.57948 24.0836 14.1159C23.2592 11.1384 21.7095 8.41479 19.5728 6.18253C14.5873 1.02219 6.9735 0.14186 3.93046 0.00333998C3.05005 -0.0362288 2.19276 0.277019 1.54651 0.877169C0.900234 1.47729 0.521073 2.31149 0.497944 3.19191C0.319886 7.10911 1.10465 11.0099 2.78297 14.5512C4.18099 17.2517 6.1759 19.6027 8.61261 21.4195C9.52594 22.0988 10.4954 22.6956 11.511 23.21C8.08174 25.0136 5.19984 27.7075 3.17202 31.0148C1.14749 34.3187 0.0527573 38.1106 0 41.9849C0 53.9578 10.3235 63.6981 23.0157 63.6981H23.019C26.524 63.6981 29.9895 62.9364 33.1712 61.4658C34.4341 61.8615 35.7464 62.0627 37.0686 62.0594C37.3852 62.0594 37.705 62.0495 38.0314 62.0264C41.83 61.7296 45.3911 60.0612 48.0587 57.3376L68.8949 36.5014C74.6685 30.7278 75.2093 21.8745 70.0984 16.7634L70.0975 16.7643ZM38.6077 6.70748L38.7462 6.8097C38.8649 10.7137 37.8955 14.5716 35.9501 17.9546C34.8323 19.5703 33.3617 20.909 31.6503 21.8685C30.7831 21.5388 29.8961 21.2585 28.996 21.031C29.6983 19.9461 30.4204 18.8745 31.192 17.8392C32.2175 16.4609 33.3155 15.1123 34.4564 13.8296V13.8329C34.9378 13.2856 34.8883 12.4547 34.3443 11.9733C33.8002 11.4885 32.9693 11.5347 32.4846 12.0788C31.2909 13.4207 30.1435 14.8287 29.0751 16.2696C28.0596 17.6315 27.1099 19.0592 26.2098 20.5001C25.8833 20.4572 25.5569 20.4243 25.2271 20.3946V20.3913C25.2766 19.0822 25.514 17.7831 25.9361 16.54C26.9319 13.8923 28.6464 11.5709 30.8821 9.83325C33.1176 8.09884 35.7918 7.01744 38.6077 6.70748ZM10.1914 19.3068C8.07448 17.7306 6.34337 15.6929 5.12995 13.3485C3.66921 10.1929 2.98336 6.73736 3.13176 3.26214C3.13835 3.09068 3.21089 2.92911 3.33949 2.8137C3.46808 2.69829 3.63624 2.63564 3.811 2.63894C9.48904 2.89943 14.6756 4.90751 17.6765 8.01689C20.3242 10.8988 21.9268 14.5851 22.2333 18.489C22.2993 19.0891 22.329 19.6991 22.3356 20.3058C21.9761 20.3157 21.62 20.3322 21.264 20.3586L21.2672 20.3553C19.5658 17.6943 17.594 15.2148 15.3749 12.9659C13.868 11.4426 12.2556 10.0313 10.5476 8.73878C10.2706 8.52775 9.91777 8.43542 9.56821 8.48158C9.22199 8.52775 8.90545 8.7124 8.69438 8.99267C8.48332 9.27294 8.39103 9.62576 8.44049 9.97201C8.48995 10.3215 8.6746 10.6348 8.95817 10.8458C10.5639 12.0593 12.084 13.3881 13.4986 14.8191C15.2923 16.6359 16.9179 18.6143 18.3556 20.7213C17.1355 20.9653 15.9353 21.3083 14.7713 21.7402C13.1326 21.1599 11.5862 20.3422 10.1914 19.3068ZM23.0177 61.061C11.7808 61.061 2.63989 52.5042 2.63989 41.9856C2.63989 32.2589 10.4644 24.2229 20.5309 23.0656C20.5573 23.0689 20.5837 23.0755 20.6134 23.0755L20.6101 23.0788C20.7486 23.0755 20.8871 23.0524 21.019 23.0063C21.6784 22.9469 22.3412 22.9106 23.0171 22.9106C28.9457 22.8546 34.617 25.3408 38.597 29.7394L29.5261 38.8103C26.8025 41.4745 25.1374 45.0389 24.8406 48.8375C24.5208 52.4283 25.7968 55.9762 28.3226 58.5482C28.8271 59.0494 29.3777 59.5045 29.9646 59.9035C27.7258 60.6652 25.3819 61.0577 23.0177 61.061ZM46.1912 55.472V55.4753C43.9754 57.7472 41.0145 59.1386 37.849 59.3958C35.0166 59.6926 32.2007 58.6968 30.186 56.6821C28.1714 54.6675 27.1756 51.8515 27.4724 49.0159C27.7263 45.8537 29.121 42.8895 31.3929 40.6769L41.0411 31.0287C47.5995 33.9699 52.9314 39.1006 56.1297 45.5374L46.1912 55.472ZM67.0274 34.6392L58.0781 43.5885C54.7412 37.2544 49.4656 32.16 43.0191 29.0503L52.2284 19.841V19.8377C54.6255 17.3746 57.8998 15.9567 61.3355 15.8941C63.9108 15.8479 66.397 16.8338 68.2369 18.6342C72.3157 22.7129 71.7723 29.8944 67.0274 34.6392Z" fill="black"/>
<path d="M30.3971 30.244C30.3971 27.4116 27.1558 25.1925 23.0176 25.1925C18.8795 25.1925 15.6382 27.4116 15.6382 30.244C15.6382 33.0765 18.8794 35.2956 23.0176 35.2956C27.1557 35.2989 30.3971 33.0798 30.3971 30.244ZM23.0176 32.6577C20.304 32.6577 18.276 31.3817 18.276 30.244C18.276 29.1031 20.3039 27.8304 23.0176 27.8304C25.7313 27.8304 27.7592 29.1031 27.7592 30.244C27.7592 31.3849 25.7314 32.661 23.0176 32.661V32.6577Z" fill="black"/>
</svg>
