<svg width="83" height="67" viewBox="0 0 83 67" fill="none" xmlns="http://www.w3.org/2000/svg">
<path d="M60.0961 53.4155C59.7226 53.4155 59.3492 53.2634 59.0726 52.973C58.5609 52.4059 58.5885 51.5345 59.1556 51.0228C63.1666 47.3299 66.4722 43.4157 68.9758 39.3906C69.3769 38.7406 70.2345 38.5469 70.8845 38.948C71.5345 39.3491 71.7281 40.2067 71.3271 40.8567C68.6853 45.1028 65.2276 49.2106 61.0368 53.0695C60.774 53.3185 60.4282 53.4291 60.0963 53.4291L60.0961 53.4155Z" fill="black"/>
<path d="M41.4929 66.3886C41.2854 66.3886 41.0918 66.3471 40.8982 66.2503C40.1236 65.8768 21.6454 56.9142 11.6597 40.8287C11.2586 40.1786 11.4522 39.335 12.1023 38.9201C12.7523 38.519 13.6098 38.7126 14.0109 39.3627C22.5861 53.1662 38.257 61.7684 41.4932 63.4423C43.3051 62.5156 48.9481 59.4452 55.0338 54.5763C55.6286 54.1061 56.4999 54.189 56.984 54.7976C57.4543 55.3923 57.3574 56.2636 56.7627 56.7477C49.128 62.8472 42.3643 66.1112 42.0881 66.2493C41.8945 66.3461 41.7009 66.3876 41.4934 66.3876L41.4929 66.3886Z" fill="black"/>
<path d="M74.9636 30.4281C74.853 30.4281 74.7285 30.4281 74.6178 30.3866C73.8848 30.193 73.4283 29.4461 73.622 28.6993C74.3274 25.9746 74.687 23.2084 74.687 20.4698C74.687 10.7054 66.6927 2.76618 56.8585 2.76618C51.1878 2.76618 46.0008 5.36641 42.5991 9.88916C42.0735 10.5807 40.9117 10.5807 40.3861 9.88916C36.9836 5.36641 31.7971 2.76618 26.1267 2.76618C22.9041 2.76618 19.7506 3.63754 16.9987 5.26957C16.3348 5.65683 15.4911 5.44936 15.1039 4.78548C14.7166 4.13542 14.9241 3.27792 15.588 2.89065C18.7552 0.995831 22.4066 0 26.1269 0C32.0881 0 37.5927 2.48958 41.4928 6.87398C45.3931 2.48958 50.8979 0 56.8587 0C68.2139 0 77.4534 9.18378 77.4534 20.4699C77.4534 23.4435 77.0661 26.4448 76.3054 29.3907C76.1394 30.0131 75.586 30.4281 74.9636 30.4281Z" fill="black"/>
<path d="M8.02229 30.4282C7.41373 30.4282 6.84668 30.0133 6.68071 29.3909C5.92 26.4449 5.53271 23.4435 5.53271 20.47C5.53271 15.3526 7.45524 10.4426 10.9407 6.63901C11.4524 6.07194 12.3376 6.04427 12.8908 6.55602C13.4579 7.06776 13.4855 7.95293 12.9738 8.50617C9.95868 11.798 8.28506 16.044 8.28506 20.4561C8.28506 23.1947 8.64467 25.9609 9.35002 28.6856C9.54366 29.4325 9.10107 30.1793 8.35419 30.3729C8.24354 30.4006 8.11907 30.4144 8.00842 30.4144L8.02229 30.4282Z" fill="black"/>
<path d="M37.3433 45.6416C36.8177 45.6416 36.3475 45.3512 36.1124 44.8809L28.9341 30.5383L26.0848 35.2962C25.8359 35.7111 25.3795 35.9739 24.8953 35.9739H1.3831C0.62239 35.9739 0 35.3515 0 34.5908C0 33.8301 0.62239 33.2077 1.3831 33.2077H24.1075L27.8557 26.9699C28.1185 26.5411 28.5611 26.2645 29.1005 26.306C29.5984 26.3198 30.0548 26.6241 30.29 27.0667L36.8735 40.248L41.5346 20.4561C41.6729 19.8614 42.1846 19.4327 42.7932 19.3912C43.3879 19.3497 43.955 19.7093 44.1763 20.2764L49.7778 34.8545L52.6547 27.1921C52.8345 26.6942 53.2909 26.3484 53.8303 26.3069C54.3835 26.2655 54.8676 26.5144 55.1443 26.9708L58.8925 33.2086H81.6169C82.3776 33.2086 83 33.831 83 34.5917C83 35.3524 82.3776 35.9748 81.6169 35.9748H58.1047C57.6206 35.9748 57.1642 35.7259 56.9152 35.2971L54.2458 30.8436L51.1061 39.2252C50.8987 39.7646 50.3869 40.1242 49.8199 40.1242C49.2528 40.1242 48.741 39.7784 48.5336 39.239L43.2225 25.4496L38.7136 44.5917C38.5753 45.1588 38.105 45.5737 37.5241 45.6429H37.3581L37.3433 45.6416Z" fill="black"/>
</svg>
