<svg width="43" height="31" viewBox="0 0 43 31" fill="none" xmlns="http://www.w3.org/2000/svg">
<path d="M20.3083 0.400513C20.607 0.202725 20.9633 0.200907 21.2634 0.393677C21.5238 0.629789 21.6148 0.985966 21.4861 1.30774C21.3794 1.54768 20.3592 3.92591 19.239 6.83215C18.1438 9.6738 16.9415 13.0492 16.4011 15.4503L16.3025 15.9142C16.1129 16.8151 16.3974 17.7984 17.0046 18.4991C17.8291 19.49 18.28 20.6824 18.28 21.9552C18.28 23.6034 17.5382 25.1675 16.2214 26.1964L16.2195 26.1974C15.2316 26.9794 14.0805 27.3497 12.8845 27.3497C12.4696 27.3497 12.0183 27.3086 11.571 27.1866L11.5613 27.1837C9.58952 26.7317 8.06641 25.17 7.61304 23.1925L7.61206 23.1915C6.99403 20.5128 8.47893 17.8372 10.9451 16.9327L11.0496 16.8947L11.0916 16.7911C11.5868 15.5637 12.9836 12.1241 14.7185 8.65442C15.5861 6.91918 16.5362 5.18055 17.4978 3.70911C18.4608 2.23553 19.4216 1.05241 20.3083 0.400513ZM16.1511 9.1759C14.5117 12.4979 13.0882 15.9044 12.3533 17.7628C12.2421 18.0222 12.0752 18.2051 11.8328 18.2657H11.8298C10.0744 18.7277 8.60103 20.6175 9.10718 22.8722L9.10815 22.8741C9.43152 24.2592 10.5375 25.3653 11.9226 25.6886L11.9236 25.6896C13.1117 25.9637 14.3094 25.7355 15.2771 24.9982L15.282 24.9943C16.201 24.2589 16.7546 23.1538 16.7546 21.9552C16.7546 21.0365 16.433 20.1616 15.8357 19.4698H15.8367C14.9303 18.3574 14.5256 16.9679 14.8103 15.5851V15.5831C15.1517 13.8766 15.8369 11.6487 16.6121 9.36633L16.1511 9.1759Z" fill="black" stroke="#A4C75A" stroke-width="0.5"/>
<path d="M36.9414 0.400513C37.2401 0.202726 37.5963 0.200907 37.8965 0.393677C38.1569 0.62979 38.2478 0.985967 38.1191 1.30774C38.0125 1.54769 36.9922 3.92592 35.8721 6.83215C34.7768 9.6738 33.5746 13.0492 33.0342 15.4503L32.9355 15.9142C32.746 16.8151 33.0305 17.7984 33.6377 18.4991C34.4621 19.49 34.9131 20.6824 34.9131 21.9552C34.9131 23.6034 34.1713 25.1675 32.8545 26.1964L32.8486 26.2013C31.9079 26.9783 30.7165 27.3497 29.5176 27.3497C29.1027 27.3497 28.6514 27.3086 28.2041 27.1866L28.1943 27.1837C26.2226 26.7317 24.6995 25.17 24.2461 23.1925L24.2451 23.1915C23.6271 20.5128 25.112 17.8372 27.5781 16.9327L27.6826 16.8947L27.7246 16.7911C28.2199 15.5637 29.6167 12.1241 31.3516 8.65442C32.2192 6.91918 33.1693 5.18055 34.1309 3.70911C35.0939 2.23553 36.0547 1.05241 36.9414 0.400513ZM32.7832 9.21985C31.1897 12.493 29.7241 15.8977 29.0293 17.7628C28.9181 18.0222 28.7512 18.2051 28.5088 18.2657H28.5059C26.7505 18.7277 25.2771 20.6176 25.7832 22.8722L25.7842 22.8741C26.1075 24.2592 27.2136 25.3652 28.5986 25.6886L28.5996 25.6896C29.7878 25.9637 30.9854 25.7355 31.9531 24.9982L31.958 24.9943C32.877 24.2589 33.4307 23.1538 33.4307 21.9552C33.4307 21.0344 33.1078 20.1575 32.5078 19.465L32.5059 19.463L32.3359 19.2589C31.516 18.2195 31.1762 16.8856 31.4424 15.63L31.4434 15.6271C31.7847 13.9205 32.47 11.6927 33.2451 9.41028L32.7832 9.21985Z" fill="black" stroke="#A4C75A" stroke-width="0.5"/>
<path d="M1.03418 21.0846H5.55859C5.98071 21.0846 6.34277 21.4467 6.34277 21.8688V22.0846C6.34296 25.6267 9.21278 28.4966 12.7549 28.4967C16.2971 28.4967 19.1668 25.6267 19.167 22.0846V21.9117C19.167 21.7123 19.2319 21.5197 19.3955 21.3561L19.4053 21.3463L19.4141 21.3356C19.5203 21.2028 19.7326 21.1276 19.9512 21.1276H22.2354C22.4071 21.1276 22.6016 21.2142 22.7881 21.358C22.9324 21.5448 23.0195 21.7396 23.0195 21.9117V22.1276C23.0197 25.6255 25.8883 28.5397 29.4316 28.5397C32.9737 28.5395 35.8436 25.6697 35.8438 22.1276V21.9117C35.8438 21.4897 36.2059 21.1276 36.6279 21.1276H41.0234C41.4453 21.1278 41.8075 21.4898 41.8076 21.9117C41.8076 22.3337 41.4453 22.6956 41.0234 22.6959H37.3525L37.3271 22.9176C36.8673 26.9312 33.4806 30.0651 29.3447 30.0651C25.2088 30.0648 21.8262 26.9315 21.4502 22.8795L21.4287 22.653H20.6738L20.6504 22.8776C20.2321 26.891 16.8454 30.0651 12.7549 30.0651C8.61884 30.065 5.23534 26.9316 4.85938 22.8795L4.83887 22.653H1.03418C0.612069 22.6529 0.25 22.2909 0.25 21.8688C0.250007 21.4467 0.612072 21.0846 1.03418 21.0846Z" fill="black" stroke="#A4C75A" stroke-width="0.5"/>
</svg>
