<svg width="37" height="35" viewBox="0 0 37 35" fill="none" xmlns="http://www.w3.org/2000/svg">
<mask id="path-1-inside-1_1172_482" fill="white">
<path fill-rule="evenodd" clip-rule="evenodd" d="M14.7893 9.04591L11.9016 12.3276L12.6709 14.6829L13.2651 16.5017L17.5148 17.3924L19.9737 14.5984L20.4026 14.1107L19.5594 11.5344L19.0374 9.93829L14.7877 9.04757L14.7893 9.04591ZM15.1651 18.0538L13.0386 17.6084L10.1509 20.8902L11.5161 25.0641L15.7658 25.9548L18.6535 22.6731L17.8103 20.0968L17.2883 18.5007L16.3712 18.3089L15.1651 18.057V18.0538ZM21.2407 14.8615L25.4904 15.7522L26.0847 17.571L26.854 19.9263L23.9663 23.208L19.7166 22.3173L18.3514 18.1433L21.2391 14.8616L21.2407 14.8615ZM28.0198 19.8805C28.0873 20.087 28.0311 20.3031 27.8913 20.4494L24.5876 24.2042L24.586 24.2025C24.4575 24.3472 24.2584 24.422 24.0576 24.3813L19.4885 23.4239L16.3839 26.9511C16.2378 27.1185 16.0145 27.1754 15.8154 27.1202L10.9699 26.1059C10.7659 26.0636 10.6118 25.9141 10.5507 25.7288H10.5491L8.9816 20.9352C8.91415 20.7288 8.97036 20.5127 9.10848 20.3663L12.197 16.8571L10.7306 12.3743C10.6632 12.1679 10.7194 11.9517 10.8591 11.8054L12.5037 9.9362L14.1628 8.05074L14.1644 8.05236C14.2929 7.9077 14.4921 7.83293 14.6928 7.87357L19.5383 8.88783L19.5447 8.88945H19.5495L19.5576 8.89108L19.5624 8.8927L19.5688 8.89433L19.5784 8.89595H19.58L19.5849 8.89758L19.5977 8.90083H19.5993L19.6089 8.90408L19.6138 8.90571L19.6202 8.90733L19.625 8.90896L19.6379 8.91221L19.6475 8.91546H19.6491L19.6587 8.91871L19.6652 8.92033L19.6748 8.92521L19.6844 8.92846L19.6909 8.93171L19.7005 8.93496H19.7021L19.7101 8.93984L19.715 8.94309L19.7214 8.94634L19.7262 8.94959L19.7342 8.95447L19.7358 8.95609L19.7455 8.9626L19.7551 8.9691L19.7615 8.97235L19.7696 8.97722H19.7712L19.7744 8.98048L19.7936 8.99348L19.8017 8.99998L19.8065 9.00486L19.8161 9.01136L19.8177 9.01298L19.8258 9.01949L19.8274 9.02111L19.8338 9.02599L19.8386 9.02924L19.845 9.03411L19.8772 9.06662L19.8852 9.07638L19.8868 9.078L19.8932 9.08613L19.9061 9.09913L19.9125 9.10726L19.9157 9.11051L19.9205 9.11701L19.9237 9.12189L19.9302 9.13001L19.9318 9.13326L19.9366 9.14139L19.9382 9.14464L19.9446 9.1544V9.15602L19.9478 9.15927L19.9527 9.16577L19.9559 9.17065L19.9607 9.17878L19.9623 9.18203V9.18365L19.9687 9.19341L19.9703 9.19666L19.9751 9.20478L19.9767 9.20803L19.9832 9.21941L19.9848 9.22104L19.9896 9.23079L19.9944 9.24542L19.9976 9.24867L20.0024 9.26005V9.26167L20.0073 9.27143L20.0089 9.2763L20.0137 9.28768L21.48 13.7704L23.0154 14.0922L26.0059 14.718H26.0075L26.0156 14.7196H26.0172L26.0236 14.7213L26.0284 14.7229L26.0348 14.7245L26.0445 14.7261L26.0509 14.7278L26.0557 14.7294L26.0621 14.731L26.0862 14.7392L26.0991 14.7424L26.1087 14.7457L26.1151 14.7473L26.12 14.7489L26.1264 14.7522H26.128L26.1376 14.7554L26.1473 14.7587H26.1489L26.1553 14.7619L26.1601 14.7635L26.1665 14.7668L26.1746 14.7717L26.1794 14.7749L26.1858 14.7782L26.1906 14.7814L26.1922 14.783L26.2083 14.7928H26.2099L26.2244 14.8025L26.2324 14.8074L26.2372 14.8107L26.2404 14.8139L26.2468 14.8188L26.25 14.8204L26.2565 14.8253L26.2645 14.8318L26.2709 14.8367L26.2741 14.8399L26.279 14.8432L26.2854 14.8481L26.287 14.8497L26.2934 14.8562L26.3191 14.8822L26.3239 14.8871L26.3287 14.8903L26.3368 14.8984L26.3384 14.9001L26.3448 14.9082L26.3464 14.9098L26.3528 14.9179L26.3657 14.931L26.3721 14.9391L26.3737 14.9423L26.3801 14.9505L26.3817 14.9521V14.9537L26.3882 14.9635L26.3914 14.9667L26.3962 14.9732L26.3994 14.9765L26.4058 14.9862V14.9878L26.4074 14.9895L26.4123 14.9976L26.4139 15.0008L26.4187 15.009L26.4203 15.0106V15.0122L26.4251 15.0203V15.022L26.4283 15.0269L26.4331 15.0366V15.0382L26.4396 15.0496V15.0512L26.4412 15.0529L26.446 15.0626L26.4476 15.0642C26.4508 15.0724 26.454 15.0805 26.4572 15.0902V15.0919L26.462 15.1032L26.4637 15.1065L26.4685 15.1195L28.036 19.9131L28.0198 19.8805ZM14.203 13.3235C14.0054 13.5641 13.6521 13.5982 13.4144 13.3983C13.1767 13.1984 13.143 12.8408 13.3405 12.6002L15.006 10.5701C15.2036 10.3295 15.5569 10.2954 15.7946 10.4953C16.0323 10.6952 16.066 11.0528 15.8685 11.2934L14.203 13.3235ZM12.3335 21.6815C12.136 21.922 11.7826 21.9562 11.5449 21.7562C11.3072 21.5563 11.2735 21.1987 11.471 20.9581L13.1365 18.928C13.3341 18.6874 13.6874 18.6533 13.9251 18.8532C14.1628 19.0532 14.1966 19.4107 13.999 19.6513L12.3335 21.6815ZM20.6561 18.6793C20.4585 18.9199 20.1052 18.954 19.8675 18.7541C19.6298 18.5542 19.5961 18.1966 19.7936 17.956L21.4591 15.9259C21.6567 15.6853 22.01 15.6512 22.2477 15.8511C22.4854 16.051 22.5191 16.4086 22.3216 16.6492L20.6561 18.6793ZM1.6291 20.9891C1.64195 20.95 1.65801 20.9127 1.67888 20.8753C1.83628 20.6055 2.18 20.5161 2.44499 20.6754L6.25939 22.9623C6.526 23.1216 6.61433 23.4695 6.45694 23.7377C6.29955 24.0075 5.95582 24.0969 5.69084 23.9376L3.05044 22.3544C4.01731 25.5077 5.90122 28.2532 8.38599 30.2717C11.1533 32.5196 14.6705 33.8655 18.4996 33.8655C22.3287 33.8655 25.844 32.5212 28.6131 30.2717C31.4382 27.9766 33.4862 24.7437 34.2937 21.0408C34.3595 20.7368 34.6582 20.5434 34.9586 20.6117C35.2589 20.6783 35.45 20.9806 35.3826 21.2846C34.5185 25.2457 32.331 28.703 29.3131 31.1543C26.3499 33.5599 22.5899 35 18.4993 35C14.4087 35 10.6471 33.5599 7.68555 31.1543C5.10301 29.0558 3.12749 26.2213 2.07083 22.9653L1.07986 25.5513C0.969043 25.8422 0.644613 25.9869 0.357134 25.8747C0.0696468 25.7626 -0.0733034 25.4342 0.0375274 25.1433L1.6291 20.9891ZM35.3709 14.0109C35.3581 14.0499 35.342 14.0873 35.3211 14.1247C35.1637 14.3945 34.82 14.4839 34.555 14.3246L30.7406 12.0377C30.474 11.8784 30.3857 11.5305 30.5431 11.2623C30.7005 10.9925 31.0442 10.9031 31.3092 11.0624L33.9496 12.6456C32.9827 9.49228 31.0988 6.74685 28.614 4.72831C25.8467 2.48037 22.3295 1.13452 18.5004 1.13452C14.6713 1.13452 11.156 2.47875 8.38685 4.72831C5.56177 7.02339 3.51385 10.2563 2.70634 13.9592C2.64049 14.2648 2.34176 14.4566 2.04142 14.3883C1.73948 14.3217 1.54997 14.0194 1.61744 13.7154C2.48152 9.75426 4.66898 6.29703 7.6869 3.84575C10.6501 1.44015 14.4101 0 18.5007 0C22.5913 0 26.3529 1.44011 29.3144 3.84575C31.897 5.94418 33.8725 8.7787 34.9292 12.0347L35.9201 9.44872C36.031 9.15776 36.3554 9.01309 36.6429 9.12526C36.9304 9.23741 37.0733 9.56575 36.9625 9.85669L35.3709 14.0109Z"/>
</mask>
<path fill-rule="evenodd" clip-rule="evenodd" d="M14.7893 9.04591L11.9016 12.3276L12.6709 14.6829L13.2651 16.5017L17.5148 17.3924L19.9737 14.5984L20.4026 14.1107L19.5594 11.5344L19.0374 9.93829L14.7877 9.04757L14.7893 9.04591ZM15.1651 18.0538L13.0386 17.6084L10.1509 20.8902L11.5161 25.0641L15.7658 25.9548L18.6535 22.6731L17.8103 20.0968L17.2883 18.5007L16.3712 18.3089L15.1651 18.057V18.0538ZM21.2407 14.8615L25.4904 15.7522L26.0847 17.571L26.854 19.9263L23.9663 23.208L19.7166 22.3173L18.3514 18.1433L21.2391 14.8616L21.2407 14.8615ZM28.0198 19.8805C28.0873 20.087 28.0311 20.3031 27.8913 20.4494L24.5876 24.2042L24.586 24.2025C24.4575 24.3472 24.2584 24.422 24.0576 24.3813L19.4885 23.4239L16.3839 26.9511C16.2378 27.1185 16.0145 27.1754 15.8154 27.1202L10.9699 26.1059C10.7659 26.0636 10.6118 25.9141 10.5507 25.7288H10.5491L8.9816 20.9352C8.91415 20.7288 8.97036 20.5127 9.10848 20.3663L12.197 16.8571L10.7306 12.3743C10.6632 12.1679 10.7194 11.9517 10.8591 11.8054L12.5037 9.9362L14.1628 8.05074L14.1644 8.05236C14.2929 7.9077 14.4921 7.83293 14.6928 7.87357L19.5383 8.88783L19.5447 8.88945H19.5495L19.5576 8.89108L19.5624 8.8927L19.5688 8.89433L19.5784 8.89595H19.58L19.5849 8.89758L19.5977 8.90083H19.5993L19.6089 8.90408L19.6138 8.90571L19.6202 8.90733L19.625 8.90896L19.6379 8.91221L19.6475 8.91546H19.6491L19.6587 8.91871L19.6652 8.92033L19.6748 8.92521L19.6844 8.92846L19.6909 8.93171L19.7005 8.93496H19.7021L19.7101 8.93984L19.715 8.94309L19.7214 8.94634L19.7262 8.94959L19.7342 8.95447L19.7358 8.95609L19.7455 8.9626L19.7551 8.9691L19.7615 8.97235L19.7696 8.97722H19.7712L19.7744 8.98048L19.7936 8.99348L19.8017 8.99998L19.8065 9.00486L19.8161 9.01136L19.8177 9.01298L19.8258 9.01949L19.8274 9.02111L19.8338 9.02599L19.8386 9.02924L19.845 9.03411L19.8772 9.06662L19.8852 9.07638L19.8868 9.078L19.8932 9.08613L19.9061 9.09913L19.9125 9.10726L19.9157 9.11051L19.9205 9.11701L19.9237 9.12189L19.9302 9.13001L19.9318 9.13326L19.9366 9.14139L19.9382 9.14464L19.9446 9.1544V9.15602L19.9478 9.15927L19.9527 9.16577L19.9559 9.17065L19.9607 9.17878L19.9623 9.18203V9.18365L19.9687 9.19341L19.9703 9.19666L19.9751 9.20478L19.9767 9.20803L19.9832 9.21941L19.9848 9.22104L19.9896 9.23079L19.9944 9.24542L19.9976 9.24867L20.0024 9.26005V9.26167L20.0073 9.27143L20.0089 9.2763L20.0137 9.28768L21.48 13.7704L23.0154 14.0922L26.0059 14.718H26.0075L26.0156 14.7196H26.0172L26.0236 14.7213L26.0284 14.7229L26.0348 14.7245L26.0445 14.7261L26.0509 14.7278L26.0557 14.7294L26.0621 14.731L26.0862 14.7392L26.0991 14.7424L26.1087 14.7457L26.1151 14.7473L26.12 14.7489L26.1264 14.7522H26.128L26.1376 14.7554L26.1473 14.7587H26.1489L26.1553 14.7619L26.1601 14.7635L26.1665 14.7668L26.1746 14.7717L26.1794 14.7749L26.1858 14.7782L26.1906 14.7814L26.1922 14.783L26.2083 14.7928H26.2099L26.2244 14.8025L26.2324 14.8074L26.2372 14.8107L26.2404 14.8139L26.2468 14.8188L26.25 14.8204L26.2565 14.8253L26.2645 14.8318L26.2709 14.8367L26.2741 14.8399L26.279 14.8432L26.2854 14.8481L26.287 14.8497L26.2934 14.8562L26.3191 14.8822L26.3239 14.8871L26.3287 14.8903L26.3368 14.8984L26.3384 14.9001L26.3448 14.9082L26.3464 14.9098L26.3528 14.9179L26.3657 14.931L26.3721 14.9391L26.3737 14.9423L26.3801 14.9505L26.3817 14.9521V14.9537L26.3882 14.9635L26.3914 14.9667L26.3962 14.9732L26.3994 14.9765L26.4058 14.9862V14.9878L26.4074 14.9895L26.4123 14.9976L26.4139 15.0008L26.4187 15.009L26.4203 15.0106V15.0122L26.4251 15.0203V15.022L26.4283 15.0269L26.4331 15.0366V15.0382L26.4396 15.0496V15.0512L26.4412 15.0529L26.446 15.0626L26.4476 15.0642C26.4508 15.0724 26.454 15.0805 26.4572 15.0902V15.0919L26.462 15.1032L26.4637 15.1065L26.4685 15.1195L28.036 19.9131L28.0198 19.8805ZM14.203 13.3235C14.0054 13.5641 13.6521 13.5982 13.4144 13.3983C13.1767 13.1984 13.143 12.8408 13.3405 12.6002L15.006 10.5701C15.2036 10.3295 15.5569 10.2954 15.7946 10.4953C16.0323 10.6952 16.066 11.0528 15.8685 11.2934L14.203 13.3235ZM12.3335 21.6815C12.136 21.922 11.7826 21.9562 11.5449 21.7562C11.3072 21.5563 11.2735 21.1987 11.471 20.9581L13.1365 18.928C13.3341 18.6874 13.6874 18.6533 13.9251 18.8532C14.1628 19.0532 14.1966 19.4107 13.999 19.6513L12.3335 21.6815ZM20.6561 18.6793C20.4585 18.9199 20.1052 18.954 19.8675 18.7541C19.6298 18.5542 19.5961 18.1966 19.7936 17.956L21.4591 15.9259C21.6567 15.6853 22.01 15.6512 22.2477 15.8511C22.4854 16.051 22.5191 16.4086 22.3216 16.6492L20.6561 18.6793ZM1.6291 20.9891C1.64195 20.95 1.65801 20.9127 1.67888 20.8753C1.83628 20.6055 2.18 20.5161 2.44499 20.6754L6.25939 22.9623C6.526 23.1216 6.61433 23.4695 6.45694 23.7377C6.29955 24.0075 5.95582 24.0969 5.69084 23.9376L3.05044 22.3544C4.01731 25.5077 5.90122 28.2532 8.38599 30.2717C11.1533 32.5196 14.6705 33.8655 18.4996 33.8655C22.3287 33.8655 25.844 32.5212 28.6131 30.2717C31.4382 27.9766 33.4862 24.7437 34.2937 21.0408C34.3595 20.7368 34.6582 20.5434 34.9586 20.6117C35.2589 20.6783 35.45 20.9806 35.3826 21.2846C34.5185 25.2457 32.331 28.703 29.3131 31.1543C26.3499 33.5599 22.5899 35 18.4993 35C14.4087 35 10.6471 33.5599 7.68555 31.1543C5.10301 29.0558 3.12749 26.2213 2.07083 22.9653L1.07986 25.5513C0.969043 25.8422 0.644613 25.9869 0.357134 25.8747C0.0696468 25.7626 -0.0733034 25.4342 0.0375274 25.1433L1.6291 20.9891ZM35.3709 14.0109C35.3581 14.0499 35.342 14.0873 35.3211 14.1247C35.1637 14.3945 34.82 14.4839 34.555 14.3246L30.7406 12.0377C30.474 11.8784 30.3857 11.5305 30.5431 11.2623C30.7005 10.9925 31.0442 10.9031 31.3092 11.0624L33.9496 12.6456C32.9827 9.49228 31.0988 6.74685 28.614 4.72831C25.8467 2.48037 22.3295 1.13452 18.5004 1.13452C14.6713 1.13452 11.156 2.47875 8.38685 4.72831C5.56177 7.02339 3.51385 10.2563 2.70634 13.9592C2.64049 14.2648 2.34176 14.4566 2.04142 14.3883C1.73948 14.3217 1.54997 14.0194 1.61744 13.7154C2.48152 9.75426 4.66898 6.29703 7.6869 3.84575C10.6501 1.44015 14.4101 0 18.5007 0C22.5913 0 26.3529 1.44011 29.3144 3.84575C31.897 5.94418 33.8725 8.7787 34.9292 12.0347L35.9201 9.44872C36.031 9.15776 36.3554 9.01309 36.6429 9.12526C36.9304 9.23741 37.0733 9.56575 36.9625 9.85669L35.3709 14.0109Z" fill="black" stroke="black" stroke-width="2" mask="url(#path-1-inside-1_1172_482)"/>
</svg>
