<svg width="69" height="67" viewBox="0 0 69 67" fill="none" xmlns="http://www.w3.org/2000/svg">
<path fill-rule="evenodd" clip-rule="evenodd" d="M34.4234 0C15.4074 0 0 14.9209 0 33.3004C0 51.6799 15.4074 66.6008 34.4234 66.6008C53.4156 66.6008 68.8468 51.6799 68.8468 33.3004C68.8468 14.9209 53.4156 0 34.4234 0ZM34.4234 2.29658C52.1099 2.29658 66.4728 16.1886 66.4728 33.3004C66.4728 50.4122 52.1099 64.3042 34.4234 64.3042C16.7369 64.3042 2.37403 50.4122 2.37403 33.3004C2.37403 16.1886 16.7369 2.29658 34.4234 2.29658ZM35.254 28.62C32.1203 23.6525 26.1379 19.3234 15.3124 19.3234C14.7426 19.3234 14.2441 19.7253 14.1491 20.2742C14.1491 20.2742 12.1549 31.4861 18.8734 39.0326C21.6035 42.1124 25.7815 44.6133 32.1439 45.4722V52.9178C32.1439 53.5516 32.6899 54.066 33.3309 54.066C33.9956 54.066 34.5179 53.5516 34.5179 52.9178V45.7777C42.1148 45.5641 47.1482 43.302 50.4481 40.2544C58.5673 32.7584 56.3832 20.2742 56.3832 20.2742C56.2645 19.7253 55.7897 19.3234 55.1962 19.3234C47.718 19.3234 42.5662 21.411 39.0526 24.3185C37.4858 25.6183 36.2273 27.0858 35.254 28.62ZM35.7049 43.426C41.8536 43.0425 46.0082 41.1639 48.8096 38.5917C54.8159 33.0638 54.4598 24.4953 54.1749 21.6338C47.9549 21.8106 43.5868 23.5744 40.5955 26.0639C35.895 29.9543 34.5179 35.5648 34.5179 39.2738V41.1845C36.5833 38.718 39.9308 34.9218 43.5868 31.5619C44.0616 31.1232 44.8212 31.1416 45.2723 31.6009C45.7234 32.0602 45.6996 32.7882 45.2248 33.2246C41.2364 36.8991 37.6041 41.1065 35.7049 43.426ZM33.9481 31.0566C31.4554 26.2843 26.2565 21.9208 16.3568 21.6338C16.0719 24.3162 15.7635 32.0189 20.6777 37.533C23.0517 40.2154 26.6836 42.3489 32.1439 43.1527V40.3118C30.2446 38.1553 27.8471 35.5809 25.2832 33.2246C24.8084 32.7882 24.7846 32.0602 25.2356 31.6009C25.6867 31.1416 26.4463 31.1232 26.9211 31.5619C28.8441 33.3302 30.6721 35.2203 32.2864 36.9749C32.5238 35.1376 33.0223 33.0891 33.9481 31.0566Z" fill="#339CD7"/>
</svg>
