<svg width="32" height="32" viewBox="0 0 32 32" fill="none" xmlns="http://www.w3.org/2000/svg">
<path d="M31.2797 1.03125C31.0677 0.593616 30.6973 0.261985 30.2395 0.102116C29.78 -0.0577915 29.2851 -0.0291788 28.8457 0.182912L17.6859 5.57622L14.0265 3.51086C13.2253 3.05973 12.2524 3.02608 11.4225 3.42333C10.5927 3.82058 10.0086 4.59994 9.85879 5.50718L9.20233 9.49985C8.16547 9.8769 7.27667 10.5468 6.61853 11.4592L2.97262 16.519C1.06212 17.1855 0.0387014 18.0676 0.00336651 19.0775C0.00168336 19.0943 0 19.1129 0 19.1314V24.5062C0 28.3406 3.12076 31.4615 6.95537 31.4615H15.247C19.0814 31.4615 22.2024 28.3408 22.2024 24.5062V19.1314C22.2024 18.0979 21.1756 17.1956 19.2314 16.519L16.9473 13.3494L18.7248 12.4892C19.9973 11.8732 20.5326 10.338 19.9182 9.06213L19.7162 8.643L30.4352 3.46213C30.8728 3.25004 31.2044 2.87971 31.3643 2.42018C31.5208 1.9657 31.4922 1.47083 31.2801 1.03148L31.2797 1.03125ZM10.8553 5.67348C10.9529 5.08266 11.3182 4.59452 11.8585 4.33696C12.3988 4.07774 13.0082 4.09794 13.53 4.39419L16.5094 6.07574L10.2999 9.05172L10.8553 5.67348ZM3.45912 21.9069C3.49447 21.917 3.52981 21.927 3.56685 21.9371C3.62408 21.954 3.68131 21.9708 3.73854 21.9876C3.79745 22.0045 3.85637 22.0213 3.91528 22.0381C3.96746 22.0516 4.01965 22.0651 4.07351 22.0785C4.19471 22.1105 4.3159 22.1408 4.43878 22.1711C4.47076 22.1779 4.50274 22.1863 4.53473 22.1947C4.62225 22.2149 4.70978 22.2351 4.79732 22.2553C5.70628 22.4556 6.70277 22.6105 7.75648 22.7165H7.76322C7.87768 22.7283 7.99383 22.7384 8.10997 22.7502C8.12007 22.7502 8.13354 22.7518 8.14363 22.7535C8.33552 22.7704 8.5291 22.7855 8.72438 22.799C8.77319 22.8023 8.822 22.8057 8.87082 22.8091C8.95161 22.8141 9.03241 22.8192 9.11489 22.8225C9.19569 22.8259 9.27648 22.8326 9.35728 22.836C9.42124 22.8394 9.48521 22.8427 9.55086 22.8461C9.69562 22.8528 9.84374 22.8579 9.99017 22.8629C10.0289 22.8629 10.0676 22.8646 10.108 22.8663C10.2359 22.8697 10.3639 22.873 10.4918 22.8747C10.5305 22.8747 10.5692 22.8764 10.6062 22.8764C10.7678 22.8798 10.9328 22.8798 11.0944 22.8798C11.2593 22.8798 11.4209 22.8781 11.5825 22.8764C11.6212 22.8764 11.6599 22.8764 11.697 22.8747C11.8249 22.8713 11.9545 22.8697 12.0824 22.8663C12.1212 22.8663 12.1599 22.8646 12.1969 22.8629C12.345 22.8579 12.4915 22.8528 12.6379 22.8461C12.7019 22.8427 12.7658 22.8394 12.8298 22.836C12.9123 22.8326 12.9947 22.8276 13.0755 22.8225C13.1563 22.8192 13.2371 22.8124 13.3179 22.8091C13.3684 22.8057 13.4189 22.8023 13.4694 22.799C13.6613 22.7855 13.8532 22.772 14.0417 22.7552C14.0552 22.7552 14.0687 22.7518 14.0821 22.7518C14.1966 22.7417 14.311 22.7316 14.4255 22.7199H14.4356C15.4826 22.6155 16.4724 22.4623 17.3746 22.2637C17.3813 22.262 17.388 22.2603 17.3948 22.2603C17.4806 22.2401 17.5648 22.2216 17.6506 22.2031C17.6876 22.1947 17.7247 22.1863 17.76 22.1762C17.8694 22.1492 17.9772 22.1223 18.0832 22.0954C18.1489 22.0785 18.2145 22.0617 18.2785 22.0449C18.3357 22.0297 18.3912 22.0146 18.4468 21.9977C18.5074 21.9809 18.5697 21.9624 18.6303 21.9439C18.6639 21.9338 18.6993 21.9237 18.7329 21.9136C19.6756 21.6257 20.433 21.2908 20.9952 20.9171C21.0053 20.9104 21.0154 20.9036 21.0255 20.8969C21.0794 20.8599 21.1333 20.8228 21.1821 20.7858V24.1085C21.1821 25.2498 17.3443 26.8422 11.0927 26.8422C4.84099 26.8422 1.00327 25.2498 1.00327 24.1085V24.085V20.7841C1.05377 20.8211 1.10427 20.8581 1.15813 20.8918C1.16992 20.8985 1.1817 20.907 1.1918 20.9154C1.25239 20.9558 1.31636 20.9962 1.38032 21.0349C1.38032 21.0349 1.38201 21.0349 1.38369 21.0366C1.92905 21.3564 2.62086 21.651 3.45912 21.9069ZM1.76744 18.1902L1.46782 18.606L1.01838 19.2288C1.01165 19.1968 1.00828 19.1648 1.00828 19.1345C1.00996 18.882 1.22712 18.5471 1.76744 18.1902ZM15.2451 30.4544H6.95348C4.1391 30.4544 1.77907 28.4884 1.16459 25.8592C1.73017 26.2413 2.49775 26.583 3.46054 26.8759C5.50738 27.502 8.22084 27.8454 11.0993 27.8454C13.9777 27.8454 16.6913 27.5021 18.7381 26.8759C19.6976 26.583 20.4652 26.2396 21.0324 25.8592C20.4197 28.4884 18.058 30.4544 15.2451 30.4544ZM21.1904 19.1344C21.1904 19.1647 21.1871 19.1966 21.1803 19.2286L20.433 18.19C20.9716 18.5469 21.1904 18.8819 21.1904 19.1344ZM18.5023 17.2407L20.5087 20.0248C20.4414 20.0719 20.3673 20.1191 20.2899 20.1662C18.6302 21.1627 15.2133 21.8191 11.5031 21.8646H11.4358C11.3533 21.8646 11.2708 21.8646 11.1883 21.8663H11.1008H11.0133C10.9291 21.8663 10.8483 21.8663 10.7642 21.8646H10.6968C6.98692 21.8208 3.5665 21.1644 1.90705 20.1645C1.82962 20.1191 1.75892 20.0719 1.68991 20.0248L1.9121 19.7151L7.43641 12.0496C7.90434 11.3998 8.51369 10.9016 9.22401 10.5784L10.6026 13.4315L10.6548 13.5392C10.6581 13.5476 10.6632 13.5561 10.6682 13.5628C10.7271 13.6806 10.7928 13.7934 10.8702 13.8994C10.9039 13.9466 10.9392 13.9937 10.9763 14.0408C10.9796 14.0442 10.9796 14.0459 10.983 14.0476C11.0234 14.0947 11.0638 14.1418 11.1059 14.1856C11.1193 14.1991 11.1294 14.2125 11.1429 14.2243C11.1867 14.2698 11.2338 14.3152 11.2809 14.3556C11.2843 14.3573 11.2843 14.359 11.2877 14.3623C11.3348 14.4027 11.3819 14.4414 11.4324 14.4768C11.4459 14.4869 11.4594 14.497 11.4728 14.5071C11.5233 14.5441 11.5755 14.5795 11.6277 14.6115C11.6311 14.6131 11.6311 14.6148 11.6344 14.6148C11.6866 14.6468 11.7388 14.6754 11.7926 14.7024C11.8061 14.7091 11.8213 14.7175 11.8364 14.7242C11.892 14.7512 11.9475 14.7781 12.0047 14.8017C12.0081 14.8017 12.0115 14.805 12.0148 14.805C12.0687 14.8269 12.1259 14.8454 12.1832 14.8656C12.2 14.8707 12.2135 14.8757 12.2303 14.8808C12.2892 14.8976 12.3481 14.9144 12.4087 14.9279C12.4121 14.9279 12.4171 14.9296 12.4222 14.9313C12.4794 14.9447 12.5366 14.9532 12.5922 14.9616C12.609 14.9649 12.6259 14.9666 12.6427 14.9683C12.7033 14.975 12.7639 14.9818 12.8245 14.9851H12.8396C12.88 14.9868 12.9238 14.9885 12.9642 14.9885C12.981 14.9885 12.9962 14.9885 13.0113 14.9868C13.0282 14.9868 13.045 14.9868 13.0618 14.9851C13.1241 14.9818 13.1864 14.9784 13.247 14.9717H13.2554C13.316 14.9649 13.3766 14.9548 13.4372 14.9431C13.4523 14.9397 13.4675 14.9363 13.481 14.933C13.6089 14.906 13.7351 14.869 13.8614 14.8235C13.8715 14.8202 13.8832 14.8151 13.895 14.8101C13.959 14.7865 14.0213 14.7596 14.0836 14.7293L16.0227 13.7934L18.5023 17.2407ZM30.4062 2.09151C30.3355 2.29687 30.1874 2.46183 29.9922 2.55608L18.8169 7.95586C18.6957 8.01309 18.6048 8.11745 18.5593 8.24538C18.5139 8.37162 18.5223 8.51133 18.5829 8.63253L19.0037 9.50444C19.3774 10.2771 19.0525 11.2096 18.2799 11.5816L15.9637 12.7026H15.962L13.6425 13.8237C13.3984 13.9415 13.1375 13.992 12.8817 13.9786C12.4542 13.955 12.0451 13.7564 11.7606 13.4046C11.7236 13.3591 11.6883 13.3103 11.6563 13.2598C11.626 13.211 11.5957 13.1588 11.5721 13.1083C11.5721 13.105 11.5687 13.1033 11.5687 13.1016L11.4004 12.7548L10.2188 10.3091L29.285 1.09312C29.4802 0.998862 29.7024 0.985396 29.9061 1.05609C30.1114 1.12679 30.2747 1.27491 30.3707 1.47017C30.4649 1.66711 30.4786 1.88784 30.4062 2.09151Z" fill="black"/>
<path d="M6.93991 18.6296C6.93991 19.3029 5.92993 19.3029 5.92993 18.6296C5.92993 17.9563 6.93991 17.9563 6.93991 18.6296Z" fill="black"/>
<path d="M8.9797 15.7326C8.9797 16.4059 7.96973 16.4059 7.96973 15.7326C7.96973 15.0593 8.9797 15.0593 8.9797 15.7326Z" fill="black"/>
<path d="M12.1091 18.1246C12.1091 18.7979 11.0991 18.7979 11.0991 18.1246C11.0991 17.4513 12.1091 17.4513 12.1091 18.1246Z" fill="black"/>
<path d="M16.906 19.6394C16.906 20.3127 15.896 20.3127 15.896 19.6394C15.896 18.9661 16.906 18.9661 16.906 19.6394Z" fill="black"/>
<path d="M15.8962 16.2379C15.8962 16.9112 14.8862 16.9112 14.8862 16.2379C14.8862 15.5646 15.8962 15.5646 15.8962 16.2379Z" fill="black"/>
<path d="M12.6142 6.62461C12.6142 7.29791 11.6042 7.29791 11.6042 6.62461C11.6042 5.9513 12.6142 5.9513 12.6142 6.62461Z" fill="black"/>
</svg>
