<svg width="37" height="37" viewBox="0 0 37 37" fill="none" xmlns="http://www.w3.org/2000/svg">
<mask id="path-1-inside-1_1172_481" fill="white">
<path d="M31.0339 23.1999H28.4484V20.6144C28.4484 20.1397 28.0613 19.7526 27.5866 19.7526H24.1393C23.6646 19.7526 23.2775 20.1397 23.2775 20.6144V23.1999H20.692C20.2173 23.1999 19.8302 23.587 19.8302 24.0617V27.509C19.8302 27.9837 20.2173 28.3709 20.692 28.3709H23.2775V30.9563C23.2775 31.431 23.6646 31.8182 24.1393 31.8182H27.5866C28.0613 31.8182 28.4484 31.431 28.4484 30.9563V28.3709H31.0339C31.5086 28.3709 31.8957 27.9837 31.8957 27.509V24.0617C31.8957 23.582 31.5069 23.1999 31.0339 23.1999ZM30.1721 26.6472H27.5866C27.1119 26.6472 26.7248 27.0344 26.7248 27.509V30.0945H25.0011V27.509C25.0011 27.0343 24.614 26.6472 24.1393 26.6472H21.5538V24.9235H24.1393C24.614 24.9235 25.0011 24.5364 25.0011 24.0617V21.4762H26.7248V24.0617C26.7248 24.5364 27.1119 24.9235 27.5866 24.9235H30.1721V26.6472ZM36.2182 5.8035C36.262 6.27819 35.9119 6.69898 35.4422 6.74276C31.1853 7.14337 20.0237 11.0739 16.9569 14.0851L16.8829 14.1592C16.3004 14.7315 15.5767 15.4435 14.5465 15.5647C14.4472 15.5781 14.3445 15.5815 14.2401 15.5815C13.417 15.5815 12.5771 15.1893 11.685 14.383C10.3013 13.1341 9.31997 11.6511 8.85372 10.1042C8.30668 8.28626 8.47836 6.38589 9.33178 4.8811C9.90912 3.86776 10.7541 3.11875 11.7187 2.77031C12.8094 2.37811 13.9473 2.51614 14.9505 2.6407C15.1744 2.66595 15.3983 2.69625 15.6188 2.71814C17.2734 2.87804 23.5773 1.58867 26.5984 0.0888752C27.0243 -0.121531 27.5427 0.0552103 27.7532 0.476025C27.9636 0.901888 27.7919 1.42033 27.366 1.63074C24.2116 3.19448 17.5761 4.63369 15.4551 4.43168C15.2178 4.4098 14.9804 4.3795 14.7448 4.3492C13.8527 4.24147 13.0077 4.13879 12.3058 4.39296C11.7284 4.6 11.2032 5.07803 10.8312 5.73284C10.2101 6.82698 10.0906 8.24089 10.503 9.60602C10.8783 10.855 11.688 12.0619 12.8393 13.1055C13.4419 13.6492 13.9419 13.8983 14.3391 13.8512C14.7835 13.799 15.2094 13.3765 15.6655 12.9288L15.743 12.8514C19.096 9.56397 30.6952 5.45172 35.2754 5.02081C35.7518 4.98041 36.1745 5.32882 36.2182 5.8035ZM12.5818 20.4192C12.8444 21.4628 12.4438 22.4526 12.1206 23.2504L12.0465 23.4272C10.8228 26.4823 10.9002 29.7444 10.9827 33.2003C10.9995 33.8854 11.0163 34.5705 11.0214 35.2555C11.0264 35.7302 10.6426 36.1224 10.168 36.1258H10.1595C9.68485 36.1258 9.30276 35.747 9.29772 35.2723C9.29267 34.5923 9.27584 33.9157 9.259 33.239C9.17652 29.7614 9.09068 26.1677 10.444 22.7841L10.5181 22.6023C10.7807 21.9509 11.0315 21.3349 10.9052 20.84C10.8227 20.5168 10.5568 20.2071 10.168 19.995C9.74212 19.7627 9.20683 19.6466 8.68503 19.5338C7.25091 19.2275 5.76797 18.9093 4.31514 18.8824C3.35399 18.8656 2.71607 19.0457 2.36763 19.4345C1.88117 19.9731 1.91987 20.9376 2.17405 21.6496C2.41476 22.3297 2.83727 22.9558 3.28163 23.614C3.42302 23.8244 3.5661 24.0365 3.70413 24.252C5.88059 27.6387 6.07919 31.702 6.091 35.2489C6.091 35.7236 5.70722 36.1107 5.23422 36.1157H5.22917C4.75447 36.1157 4.36734 35.732 4.36734 35.259C4.35387 31.9581 4.17713 28.1825 2.25147 25.1846C2.12186 24.9826 1.98383 24.779 1.85085 24.582C1.36439 23.8616 0.864448 23.1176 0.544668 22.2289C0.0228747 20.7678 0.234949 19.2209 1.08331 18.2816C1.78522 17.5023 2.85074 17.1303 4.34545 17.1572C5.96138 17.1875 7.53016 17.5191 9.04672 17.8473C9.65943 17.977 10.3479 18.1268 10.9942 18.4803C11.8056 18.9297 12.3798 19.6348 12.5818 20.4192ZM1.03287 15.8442C1.30892 15.9772 1.5934 16.026 1.85092 16.026C2.19598 16.026 2.50569 15.9486 2.6959 15.9014C3.84725 15.6086 4.98008 15.2248 6.06577 14.7636C7.06562 14.3411 7.60426 13.2335 7.31981 12.1865C6.74751 10.0706 6.57916 7.34389 6.8889 5.22811C6.93603 4.89987 6.79463 4.57669 6.52195 4.39153C6.25094 4.20637 5.89747 4.19291 5.60794 4.35282C2.50067 6.12025 0.0918169 10.1568 0.000894162 13.7385C-0.0277211 15.1154 0.637336 15.649 1.03287 15.8442ZM5.02386 6.91956C4.97168 8.82838 5.19555 10.919 5.65679 12.6343C5.71738 12.8548 5.60124 13.0871 5.3942 13.173C4.38595 13.5988 3.33391 13.9523 2.27008 14.2284C1.93342 14.3142 1.82572 14.3109 1.81391 14.3109C1.78866 14.2806 1.72301 14.1257 1.73143 13.7806C1.79202 11.3837 3.14874 8.65657 5.02386 6.91956Z"/>
</mask>
<path d="M31.0339 23.1999H28.4484V20.6144C28.4484 20.1397 28.0613 19.7526 27.5866 19.7526H24.1393C23.6646 19.7526 23.2775 20.1397 23.2775 20.6144V23.1999H20.692C20.2173 23.1999 19.8302 23.587 19.8302 24.0617V27.509C19.8302 27.9837 20.2173 28.3709 20.692 28.3709H23.2775V30.9563C23.2775 31.431 23.6646 31.8182 24.1393 31.8182H27.5866C28.0613 31.8182 28.4484 31.431 28.4484 30.9563V28.3709H31.0339C31.5086 28.3709 31.8957 27.9837 31.8957 27.509V24.0617C31.8957 23.582 31.5069 23.1999 31.0339 23.1999ZM30.1721 26.6472H27.5866C27.1119 26.6472 26.7248 27.0344 26.7248 27.509V30.0945H25.0011V27.509C25.0011 27.0343 24.614 26.6472 24.1393 26.6472H21.5538V24.9235H24.1393C24.614 24.9235 25.0011 24.5364 25.0011 24.0617V21.4762H26.7248V24.0617C26.7248 24.5364 27.1119 24.9235 27.5866 24.9235H30.1721V26.6472ZM36.2182 5.8035C36.262 6.27819 35.9119 6.69898 35.4422 6.74276C31.1853 7.14337 20.0237 11.0739 16.9569 14.0851L16.8829 14.1592C16.3004 14.7315 15.5767 15.4435 14.5465 15.5647C14.4472 15.5781 14.3445 15.5815 14.2401 15.5815C13.417 15.5815 12.5771 15.1893 11.685 14.383C10.3013 13.1341 9.31997 11.6511 8.85372 10.1042C8.30668 8.28626 8.47836 6.38589 9.33178 4.8811C9.90912 3.86776 10.7541 3.11875 11.7187 2.77031C12.8094 2.37811 13.9473 2.51614 14.9505 2.6407C15.1744 2.66595 15.3983 2.69625 15.6188 2.71814C17.2734 2.87804 23.5773 1.58867 26.5984 0.0888752C27.0243 -0.121531 27.5427 0.0552103 27.7532 0.476025C27.9636 0.901888 27.7919 1.42033 27.366 1.63074C24.2116 3.19448 17.5761 4.63369 15.4551 4.43168C15.2178 4.4098 14.9804 4.3795 14.7448 4.3492C13.8527 4.24147 13.0077 4.13879 12.3058 4.39296C11.7284 4.6 11.2032 5.07803 10.8312 5.73284C10.2101 6.82698 10.0906 8.24089 10.503 9.60602C10.8783 10.855 11.688 12.0619 12.8393 13.1055C13.4419 13.6492 13.9419 13.8983 14.3391 13.8512C14.7835 13.799 15.2094 13.3765 15.6655 12.9288L15.743 12.8514C19.096 9.56397 30.6952 5.45172 35.2754 5.02081C35.7518 4.98041 36.1745 5.32882 36.2182 5.8035ZM12.5818 20.4192C12.8444 21.4628 12.4438 22.4526 12.1206 23.2504L12.0465 23.4272C10.8228 26.4823 10.9002 29.7444 10.9827 33.2003C10.9995 33.8854 11.0163 34.5705 11.0214 35.2555C11.0264 35.7302 10.6426 36.1224 10.168 36.1258H10.1595C9.68485 36.1258 9.30276 35.747 9.29772 35.2723C9.29267 34.5923 9.27584 33.9157 9.259 33.239C9.17652 29.7614 9.09068 26.1677 10.444 22.7841L10.5181 22.6023C10.7807 21.9509 11.0315 21.3349 10.9052 20.84C10.8227 20.5168 10.5568 20.2071 10.168 19.995C9.74212 19.7627 9.20683 19.6466 8.68503 19.5338C7.25091 19.2275 5.76797 18.9093 4.31514 18.8824C3.35399 18.8656 2.71607 19.0457 2.36763 19.4345C1.88117 19.9731 1.91987 20.9376 2.17405 21.6496C2.41476 22.3297 2.83727 22.9558 3.28163 23.614C3.42302 23.8244 3.5661 24.0365 3.70413 24.252C5.88059 27.6387 6.07919 31.702 6.091 35.2489C6.091 35.7236 5.70722 36.1107 5.23422 36.1157H5.22917C4.75447 36.1157 4.36734 35.732 4.36734 35.259C4.35387 31.9581 4.17713 28.1825 2.25147 25.1846C2.12186 24.9826 1.98383 24.779 1.85085 24.582C1.36439 23.8616 0.864448 23.1176 0.544668 22.2289C0.0228747 20.7678 0.234949 19.2209 1.08331 18.2816C1.78522 17.5023 2.85074 17.1303 4.34545 17.1572C5.96138 17.1875 7.53016 17.5191 9.04672 17.8473C9.65943 17.977 10.3479 18.1268 10.9942 18.4803C11.8056 18.9297 12.3798 19.6348 12.5818 20.4192ZM1.03287 15.8442C1.30892 15.9772 1.5934 16.026 1.85092 16.026C2.19598 16.026 2.50569 15.9486 2.6959 15.9014C3.84725 15.6086 4.98008 15.2248 6.06577 14.7636C7.06562 14.3411 7.60426 13.2335 7.31981 12.1865C6.74751 10.0706 6.57916 7.34389 6.8889 5.22811C6.93603 4.89987 6.79463 4.57669 6.52195 4.39153C6.25094 4.20637 5.89747 4.19291 5.60794 4.35282C2.50067 6.12025 0.0918169 10.1568 0.000894162 13.7385C-0.0277211 15.1154 0.637336 15.649 1.03287 15.8442ZM5.02386 6.91956C4.97168 8.82838 5.19555 10.919 5.65679 12.6343C5.71738 12.8548 5.60124 13.0871 5.3942 13.173C4.38595 13.5988 3.33391 13.9523 2.27008 14.2284C1.93342 14.3142 1.82572 14.3109 1.81391 14.3109C1.78866 14.2806 1.72301 14.1257 1.73143 13.7806C1.79202 11.3837 3.14874 8.65657 5.02386 6.91956Z" fill="black" stroke="#A4C75A" stroke-width="0.6" mask="url(#path-1-inside-1_1172_481)"/>
</svg>
