<svg width="66" height="66" viewBox="0 0 66 66" fill="none" xmlns="http://www.w3.org/2000/svg">
<path d="M12.3822 0H3.37696C2.75785 0 2.2513 0.49153 2.2513 1.09229V4.36916H1.12565C0.506543 4.36916 0 4.86069 0 5.46145V18.5689C0 19.1697 0.506543 19.6612 1.12565 19.6612H2.2513V60.0759C2.2513 63.0906 4.77276 65.5374 7.87956 65.5374C10.9864 65.5374 13.5078 63.0906 13.5078 60.0759V24.0304H11.2565V51.3376H4.50261V50.2453H7.87956C8.49867 50.2453 9.00521 49.7538 9.00521 49.153V25.1227C9.00521 24.5219 8.49867 24.0304 7.87956 24.0304H4.50261V19.6612H11.2565V21.8458H13.5078V19.6612H14.6335C15.2526 19.6612 15.7591 19.1697 15.7591 18.5689V5.46145C15.7591 4.86069 15.2526 4.36916 14.6335 4.36916H13.5078V1.09229C13.5078 0.49153 13.0013 0 12.3822 0ZM11.2565 53.5222V60.0759C11.2565 61.8782 9.73689 63.3528 7.87956 63.3528C6.02224 63.3528 4.50261 61.8782 4.50261 60.0759V53.5222H11.2565ZM6.75391 26.215V48.0607H4.50261V26.215H6.75391ZM4.50261 17.4766H2.2513V6.55374H4.50261V17.4766ZM9.00521 17.4766H6.75391V6.55374H9.00521V17.4766ZM4.50261 4.36916V2.18458H11.2565V4.36916H4.50261ZM13.5078 17.4766H11.2565V6.55374H13.5078V17.4766Z" fill="#339CD7"/>
<path d="M37.1466 40.4146C37.7683 40.4146 38.2723 39.9255 38.2723 39.3223C38.2723 38.719 37.7683 38.23 37.1466 38.23C36.525 38.23 36.021 38.719 36.021 39.3223C36.021 39.9255 36.525 40.4146 37.1466 40.4146Z" fill="#339CD7"/>
<path d="M40.5234 33.8611C41.145 33.8611 41.649 33.3721 41.649 32.7688C41.649 32.1655 41.145 31.6765 40.5234 31.6765C39.9017 31.6765 39.3977 32.1655 39.3977 32.7688C39.3977 33.3721 39.9017 33.8611 40.5234 33.8611Z" fill="#339CD7"/>
<path d="M48.403 32.7687C49.0247 32.7687 49.5286 32.2797 49.5286 31.6764C49.5286 31.0731 49.0247 30.5841 48.403 30.5841C47.7813 30.5841 47.2773 31.0731 47.2773 31.6764C47.2773 32.2797 47.7813 32.7687 48.403 32.7687Z" fill="#339CD7"/>
<path d="M28.1413 26.215C28.763 26.215 29.2669 25.7259 29.2669 25.1227C29.2669 24.5194 28.763 24.0304 28.1413 24.0304C27.5196 24.0304 27.0156 24.5194 27.0156 25.1227C27.0156 25.7259 27.5196 26.215 28.1413 26.215Z" fill="#339CD7"/>
<path d="M40.5234 19.6609C41.145 19.6609 41.649 19.1719 41.649 18.5686C41.649 17.9654 41.145 17.4763 40.5234 17.4763C39.9017 17.4763 39.3977 17.9654 39.3977 18.5686C39.3977 19.1719 39.9017 19.6609 40.5234 19.6609Z" fill="#339CD7"/>
<path d="M52.9057 29.4918C53.5274 29.4918 54.0313 29.0028 54.0313 28.3995C54.0313 27.7963 53.5274 27.3073 52.9057 27.3073C52.284 27.3073 51.78 27.7963 51.78 28.3995C51.78 29.0028 52.284 29.4918 52.9057 29.4918Z" fill="#339CD7"/>
<path d="M37.1466 29.4918C37.7683 29.4918 38.2723 29.0028 38.2723 28.3995C38.2723 27.7963 37.7683 27.3073 37.1466 27.3073C36.525 27.3073 36.021 27.7963 36.021 28.3995C36.021 29.0028 36.525 29.4918 37.1466 29.4918Z" fill="#339CD7"/>
<path d="M51.7799 42.5991C52.4016 42.5991 52.9056 42.1101 52.9056 41.5068C52.9056 40.9036 52.4016 40.4146 51.7799 40.4146C51.1583 40.4146 50.6543 40.9036 50.6543 41.5068C50.6543 42.1101 51.1583 42.5991 51.7799 42.5991Z" fill="#339CD7"/>
<path d="M47.2775 45.8762C47.8992 45.8762 48.4032 45.3872 48.4032 44.7839C48.4032 44.1807 47.8992 43.6917 47.2775 43.6917C46.6558 43.6917 46.1519 44.1807 46.1519 44.7839C46.1519 45.3872 46.6558 45.8762 47.2775 45.8762Z" fill="#339CD7"/>
<path d="M34.8952 45.8762C35.5169 45.8762 36.0208 45.3872 36.0208 44.7839C36.0208 44.1807 35.5169 43.6917 34.8952 43.6917C34.2735 43.6917 33.7695 44.1807 33.7695 44.7839C33.7695 45.3872 34.2735 45.8762 34.8952 45.8762Z" fill="#339CD7"/>
<path d="M51.7799 24.0303C52.4016 24.0303 52.9056 23.5412 52.9056 22.938C52.9056 22.3347 52.4016 21.8457 51.7799 21.8457C51.1583 21.8457 50.6543 22.3347 50.6543 22.938C50.6543 23.5412 51.1583 24.0303 51.7799 24.0303Z" fill="#339CD7"/>
<path d="M32.6437 24.0303H34.895V22.938H36.0207V20.7534H34.895V19.6611H32.6437V20.7534H31.5181V22.938H32.6437V24.0303Z" fill="#339CD7"/>
<path d="M52.9057 31.6765V32.7688H51.78V34.9534H52.9057V36.0457H55.157V34.9534H56.2826V32.7688H55.157V31.6765H52.9057Z" fill="#339CD7"/>
<path d="M41.6492 43.6917H39.3979V44.7839H38.2722V46.9685H39.3979V48.0608H41.6492V46.9685H42.7748V44.7839H41.6492V43.6917Z" fill="#339CD7"/>
<path d="M31.5183 39.3223H29.267V40.4146H28.1414V42.5991H29.267V43.6914H31.5183V42.5991H32.644V40.4146H31.5183V39.3223Z" fill="#339CD7"/>
<path d="M35.8295 32.1677L33.5782 28.8908C33.3644 28.585 33.0154 28.3993 32.644 28.3993H28.1413C27.7699 28.3993 27.4097 28.585 27.2071 28.8908L24.9558 32.1677C24.7081 32.5391 24.7081 33.0088 24.9558 33.3801L27.2071 36.657C27.4209 36.9628 27.7699 37.1485 28.1413 37.1485H32.644C33.0154 37.1485 33.3756 36.9628 33.5782 36.657L35.8295 33.3801C36.0772 33.0088 36.0772 32.5391 35.8295 32.1677ZM32.0361 34.953H28.7379L27.2408 32.7685L28.7379 30.5839H32.0361L33.5332 32.7685L32.0361 34.953Z" fill="#339CD7"/>
<path d="M40.6809 26.226L42.3694 28.9567C42.572 29.2844 42.9435 29.4919 43.3375 29.4919H46.7144C47.1084 29.4919 47.4799 29.2953 47.6825 28.9567L49.3709 26.226C49.5848 25.8764 49.5848 25.4504 49.3709 25.1009L47.6825 22.3702C47.4799 22.0425 47.1084 21.835 46.7144 21.835H43.3375C42.9435 21.835 42.572 22.0316 42.3694 22.3702L40.6809 25.1009C40.467 25.4504 40.467 25.8764 40.6809 26.226ZM43.9678 24.0305H46.0728L47.0859 25.6689L46.0728 27.3073H43.9678L42.9547 25.6689L43.9678 24.0305Z" fill="#339CD7"/>
<path d="M47.6825 34.3962C47.4799 34.0685 47.1084 33.861 46.7144 33.861H43.3375C42.9435 33.861 42.572 34.0576 42.3694 34.3962L40.6809 37.1269C40.467 37.4764 40.467 37.9024 40.6809 38.252L42.3694 40.9827C42.572 41.3104 42.9435 41.5179 43.3375 41.5179H46.7144C47.1084 41.5179 47.4799 41.3213 47.6825 40.9827L49.3709 38.252C49.5848 37.9024 49.5848 37.4764 49.3709 37.1269L47.6825 34.3962ZM46.084 39.3224H43.9791L42.966 37.684L43.9791 36.0455H46.084L47.0971 37.684L46.084 39.3224Z" fill="#339CD7"/>
<path d="M20.2615 32.7689C20.2615 43.6153 29.3455 52.4301 40.5232 52.4301C51.7009 52.4301 60.7849 43.6153 60.7849 32.7689C60.7849 21.9224 51.7009 13.1077 40.5232 13.1077C29.3455 13.1077 20.2615 21.9224 20.2615 32.7689ZM58.5336 32.7689C58.5336 42.4029 50.4515 50.2455 40.5232 50.2455C30.595 50.2455 22.5128 42.4029 22.5128 32.7689C22.5128 23.1349 30.595 15.2922 40.5232 15.2922C50.4515 15.2922 58.5336 23.1349 58.5336 32.7689Z" fill="#339CD7"/>
<path d="M15.759 32.7687C15.759 46.0181 26.8692 56.799 40.5234 56.799V54.6145C28.1074 54.6145 18.0103 44.8166 18.0103 32.7687H15.759Z" fill="#339CD7"/>
<path d="M63.0365 32.7688H65.2878C65.2878 19.5193 54.1776 8.7384 40.5234 8.7384V10.923C52.9394 10.923 63.0365 20.7208 63.0365 32.7688Z" fill="#339CD7"/>
</svg>
