<svg width="74" height="72" viewBox="0 0 74 72" fill="none" xmlns="http://www.w3.org/2000/svg">
<path fill-rule="evenodd" clip-rule="evenodd" d="M30.9795 36.3111V37.3962L32.0999 36.3111H30.9795ZM40.496 36.3111L40.4495 36.355L40.4309 53.6C40.4374 55.5138 38.8738 57.0456 36.8977 57.0535C34.9128 57.0535 33.3302 55.5224 33.3319 53.6L33.3412 43.2394L30.9702 45.5403L30.9609 53.6C30.9581 56.7691 33.6256 59.3678 36.8977 59.3678C40.1595 59.3447 42.8313 56.759 42.8205 53.6L42.8391 36.3099L40.496 36.3111Z" fill="#339CD7"/>
<path fill-rule="evenodd" clip-rule="evenodd" d="M29.7336 35.154C29.5766 35.1572 29.4219 35.1902 29.2782 35.2513C29.1346 35.3125 29.0047 35.4005 28.8961 35.5102C28.7875 35.62 28.7024 35.7496 28.6454 35.8913C28.5885 36.0329 28.5609 36.1839 28.5642 36.3359C28.5676 36.4879 28.6018 36.6377 28.665 36.7769C28.7281 36.916 28.819 37.0418 28.9323 37.1469C29.0456 37.2521 29.1792 37.3346 29.3255 37.3898C29.4718 37.4449 29.6278 37.4718 29.7847 37.4686H30.9051L33.2947 35.154H29.7847C29.7677 35.1536 29.7506 35.1536 29.7336 35.154ZM41.6908 35.154L39.3012 37.4686H44.0338C44.3508 37.4686 44.6547 37.3465 44.8788 37.1295C45.1029 36.9124 45.2288 36.6181 45.2288 36.3111C45.2288 36.0042 45.1029 35.7098 44.8788 35.4928C44.6547 35.2757 44.3508 35.154 44.0338 35.154H41.6908Z" fill="#339CD7"/>
<path fill-rule="evenodd" clip-rule="evenodd" d="M46.986 17.8594C46.7861 17.8654 46.5911 17.9203 46.4188 18.0187C46.2466 18.117 46.1027 18.2558 46.0004 18.4222L43.1552 22.8978C41.9701 24.7619 40.8977 26.7085 39.9474 28.7107L45.9446 22.9023L48.0227 19.6334C48.1339 19.4643 48.1976 19.27 48.2075 19.0697C48.2175 18.8695 48.1733 18.6701 48.0795 18.4914C47.9856 18.3128 47.8452 18.1611 47.6722 18.051C47.4992 17.9409 47.2995 17.8764 47.0929 17.8639C47.0573 17.8623 47.0216 17.8623 46.986 17.8639L46.986 17.8594ZM39.2361 37.5313L36.1957 40.4805C35.8839 42.3997 35.703 44.3418 35.7029 46.2978V50.1431C35.7017 50.2958 35.7317 50.4474 35.7912 50.5888C35.8506 50.7303 35.9385 50.8589 36.0495 50.9673C36.1606 51.0758 36.2927 51.1616 36.4383 51.2203C36.5839 51.279 36.74 51.3095 36.8977 51.3095C37.0554 51.3095 37.2115 51.279 37.3571 51.2203C37.5027 51.1616 37.6348 51.0758 37.7459 50.9673C37.857 50.8589 37.9448 50.7303 38.0043 50.5888C38.0638 50.4474 38.0937 50.2958 38.0925 50.1431V46.2978C38.0926 43.3459 38.5007 40.4097 39.2361 37.5313Z" fill="#339CD7"/>
<path fill-rule="evenodd" clip-rule="evenodd" d="M52.9412 10.9706C52.8222 10.9759 52.7046 10.9985 52.5925 11.0376L43.9965 13.8784C39.412 15.3974 36.7023 20.0086 37.7065 24.5994L38.8408 29.7819L40.8492 27.8368L40.0263 24.1264C39.2677 20.658 41.2906 17.2053 44.7543 16.0577L51.7836 13.7254V17.2467L54.1546 14.9503V12.1272C54.1565 11.8343 54.0432 11.5517 53.8377 11.3367C53.6322 11.1218 53.3498 10.9907 53.0481 10.97C53.0125 10.9685 52.9768 10.969 52.9412 10.9706ZM53.7966 23.4293L46.4651 30.5344C50.1122 29.6271 52.8815 26.8744 53.7966 23.4293Z" fill="#339CD7"/>
<path fill-rule="evenodd" clip-rule="evenodd" d="M25.5774 24.735C24.2281 24.6935 23.8603 26.5149 25.1264 26.9683L29.3105 28.7018C31.68 29.6844 33.7594 31.192 35.4332 33.0829L37.1115 31.4574C35.2232 29.364 32.9036 27.6735 30.2589 26.5766L26.0609 24.8569C25.9654 24.8085 25.8638 24.7738 25.7587 24.7531C25.6995 24.73 25.6202 24.73 25.5774 24.73L25.5774 24.735Z" fill="#339CD7"/>
<path fill-rule="evenodd" clip-rule="evenodd" d="M24.8113 20.8575C28.7751 20.1989 32.6261 22.5672 33.7022 26.3203L34.4753 28.9917C34.5448 29.2335 34.531 29.4908 34.4358 29.7243C34.3407 29.9577 34.1695 30.1548 33.9482 30.2854L31.4004 31.7659C28.244 33.6005 24.1684 33.0351 21.6837 30.4044L15.7974 24.159C15.6508 24.0071 15.5494 23.8194 15.5038 23.6162C15.4583 23.4129 15.4704 23.2015 15.5389 23.0044C15.6073 22.8073 15.7295 22.6318 15.8926 22.4964C16.0557 22.3611 16.2535 22.2712 16.4651 22.2359L24.8113 20.8575ZM25.2154 23.1209L19.0305 24.159L23.4408 28.8387C25.1712 30.6707 27.9898 31.0694 30.188 29.7918L31.9451 28.7708L31.418 26.9326C30.6633 24.3006 27.9952 22.6591 25.2154 23.1209Z" fill="#339CD7"/>
<path d="M36.8944 0C16.5323 0 9.49732e-06 16.0117 0 35.7327C9.49732e-06 55.4537 16.5323 71.4654 36.8944 71.4654C57.2565 71.4654 73.7887 55.4537 73.7887 35.7327C73.7887 16.0117 57.2565 0 36.8944 0ZM36.8944 2.30534C55.9701 2.30534 71.4084 17.2577 71.4084 35.7327C71.4084 54.2079 55.9701 69.1601 36.8944 69.1601C17.8187 69.1601 2.38029 54.2079 2.38028 35.7327C2.38029 17.2577 17.8187 2.30534 36.8944 2.30534Z" fill="#339CD7"/>
<path fill-rule="evenodd" clip-rule="evenodd" d="M61.3017 10.4686L10.8044 59.3715L12.4874 61.0014L62.9847 12.0986L61.3017 10.4686Z" fill="#339CD7"/>
</svg>
