<svg width="70" height="72" viewBox="0 0 70 72" fill="none" xmlns="http://www.w3.org/2000/svg">
<path d="M66.911 67.242L66.8916 67.2618C64.7444 69.5942 61.813 70.8799 58.8139 71.0713C55.7844 71.2626 52.678 70.3372 50.2252 68.2501C46.4401 65.0363 42.6587 61.8153 38.8783 58.5934C36.332 61.3373 33.0997 63.4083 29.5173 64.6014C25.6739 65.8817 21.4212 66.1576 17.175 65.1845L17.1407 65.1764C11.1659 63.7991 6.32706 60.2016 3.33361 55.5009C0.336444 50.792 -0.812606 44.9718 0.600328 39.1641L0.608662 39.1308C2.029 33.3339 5.73541 28.6368 10.5816 25.732C15.4361 22.8219 21.4342 21.7087 27.4192 23.0798C30.3386 23.7482 32.9876 24.9459 35.2792 26.5398C37.5116 28.0932 39.4125 30.0258 40.9032 32.2199C43.1291 32.5145 45.2939 33.422 47.1012 34.962L65.8694 50.9412C68.323 53.031 69.6748 55.9052 69.8721 58.8486C70.0684 61.7883 69.1137 64.8045 66.9629 67.1845L66.911 67.242ZM42.1087 8.80675C43.0689 8.80675 43.9411 9.18591 44.5707 9.79686C45.2003 10.4078 45.5911 11.2542 45.5911 12.1868C45.5911 13.1194 45.2003 13.9657 44.5707 14.5767L44.492 14.6468C43.8689 15.2164 43.0291 15.5668 42.1087 15.5668C41.1476 15.5668 40.2754 15.1877 39.6458 14.5767C39.0162 13.9657 38.6255 13.1194 38.6255 12.1868C38.6255 11.2542 39.0162 10.4078 39.6458 9.79686C40.2754 9.18591 41.1476 8.80675 42.1087 8.80675ZM42.9078 11.4105C42.7041 11.2128 42.4198 11.0889 42.1087 11.0889C41.7967 11.0889 41.5125 11.2128 41.3088 11.4105C41.1051 11.6082 40.9773 11.884 40.9773 12.1868C40.9773 12.4896 41.1051 12.7654 41.3088 12.9631C41.5125 13.1607 41.7967 13.2847 42.1087 13.2847C42.4013 13.2847 42.6671 13.1796 42.8643 13.008L42.9078 12.9631C43.1115 12.7654 43.2393 12.4896 43.2393 12.1868C43.2393 11.884 43.1115 11.6082 42.9078 11.4105ZM59.9519 8.80675C60.9139 8.80675 61.7843 9.18591 62.4139 9.79686C63.0435 10.4078 63.4342 11.2542 63.4342 12.1868C63.4342 13.1158 63.0435 13.9612 62.4148 14.5722C61.7852 15.1877 60.913 15.5668 59.9519 15.5668C58.9908 15.5668 58.1186 15.1877 57.489 14.5767C56.8594 13.9657 56.4686 13.1194 56.4686 12.1868C56.4686 11.2542 56.8594 10.4078 57.489 9.79686C58.1186 9.18591 58.9908 8.80675 59.9519 8.80675ZM60.7509 11.4105C60.5472 11.2128 60.263 11.0889 59.9519 11.0889C59.6399 11.0889 59.3556 11.2128 59.1519 11.4105C58.9482 11.6082 58.8204 11.884 58.8204 12.1868C58.8204 12.4896 58.9482 12.7654 59.1519 12.9631C59.3556 13.1607 59.6399 13.2847 59.9519 13.2847C60.2639 13.2847 60.5482 13.1607 60.7519 12.9631C60.9556 12.7681 61.0824 12.4923 61.0824 12.1868C61.0824 11.884 60.9546 11.6082 60.7509 11.4105ZM51.0299 8.80675C51.9919 8.80675 52.8622 9.18591 53.4918 9.79686C54.1215 10.4078 54.5122 11.2542 54.5122 12.1868C54.5122 13.1158 54.1215 13.9612 53.4928 14.5722C52.8631 15.1877 51.9909 15.5668 51.0299 15.5668C50.0688 15.5668 49.1966 15.1877 48.5669 14.5767C47.9373 13.9657 47.5466 13.1194 47.5466 12.1868C47.5466 11.2542 47.9373 10.4078 48.5669 9.79686C49.1966 9.18591 50.0688 8.80675 51.0299 8.80675ZM51.8289 11.4105C51.6252 11.2128 51.341 11.0889 51.0299 11.0889C50.7178 11.0889 50.4336 11.2128 50.2299 11.4105C50.0262 11.6082 49.8984 11.884 49.8984 12.1868C49.8984 12.4896 50.0262 12.7654 50.2299 12.9631C50.4336 13.1607 50.7178 13.2847 51.0299 13.2847C51.3419 13.2847 51.6261 13.1607 51.8298 12.9631C52.0335 12.7681 52.1604 12.4923 52.1604 12.1868C52.1604 11.884 52.0326 11.6082 51.8289 11.4105ZM39.7162 0H62.3435C63.9675 0 65.4444 0.645098 66.5119 1.68103C67.5795 2.71696 68.2443 4.15001 68.2443 5.72592V18.6476C68.2443 20.2235 67.5795 21.6575 66.5119 22.6934C65.4444 23.7294 63.9666 24.3745 62.3435 24.3745H55.3714C55.0168 24.3745 54.6918 24.4787 54.4335 24.6611L54.3779 24.6979C54.1483 24.8767 53.9668 25.131 53.865 25.4364L52.1465 30.5882C51.9493 31.1866 51.2882 31.5155 50.6715 31.3241C50.2975 31.2082 50.0252 30.9261 49.9132 30.5882L48.1938 25.4319C48.0864 25.1103 47.8855 24.8435 47.6262 24.6611L47.5697 24.6188C47.3244 24.4625 47.0207 24.3745 46.6883 24.3745H39.7162C38.0968 24.3745 36.6209 23.7294 35.5515 22.6907C34.4811 21.6575 33.8163 20.2235 33.8163 18.6476V5.72592C33.8163 4.15001 34.4811 2.71696 35.5487 1.68103L35.6218 1.61634C36.6857 0.617246 38.132 0 39.7162 0ZM62.3435 2.2821H39.7162C38.7653 2.2821 37.8986 2.64867 37.2635 3.24166L37.2116 3.29467C36.5681 3.9191 36.1681 4.77983 36.1681 5.72592V18.6476C36.1681 19.5937 36.5681 20.4554 37.2116 21.0798C37.8514 21.7051 38.7394 22.0924 39.7162 22.0924H46.6883C47.5059 22.0924 48.2744 22.3322 48.9142 22.7581L49.004 22.8156C49.6586 23.2765 50.1614 23.9387 50.4271 24.7365L51.0299 26.5434L51.6317 24.732C51.8845 23.9791 52.3539 23.3448 52.965 22.8857L53.0557 22.8156C53.7104 22.3547 54.5113 22.0924 55.3714 22.0924H62.3435C63.3176 22.0924 64.2055 21.7042 64.849 21.0798C65.4925 20.4554 65.8925 19.5937 65.8925 18.6476V5.72592C65.8925 4.77983 65.4925 3.9191 64.849 3.29467C64.2055 2.67024 63.3185 2.2821 62.3435 2.2821ZM16.5778 62.6724L25.7322 25.0699C20.7582 24.2226 15.8426 25.2523 11.8131 27.6673C7.47333 30.2684 4.15396 34.4804 2.88824 39.6789C1.6216 44.8846 2.64751 50.0948 5.32801 54.3059C7.8187 58.2178 11.739 61.2735 16.5778 62.6724ZM28.0183 25.5919L18.8638 63.1953C22.2777 63.7775 25.6637 63.473 28.7544 62.4433C31.9562 61.3768 34.8422 59.5323 37.1144 57.0912L31.4562 52.27C29.0007 50.1793 27.6479 47.3051 27.4516 44.3608C27.2544 41.421 28.2072 38.404 30.3599 36.024C32.3904 33.7805 35.1367 32.4867 37.9838 32.183C36.8274 30.7509 35.4589 29.4714 33.9108 28.3942C32.1599 27.1759 30.1794 26.2181 28.0183 25.5919ZM39.4458 56.0462L39.4968 56.084C39.5393 56.1172 39.5792 56.1532 39.6162 56.1909L41.8087 58.0579C45.2133 57.2762 48.1753 55.4928 50.3734 53.0633C52.5715 50.6312 54.0103 47.5486 54.364 44.1712L45.5587 36.6744C43.5939 35.0006 41.0949 34.2576 38.6579 34.4112C36.2246 34.5648 33.8487 35.6152 32.1247 37.5208C30.3988 39.4282 29.6349 41.8532 29.7942 44.2188C29.9516 46.5809 31.0349 48.8846 32.9987 50.5575L39.4458 56.0462ZM56.4677 45.9628C55.8316 49.2053 54.3085 52.1595 52.1382 54.5602C49.966 56.9627 47.1429 58.8126 43.9115 59.8476L51.8271 66.5861C53.7835 68.2249 56.2538 68.9509 58.6677 68.7982C61.0732 68.6454 63.4213 67.6176 65.1397 65.7515L65.2481 65.6302C66.9369 63.7317 67.686 61.3319 67.5295 58.9905C67.3721 56.6293 66.2897 54.3248 64.3268 52.6536L56.4677 45.9628ZM46.9762 39.4228C47.4633 39.8361 47.5133 40.5549 47.0873 41.0275C46.6614 41.5001 45.9207 41.5486 45.4337 41.1353L43.2254 39.2548C42.5985 38.7202 41.8819 38.3366 41.1282 38.103C40.343 37.8586 39.5153 37.776 38.707 37.8505C38.0635 37.9089 37.4903 37.4498 37.4301 36.8254C37.3699 36.201 37.8431 35.6448 38.4866 35.5864C39.6097 35.4822 40.7578 35.5972 41.8449 35.9359C42.8939 36.262 43.893 36.7966 44.7679 37.5424L46.9762 39.4228ZM35.3487 36.4965C35.9163 36.1947 36.6311 36.3959 36.9422 36.9467C37.2533 37.4974 37.0459 38.191 36.4783 38.4929L36.0811 38.7131C35.5265 39.0347 34.8052 38.8595 34.4737 38.3213C34.1422 37.7831 34.3228 37.0832 34.8774 36.7616L35.3487 36.4965Z" fill="#339CD7"/>
</svg>
