<svg width="69" height="67" viewBox="0 0 69 67" fill="none" xmlns="http://www.w3.org/2000/svg">
<mask id="path-1-outside-1_1172_562" maskUnits="userSpaceOnUse" x="-0.699951" y="-0.699951" width="69" height="67" fill="black">
<rect fill="white" x="-0.699951" y="-0.699951" width="69" height="67"/>
<path d="M59.4611 65.628L54.573 63.7119C53.6341 63.2517 52.9758 62.3406 52.9758 61.3356C48.6491 60.4246 43.9449 61.5141 39.6279 61.0632C38.4954 61.1572 37.0919 60.8848 36.153 60.603C33.0459 59.5041 25.9025 56.1322 23.5504 54.4885C22.8922 54.0282 22.4179 53.6713 22.0501 53.1171C20.453 51.0226 18.8559 48.9187 17.162 46.8241C15.4681 44.6357 17.3459 42.3533 19.7948 42.4472L19.5141 41.9024C18.2945 39.2537 20.8305 37.5255 23.4633 38.2487C23.1826 36.9714 22.9019 35.694 22.6212 34.4166C22.3405 33.2331 22.718 32.2281 23.5601 31.5894C24.3151 31.0447 25.4379 30.9507 26.3768 31.1292C27.1318 31.4016 27.79 31.7679 28.3514 32.3126C28.6321 31.1292 29.3871 30.0303 30.4228 29.2131C31.2649 28.5744 32.3006 29.8518 31.4585 30.4905C30.4228 31.2231 29.8614 32.4066 29.8614 33.59C29.8614 35.7785 31.7392 37.5161 33.9945 37.5161C36.2498 37.5161 38.0405 35.7785 38.0405 33.59C38.0405 32.1342 37.2855 30.8568 35.9691 30.1242C35.0302 29.6639 35.8723 28.2081 36.8112 28.7529C38.4083 29.6639 39.444 31.2137 39.6279 32.9513C41.1282 32.1342 43.2964 32.7729 44.516 34.4072C46.0163 36.2293 47.5263 38.0609 48.9395 39.883C49.0363 40.0615 49.1234 40.0615 49.317 40.1554C50.8173 40.7941 55.0569 42.4378 58.9093 47.9982C59.6643 47.6319 60.5064 47.6319 61.2614 47.9043L66.1496 49.8204C67.466 50.3651 68.1242 51.8304 67.5628 53.1923L62.9553 64.144C62.4714 65.5435 60.8743 66.1822 59.4611 65.628ZM34.3623 31.6927C34.1784 32.7917 32.7652 32.6977 32.6684 31.6927C32.6684 29.5982 32.3877 27.4003 31.8263 25.2119C29.0096 26.029 25.525 24.9395 24.2086 21.4736C23.2697 19.0128 22.3308 14.0817 21.0144 12.2596C20.6369 11.7148 21.1112 10.9822 21.7694 10.9822C25.9993 11.2545 29.0096 12.1656 31.081 13.2646C34.4688 15.0022 35.5916 17.2752 35.8723 18.5526C36.153 19.5576 36.0562 20.5626 35.8723 21.3797C36.0562 21.0134 36.3466 20.741 36.7144 20.4686C37.5565 19.736 39.3472 18.731 42.4543 19.0128C44.3321 19.2852 46.6842 20.0178 49.6945 21.6615C50.1688 21.9339 50.3527 22.845 49.5106 23.1173C48.6685 23.3897 47.2553 24.5732 45.8421 25.766C44.9032 26.4987 44.0514 27.2219 43.2093 27.6821C40.6733 29.5043 37.9437 28.6871 36.3466 26.9495C35.5916 27.8606 34.9334 28.9595 34.2752 30.143C34.3623 30.6877 34.3623 31.2325 34.3623 31.6927ZM35.398 25.4843C35.1173 24.6671 35.0205 23.7466 35.2141 22.9295C34.7398 23.5682 34.0816 24.1129 33.3363 24.5732V24.6671C33.617 25.4843 33.8106 26.4047 33.9945 27.2219C34.3623 26.5832 34.9237 26.029 35.398 25.4843ZM36.8015 24.3008C37.6436 23.756 38.5922 23.2019 39.6182 22.845C39.9957 22.6665 40.4604 22.9389 40.6539 23.3052C40.8378 23.7654 40.5571 24.2163 40.1796 24.4041C39.1439 24.7704 38.3018 25.2213 37.5468 25.7754C38.5825 27.0528 40.5571 27.5976 42.251 26.4141C43.006 25.9539 43.8482 25.2307 44.7871 24.498C45.726 23.7654 46.6649 22.9483 47.5167 22.4035C45.4453 21.3046 43.6642 20.7598 42.251 20.6659C39.8022 20.3935 38.3986 21.1261 37.8275 21.6709C36.8983 22.4786 36.6176 23.4743 36.8015 24.3008ZM31.352 23.6621C30.597 21.6521 29.4742 19.736 27.7803 17.7354C27.4996 17.3691 27.4996 16.9183 27.8771 16.6365C28.2546 16.3641 28.7192 16.3641 29.0096 16.7304C30.8003 18.8249 32.0199 20.9289 32.862 23.0234C33.9945 22.1123 34.7398 20.741 34.2752 18.9189C33.9945 17.9139 33.0556 16.0917 30.326 14.7204C28.6321 13.8093 26.28 13.0767 23.0858 12.7104C24.2183 15.3591 24.6829 18.2802 25.7186 20.9195C26.7446 23.4743 29.2806 24.2069 31.352 23.6621ZM33.9848 7.96715C34.3623 7.96715 34.7398 8.33346 34.7398 8.78431C34.7398 9.24454 34.3623 9.60146 33.9848 9.60146C33.5105 9.60146 33.1427 9.23515 33.1427 8.78431C33.133 8.33346 33.5105 7.96715 33.9848 7.96715ZM36.7144 8.23954C37.0919 8.23954 37.4694 8.69977 37.3726 9.15061C37.2758 9.51692 36.8983 9.88323 36.4337 9.78931C35.9594 9.69538 35.6787 9.32907 35.7755 8.87823C35.7658 8.42739 36.2401 8.155 36.7144 8.23954ZM39.3472 8.7937C39.8215 8.97216 40.0054 9.43239 39.9086 9.89263C39.715 10.2495 39.2504 10.5219 38.8729 10.3435C38.3986 10.2495 38.2147 9.7987 38.3115 9.33847C38.4954 8.87823 38.8729 8.69977 39.3472 8.7937ZM41.8832 9.88323C42.2607 10.0617 42.4446 10.5219 42.2607 10.8882C42.0768 11.3485 41.5057 11.433 41.1282 11.2545C40.7507 11.0761 40.5668 10.6159 40.7507 10.1556C40.9443 9.78931 41.5057 9.61085 41.8832 9.88323ZM44.2353 11.2545C44.6128 11.5269 44.7096 11.9872 44.4192 12.3535C44.1385 12.7198 43.5771 12.8137 43.2867 12.5319C42.9092 12.2596 42.8125 11.7993 43.1028 11.433C43.2964 11.0667 43.8578 10.9822 44.2353 11.2545ZM46.297 12.9828C46.6745 13.2552 46.5777 13.7999 46.297 14.0817C46.0163 14.448 45.4549 14.448 45.1646 14.0817C44.7871 13.8093 44.7871 13.2646 45.1646 12.9828C45.4549 12.6259 46.0163 12.6259 46.297 12.9828ZM48.0877 14.9928C48.3684 15.3591 48.2717 15.8099 47.9038 16.0917C47.5263 16.3641 47.0617 16.2702 46.7713 15.9133C46.4906 15.5469 46.5874 15.0961 46.9552 14.8143C47.3327 14.5419 47.807 14.6265 48.0877 14.9928ZM49.5009 17.2752C49.6848 17.6415 49.5977 18.0923 49.1234 18.3741C48.7459 18.5526 48.2813 18.3741 48.0877 18.0078C47.807 17.5476 47.9909 17.0967 48.3684 16.9089C48.8427 16.7304 49.3073 16.9089 49.5009 17.2752ZM50.5366 19.736C50.7205 20.1023 50.4398 20.5532 50.0623 20.741C49.5881 20.8349 49.1234 20.6471 49.0266 20.1963C48.8427 19.8299 49.1234 19.3791 49.5009 19.1913C49.9655 19.0973 50.4398 19.2852 50.5366 19.736ZM51.4755 24.9395C51.4755 25.3997 51.098 25.7566 50.6334 25.7566C50.1591 25.7566 49.7913 25.3903 49.7913 24.9395C49.7913 24.4793 50.1688 24.1223 50.6334 24.2069C51.098 24.1129 51.3787 24.4793 51.4755 24.9395ZM51.1948 27.5882C51.098 28.0484 50.7205 28.3208 50.2559 28.3208C49.7816 28.2269 49.5009 27.776 49.5977 27.4097C49.6945 26.9495 50.072 26.6771 50.5366 26.6771C51.0012 26.7617 51.282 27.2219 51.1948 27.5882ZM50.5366 30.2275C50.4398 30.5938 49.9752 30.8662 49.5009 30.6877C49.1234 30.5938 48.8427 30.143 49.0266 29.6827C49.1234 29.3164 49.5881 29.044 50.0623 29.2225C50.4398 29.3164 50.7205 29.7767 50.5366 30.2275ZM49.5009 32.6977C49.317 33.064 48.8427 33.2425 48.3684 32.9701C47.9909 32.7917 47.807 32.3314 48.0877 31.9651C48.2716 31.5049 48.7459 31.4204 49.1234 31.5988C49.5881 31.7773 49.6848 32.2375 49.5009 32.6977ZM48.0877 34.9707C47.807 35.2431 47.3327 35.337 46.9552 35.0647C46.5777 34.8862 46.481 34.332 46.7713 33.9657C47.052 33.5994 47.5263 33.5055 47.9038 33.7873C48.2717 34.0597 48.3684 34.6138 48.0877 34.9707ZM19.7851 34.9707C19.5044 34.6044 19.6012 34.0597 19.969 33.7873C20.3465 33.5149 20.9079 33.6088 21.1015 33.9657C21.3822 34.332 21.2854 34.8768 20.9176 35.0647C20.6369 35.337 20.0658 35.2525 19.7851 34.9707ZM18.3719 32.6977C18.188 32.2375 18.3719 31.7867 18.7494 31.5988C19.1269 31.4204 19.5915 31.5049 19.8819 31.9651C20.0658 32.3314 19.8819 32.7823 19.5044 32.9701C19.0301 33.2425 18.5655 33.0547 18.3719 32.6977ZM17.3459 30.2275C17.162 29.7673 17.4427 29.3164 17.8202 29.2225C18.2945 29.044 18.7591 29.3164 18.9527 29.6827C19.0495 30.143 18.8559 30.5938 18.3913 30.6877C17.9073 30.8662 17.433 30.5938 17.3459 30.2275ZM16.6877 27.5882C16.5909 27.2219 16.9684 26.771 17.3459 26.6771C17.8202 26.6771 18.2848 26.9495 18.2848 27.4097C18.3816 27.776 18.1009 28.2269 17.6266 28.3208C17.1523 28.3114 16.7748 28.039 16.6877 27.5882ZM16.4941 24.9395C16.4941 24.4793 16.8716 24.2069 17.3362 24.2069C17.7137 24.2069 18.0912 24.4793 18.0912 24.9395C18.0912 25.3997 17.7137 25.7566 17.3362 25.7566C16.8716 25.7566 16.4941 25.3903 16.4941 24.9395ZM16.6877 22.2908C16.7845 21.8306 17.162 21.5582 17.6266 21.6521C18.1009 21.746 18.3816 22.1123 18.2848 22.5632C18.2848 23.0234 17.8105 23.2958 17.3459 23.2019C16.9684 23.1173 16.5909 22.751 16.6877 22.2908ZM17.3459 19.736C17.4427 19.2758 17.9073 19.0973 18.3816 19.1913C18.7591 19.3697 19.0398 19.8299 18.943 20.1963C18.7591 20.6565 18.2848 20.8349 17.8105 20.741C17.433 20.5626 17.1523 20.1023 17.3459 19.736ZM18.3719 17.2752C18.5558 16.9089 19.0301 16.7304 19.5044 16.9089C19.8819 17.0873 20.0658 17.6415 19.8819 18.0078C19.6012 18.3741 19.1269 18.5526 18.7494 18.3741C18.3719 18.0923 18.188 17.6415 18.3719 17.2752ZM19.7851 14.9928C20.0658 14.6265 20.6272 14.5325 20.9176 14.8143C21.2951 15.0867 21.3919 15.5469 21.1015 15.9133C20.9176 16.2796 20.3465 16.3735 19.969 16.0917C19.6012 15.8193 19.5044 15.3591 19.7851 14.9928ZM25.9896 9.88323C26.4639 9.61085 26.9285 9.78931 27.1221 10.1556C27.306 10.6159 27.2189 11.0667 26.7446 11.2545C26.3671 11.433 25.9025 11.3485 25.6121 10.8882C25.4282 10.5219 25.6121 10.0711 25.9896 9.88323ZM28.5353 8.7937C29.0096 8.69977 29.4742 8.97216 29.571 9.33847C29.7549 9.7987 29.4742 10.2495 29.0967 10.3435C28.6224 10.5219 28.1578 10.2495 28.061 9.88323C27.8771 9.43239 28.1578 8.97216 28.5353 8.7937ZM31.2552 8.23954C31.6327 8.14561 32.0973 8.418 32.1941 8.87823C32.1941 9.33847 31.9134 9.69538 31.4391 9.78931C31.0616 9.88323 30.597 9.51692 30.5002 9.15061C30.5099 8.69977 30.7906 8.23954 31.2552 8.23954ZM15.5552 55.8692L14.0549 57.325C18.4784 60.7909 23.5504 62.8948 28.9128 63.7119C34.5559 64.623 40.4797 64.0783 45.9292 61.9743C46.3067 61.7959 46.7713 61.9743 46.9649 62.3406C47.1488 62.8009 46.9649 63.2517 46.4906 63.4396C40.7507 65.628 34.643 66.2667 28.7192 65.3556C22.9793 64.4446 17.5298 62.1622 12.8256 58.5085L11.4124 59.9643C10.9381 60.4245 10.1928 60.2367 9.99919 59.598L8.58599 54.4885L8.1117 54.0282C7.92779 53.7558 7.7342 53.568 7.55029 53.2111C2.46859 47.0965 0.12617 39.7985 0.31008 32.5005C0.406874 25.3809 2.94288 18.3553 7.7342 12.6071L6.05966 11.0667C5.30466 10.3341 6.05966 9.88323 6.43716 9.69538L11.9835 8.23954L12.4578 7.96715V7.87323C12.7385 7.69477 13.0192 7.51631 13.2031 7.32846C19.5044 2.4913 27.0253 0.208906 34.4494 0.302832C41.7864 0.396757 49.0266 2.85761 54.9505 7.42239L56.4508 5.96654C57.2929 5.32785 57.864 5.96654 57.864 6.23892L59.2772 11.4424L59.6547 11.9026C59.9354 12.175 60.2161 12.5413 60.4968 12.8137C64.446 17.7448 66.7981 23.3052 67.4563 29.0534C68.2113 34.9801 67.2724 41.0947 64.7267 46.5705C64.5428 46.9368 64.0685 47.1153 63.5942 46.9368C63.2167 46.7584 63.0328 46.2982 63.2167 45.9318C65.6656 40.7284 66.5077 34.8956 65.8495 29.2319C65.0945 23.85 62.936 18.468 59.1707 13.8093C58.9868 13.5369 58.6964 13.1706 58.4157 12.8982L58.135 12.5319L52.7726 11.433C52.0176 11.2545 51.9305 10.5219 52.2983 10.0617L53.7986 8.60585C48.1845 4.32284 41.3218 2.04045 34.4494 1.94653C27.306 1.8526 20.1529 4.04107 14.2388 8.60585C13.9581 8.78431 13.6774 8.97216 13.4838 9.15061C13.2999 9.32907 13.1063 9.51692 12.9224 9.61085L11.7028 14.7204C11.606 15.453 10.7639 15.5376 10.3864 15.0867L8.88605 13.7154C4.37544 19.1913 2.02334 25.8506 1.92654 32.6038C1.82975 39.451 4.08506 46.3827 8.78926 52.3094C8.97317 52.4878 9.16676 52.6757 9.44746 53.042L9.72816 53.3144L15.1777 54.4978C15.9327 54.6857 16.0295 55.4089 15.5552 55.8692ZM11.2285 57.8792L13.387 55.7846L10.4735 55.1459L11.2285 57.8792ZM8.31497 10.8882L10.4735 12.9828L11.1317 10.1556L8.31497 10.8882ZM56.6444 8.06108L54.573 10.1556L57.3897 10.7943L56.6444 8.06108ZM30.7906 38.2581L32.107 43.4616C33.1427 44.2788 36.153 46.6551 37.2758 47.1998C37.7501 47.4722 38.2147 47.4722 38.7761 47.3783L42.9092 46.2794C42.1542 45.0959 41.496 43.997 40.8378 42.992C39.9957 41.6207 38.5825 39.5261 38.1082 38.1548C38.1082 37.9764 38.0115 37.6946 38.0115 37.5161C36.9758 38.5211 35.4754 39.1598 33.9655 39.1598C32.7652 39.1692 31.7295 38.8029 30.7906 38.2581ZM56.9251 62.8948L62.2875 50.1209L60.5936 49.3883C60.0322 49.2098 59.4611 49.4822 59.2772 49.9331L54.6698 60.8848C54.4858 61.4296 54.7665 61.9837 55.2312 62.1622L56.9251 62.8948ZM63.7878 50.6657L58.4254 63.4396L60.1193 64.0783C60.5936 64.3506 61.2518 64.0783 61.4357 63.618L66.0431 52.6663C66.227 52.1215 66.0431 51.5674 65.4817 51.295L63.7878 50.6657ZM53.3533 59.7952L57.7768 49.2098C54.0115 43.8279 49.9752 42.0903 48.562 41.4516C48.0877 41.2731 47.807 41.1792 47.6231 40.9068C46.2099 39.0847 44.7096 37.2531 43.2964 35.431C42.2607 34.1536 40.2861 33.5149 39.7247 35.5249C39.5408 36.1636 39.5408 36.8962 39.7247 37.7134C40.1022 38.7184 41.6025 41.0853 42.2607 42.1842C43.0157 43.4616 43.8578 44.739 44.8935 46.2888C45.1742 46.749 44.9903 47.3877 44.4192 47.5661L39.1536 48.9375C38.1179 49.1159 37.3629 49.0314 36.424 48.5711C34.7301 47.5661 32.1941 45.744 30.7809 44.4666C30.6841 44.3727 30.5002 44.1942 30.5002 44.0064L28.5256 35.7034C27.9642 33.9657 26.9285 32.9701 25.9896 32.6883C25.5153 32.5944 24.9539 32.5944 24.4893 32.8668C24.2086 33.1392 24.1118 33.5055 24.2086 34.0503C24.6829 35.694 24.9636 37.5161 25.3411 39.4322C25.7186 41.4422 26.0961 43.4428 26.5607 45.2744C26.7446 45.9131 26.9382 46.2794 27.2189 46.8241C29.2903 50.1961 32.3006 53.2111 34.7398 56.3106C36.153 57.9543 37.1887 59.1378 39.6279 59.4102C44.1385 59.9737 48.7459 58.8748 53.3533 59.7952ZM23.8311 40.1742C22.4179 39.2631 20.2594 39.9018 21.0144 41.2731C21.7694 42.729 22.234 43.734 22.7083 44.739C23.1826 45.8379 23.744 47.0214 24.5861 48.6651C24.77 49.1253 25.0604 49.4822 25.525 49.9425C26.9382 51.3983 29.2903 53.1359 31.352 54.7796C29.3774 52.4972 27.1221 49.764 25.8057 47.6601C25.4282 47.0214 25.1475 46.3827 24.9636 45.6501C24.5861 43.9124 24.2086 41.9964 23.8311 40.1742ZM30.7906 56.4139C28.5353 54.6763 25.9025 52.6757 24.3054 51.032C23.744 50.4872 23.3665 49.9331 23.0858 49.3883C22.2437 47.6507 21.6726 46.4672 21.208 45.3777C21.0241 45.0114 20.8305 44.739 20.7337 44.3727C19.3205 43.6401 17.4427 44.4666 18.4784 45.8285C20.1723 47.9231 21.6726 50.1209 23.2697 52.1215C23.6472 52.5818 24.0247 52.8542 24.4893 53.2205C26.0864 54.3194 28.5353 55.4089 30.7906 56.4139Z"/>
</mask>
<path d="M59.4611 65.628L54.573 63.7119C53.6341 63.2517 52.9758 62.3406 52.9758 61.3356C48.6491 60.4246 43.9449 61.5141 39.6279 61.0632C38.4954 61.1572 37.0919 60.8848 36.153 60.603C33.0459 59.5041 25.9025 56.1322 23.5504 54.4885C22.8922 54.0282 22.4179 53.6713 22.0501 53.1171C20.453 51.0226 18.8559 48.9187 17.162 46.8241C15.4681 44.6357 17.3459 42.3533 19.7948 42.4472L19.5141 41.9024C18.2945 39.2537 20.8305 37.5255 23.4633 38.2487C23.1826 36.9714 22.9019 35.694 22.6212 34.4166C22.3405 33.2331 22.718 32.2281 23.5601 31.5894C24.3151 31.0447 25.4379 30.9507 26.3768 31.1292C27.1318 31.4016 27.79 31.7679 28.3514 32.3126C28.6321 31.1292 29.3871 30.0303 30.4228 29.2131C31.2649 28.5744 32.3006 29.8518 31.4585 30.4905C30.4228 31.2231 29.8614 32.4066 29.8614 33.59C29.8614 35.7785 31.7392 37.5161 33.9945 37.5161C36.2498 37.5161 38.0405 35.7785 38.0405 33.59C38.0405 32.1342 37.2855 30.8568 35.9691 30.1242C35.0302 29.6639 35.8723 28.2081 36.8112 28.7529C38.4083 29.6639 39.444 31.2137 39.6279 32.9513C41.1282 32.1342 43.2964 32.7729 44.516 34.4072C46.0163 36.2293 47.5263 38.0609 48.9395 39.883C49.0363 40.0615 49.1234 40.0615 49.317 40.1554C50.8173 40.7941 55.0569 42.4378 58.9093 47.9982C59.6643 47.6319 60.5064 47.6319 61.2614 47.9043L66.1496 49.8204C67.466 50.3651 68.1242 51.8304 67.5628 53.1923L62.9553 64.144C62.4714 65.5435 60.8743 66.1822 59.4611 65.628ZM34.3623 31.6927C34.1784 32.7917 32.7652 32.6977 32.6684 31.6927C32.6684 29.5982 32.3877 27.4003 31.8263 25.2119C29.0096 26.029 25.525 24.9395 24.2086 21.4736C23.2697 19.0128 22.3308 14.0817 21.0144 12.2596C20.6369 11.7148 21.1112 10.9822 21.7694 10.9822C25.9993 11.2545 29.0096 12.1656 31.081 13.2646C34.4688 15.0022 35.5916 17.2752 35.8723 18.5526C36.153 19.5576 36.0562 20.5626 35.8723 21.3797C36.0562 21.0134 36.3466 20.741 36.7144 20.4686C37.5565 19.736 39.3472 18.731 42.4543 19.0128C44.3321 19.2852 46.6842 20.0178 49.6945 21.6615C50.1688 21.9339 50.3527 22.845 49.5106 23.1173C48.6685 23.3897 47.2553 24.5732 45.8421 25.766C44.9032 26.4987 44.0514 27.2219 43.2093 27.6821C40.6733 29.5043 37.9437 28.6871 36.3466 26.9495C35.5916 27.8606 34.9334 28.9595 34.2752 30.143C34.3623 30.6877 34.3623 31.2325 34.3623 31.6927ZM35.398 25.4843C35.1173 24.6671 35.0205 23.7466 35.2141 22.9295C34.7398 23.5682 34.0816 24.1129 33.3363 24.5732V24.6671C33.617 25.4843 33.8106 26.4047 33.9945 27.2219C34.3623 26.5832 34.9237 26.029 35.398 25.4843ZM36.8015 24.3008C37.6436 23.756 38.5922 23.2019 39.6182 22.845C39.9957 22.6665 40.4604 22.9389 40.6539 23.3052C40.8378 23.7654 40.5571 24.2163 40.1796 24.4041C39.1439 24.7704 38.3018 25.2213 37.5468 25.7754C38.5825 27.0528 40.5571 27.5976 42.251 26.4141C43.006 25.9539 43.8482 25.2307 44.7871 24.498C45.726 23.7654 46.6649 22.9483 47.5167 22.4035C45.4453 21.3046 43.6642 20.7598 42.251 20.6659C39.8022 20.3935 38.3986 21.1261 37.8275 21.6709C36.8983 22.4786 36.6176 23.4743 36.8015 24.3008ZM31.352 23.6621C30.597 21.6521 29.4742 19.736 27.7803 17.7354C27.4996 17.3691 27.4996 16.9183 27.8771 16.6365C28.2546 16.3641 28.7192 16.3641 29.0096 16.7304C30.8003 18.8249 32.0199 20.9289 32.862 23.0234C33.9945 22.1123 34.7398 20.741 34.2752 18.9189C33.9945 17.9139 33.0556 16.0917 30.326 14.7204C28.6321 13.8093 26.28 13.0767 23.0858 12.7104C24.2183 15.3591 24.6829 18.2802 25.7186 20.9195C26.7446 23.4743 29.2806 24.2069 31.352 23.6621ZM33.9848 7.96715C34.3623 7.96715 34.7398 8.33346 34.7398 8.78431C34.7398 9.24454 34.3623 9.60146 33.9848 9.60146C33.5105 9.60146 33.1427 9.23515 33.1427 8.78431C33.133 8.33346 33.5105 7.96715 33.9848 7.96715ZM36.7144 8.23954C37.0919 8.23954 37.4694 8.69977 37.3726 9.15061C37.2758 9.51692 36.8983 9.88323 36.4337 9.78931C35.9594 9.69538 35.6787 9.32907 35.7755 8.87823C35.7658 8.42739 36.2401 8.155 36.7144 8.23954ZM39.3472 8.7937C39.8215 8.97216 40.0054 9.43239 39.9086 9.89263C39.715 10.2495 39.2504 10.5219 38.8729 10.3435C38.3986 10.2495 38.2147 9.7987 38.3115 9.33847C38.4954 8.87823 38.8729 8.69977 39.3472 8.7937ZM41.8832 9.88323C42.2607 10.0617 42.4446 10.5219 42.2607 10.8882C42.0768 11.3485 41.5057 11.433 41.1282 11.2545C40.7507 11.0761 40.5668 10.6159 40.7507 10.1556C40.9443 9.78931 41.5057 9.61085 41.8832 9.88323ZM44.2353 11.2545C44.6128 11.5269 44.7096 11.9872 44.4192 12.3535C44.1385 12.7198 43.5771 12.8137 43.2867 12.5319C42.9092 12.2596 42.8125 11.7993 43.1028 11.433C43.2964 11.0667 43.8578 10.9822 44.2353 11.2545ZM46.297 12.9828C46.6745 13.2552 46.5777 13.7999 46.297 14.0817C46.0163 14.448 45.4549 14.448 45.1646 14.0817C44.7871 13.8093 44.7871 13.2646 45.1646 12.9828C45.4549 12.6259 46.0163 12.6259 46.297 12.9828ZM48.0877 14.9928C48.3684 15.3591 48.2717 15.8099 47.9038 16.0917C47.5263 16.3641 47.0617 16.2702 46.7713 15.9133C46.4906 15.5469 46.5874 15.0961 46.9552 14.8143C47.3327 14.5419 47.807 14.6265 48.0877 14.9928ZM49.5009 17.2752C49.6848 17.6415 49.5977 18.0923 49.1234 18.3741C48.7459 18.5526 48.2813 18.3741 48.0877 18.0078C47.807 17.5476 47.9909 17.0967 48.3684 16.9089C48.8427 16.7304 49.3073 16.9089 49.5009 17.2752ZM50.5366 19.736C50.7205 20.1023 50.4398 20.5532 50.0623 20.741C49.5881 20.8349 49.1234 20.6471 49.0266 20.1963C48.8427 19.8299 49.1234 19.3791 49.5009 19.1913C49.9655 19.0973 50.4398 19.2852 50.5366 19.736ZM51.4755 24.9395C51.4755 25.3997 51.098 25.7566 50.6334 25.7566C50.1591 25.7566 49.7913 25.3903 49.7913 24.9395C49.7913 24.4793 50.1688 24.1223 50.6334 24.2069C51.098 24.1129 51.3787 24.4793 51.4755 24.9395ZM51.1948 27.5882C51.098 28.0484 50.7205 28.3208 50.2559 28.3208C49.7816 28.2269 49.5009 27.776 49.5977 27.4097C49.6945 26.9495 50.072 26.6771 50.5366 26.6771C51.0012 26.7617 51.282 27.2219 51.1948 27.5882ZM50.5366 30.2275C50.4398 30.5938 49.9752 30.8662 49.5009 30.6877C49.1234 30.5938 48.8427 30.143 49.0266 29.6827C49.1234 29.3164 49.5881 29.044 50.0623 29.2225C50.4398 29.3164 50.7205 29.7767 50.5366 30.2275ZM49.5009 32.6977C49.317 33.064 48.8427 33.2425 48.3684 32.9701C47.9909 32.7917 47.807 32.3314 48.0877 31.9651C48.2716 31.5049 48.7459 31.4204 49.1234 31.5988C49.5881 31.7773 49.6848 32.2375 49.5009 32.6977ZM48.0877 34.9707C47.807 35.2431 47.3327 35.337 46.9552 35.0647C46.5777 34.8862 46.481 34.332 46.7713 33.9657C47.052 33.5994 47.5263 33.5055 47.9038 33.7873C48.2717 34.0597 48.3684 34.6138 48.0877 34.9707ZM19.7851 34.9707C19.5044 34.6044 19.6012 34.0597 19.969 33.7873C20.3465 33.5149 20.9079 33.6088 21.1015 33.9657C21.3822 34.332 21.2854 34.8768 20.9176 35.0647C20.6369 35.337 20.0658 35.2525 19.7851 34.9707ZM18.3719 32.6977C18.188 32.2375 18.3719 31.7867 18.7494 31.5988C19.1269 31.4204 19.5915 31.5049 19.8819 31.9651C20.0658 32.3314 19.8819 32.7823 19.5044 32.9701C19.0301 33.2425 18.5655 33.0547 18.3719 32.6977ZM17.3459 30.2275C17.162 29.7673 17.4427 29.3164 17.8202 29.2225C18.2945 29.044 18.7591 29.3164 18.9527 29.6827C19.0495 30.143 18.8559 30.5938 18.3913 30.6877C17.9073 30.8662 17.433 30.5938 17.3459 30.2275ZM16.6877 27.5882C16.5909 27.2219 16.9684 26.771 17.3459 26.6771C17.8202 26.6771 18.2848 26.9495 18.2848 27.4097C18.3816 27.776 18.1009 28.2269 17.6266 28.3208C17.1523 28.3114 16.7748 28.039 16.6877 27.5882ZM16.4941 24.9395C16.4941 24.4793 16.8716 24.2069 17.3362 24.2069C17.7137 24.2069 18.0912 24.4793 18.0912 24.9395C18.0912 25.3997 17.7137 25.7566 17.3362 25.7566C16.8716 25.7566 16.4941 25.3903 16.4941 24.9395ZM16.6877 22.2908C16.7845 21.8306 17.162 21.5582 17.6266 21.6521C18.1009 21.746 18.3816 22.1123 18.2848 22.5632C18.2848 23.0234 17.8105 23.2958 17.3459 23.2019C16.9684 23.1173 16.5909 22.751 16.6877 22.2908ZM17.3459 19.736C17.4427 19.2758 17.9073 19.0973 18.3816 19.1913C18.7591 19.3697 19.0398 19.8299 18.943 20.1963C18.7591 20.6565 18.2848 20.8349 17.8105 20.741C17.433 20.5626 17.1523 20.1023 17.3459 19.736ZM18.3719 17.2752C18.5558 16.9089 19.0301 16.7304 19.5044 16.9089C19.8819 17.0873 20.0658 17.6415 19.8819 18.0078C19.6012 18.3741 19.1269 18.5526 18.7494 18.3741C18.3719 18.0923 18.188 17.6415 18.3719 17.2752ZM19.7851 14.9928C20.0658 14.6265 20.6272 14.5325 20.9176 14.8143C21.2951 15.0867 21.3919 15.5469 21.1015 15.9133C20.9176 16.2796 20.3465 16.3735 19.969 16.0917C19.6012 15.8193 19.5044 15.3591 19.7851 14.9928ZM25.9896 9.88323C26.4639 9.61085 26.9285 9.78931 27.1221 10.1556C27.306 10.6159 27.2189 11.0667 26.7446 11.2545C26.3671 11.433 25.9025 11.3485 25.6121 10.8882C25.4282 10.5219 25.6121 10.0711 25.9896 9.88323ZM28.5353 8.7937C29.0096 8.69977 29.4742 8.97216 29.571 9.33847C29.7549 9.7987 29.4742 10.2495 29.0967 10.3435C28.6224 10.5219 28.1578 10.2495 28.061 9.88323C27.8771 9.43239 28.1578 8.97216 28.5353 8.7937ZM31.2552 8.23954C31.6327 8.14561 32.0973 8.418 32.1941 8.87823C32.1941 9.33847 31.9134 9.69538 31.4391 9.78931C31.0616 9.88323 30.597 9.51692 30.5002 9.15061C30.5099 8.69977 30.7906 8.23954 31.2552 8.23954ZM15.5552 55.8692L14.0549 57.325C18.4784 60.7909 23.5504 62.8948 28.9128 63.7119C34.5559 64.623 40.4797 64.0783 45.9292 61.9743C46.3067 61.7959 46.7713 61.9743 46.9649 62.3406C47.1488 62.8009 46.9649 63.2517 46.4906 63.4396C40.7507 65.628 34.643 66.2667 28.7192 65.3556C22.9793 64.4446 17.5298 62.1622 12.8256 58.5085L11.4124 59.9643C10.9381 60.4245 10.1928 60.2367 9.99919 59.598L8.58599 54.4885L8.1117 54.0282C7.92779 53.7558 7.7342 53.568 7.55029 53.2111C2.46859 47.0965 0.12617 39.7985 0.31008 32.5005C0.406874 25.3809 2.94288 18.3553 7.7342 12.6071L6.05966 11.0667C5.30466 10.3341 6.05966 9.88323 6.43716 9.69538L11.9835 8.23954L12.4578 7.96715V7.87323C12.7385 7.69477 13.0192 7.51631 13.2031 7.32846C19.5044 2.4913 27.0253 0.208906 34.4494 0.302832C41.7864 0.396757 49.0266 2.85761 54.9505 7.42239L56.4508 5.96654C57.2929 5.32785 57.864 5.96654 57.864 6.23892L59.2772 11.4424L59.6547 11.9026C59.9354 12.175 60.2161 12.5413 60.4968 12.8137C64.446 17.7448 66.7981 23.3052 67.4563 29.0534C68.2113 34.9801 67.2724 41.0947 64.7267 46.5705C64.5428 46.9368 64.0685 47.1153 63.5942 46.9368C63.2167 46.7584 63.0328 46.2982 63.2167 45.9318C65.6656 40.7284 66.5077 34.8956 65.8495 29.2319C65.0945 23.85 62.936 18.468 59.1707 13.8093C58.9868 13.5369 58.6964 13.1706 58.4157 12.8982L58.135 12.5319L52.7726 11.433C52.0176 11.2545 51.9305 10.5219 52.2983 10.0617L53.7986 8.60585C48.1845 4.32284 41.3218 2.04045 34.4494 1.94653C27.306 1.8526 20.1529 4.04107 14.2388 8.60585C13.9581 8.78431 13.6774 8.97216 13.4838 9.15061C13.2999 9.32907 13.1063 9.51692 12.9224 9.61085L11.7028 14.7204C11.606 15.453 10.7639 15.5376 10.3864 15.0867L8.88605 13.7154C4.37544 19.1913 2.02334 25.8506 1.92654 32.6038C1.82975 39.451 4.08506 46.3827 8.78926 52.3094C8.97317 52.4878 9.16676 52.6757 9.44746 53.042L9.72816 53.3144L15.1777 54.4978C15.9327 54.6857 16.0295 55.4089 15.5552 55.8692ZM11.2285 57.8792L13.387 55.7846L10.4735 55.1459L11.2285 57.8792ZM8.31497 10.8882L10.4735 12.9828L11.1317 10.1556L8.31497 10.8882ZM56.6444 8.06108L54.573 10.1556L57.3897 10.7943L56.6444 8.06108ZM30.7906 38.2581L32.107 43.4616C33.1427 44.2788 36.153 46.6551 37.2758 47.1998C37.7501 47.4722 38.2147 47.4722 38.7761 47.3783L42.9092 46.2794C42.1542 45.0959 41.496 43.997 40.8378 42.992C39.9957 41.6207 38.5825 39.5261 38.1082 38.1548C38.1082 37.9764 38.0115 37.6946 38.0115 37.5161C36.9758 38.5211 35.4754 39.1598 33.9655 39.1598C32.7652 39.1692 31.7295 38.8029 30.7906 38.2581ZM56.9251 62.8948L62.2875 50.1209L60.5936 49.3883C60.0322 49.2098 59.4611 49.4822 59.2772 49.9331L54.6698 60.8848C54.4858 61.4296 54.7665 61.9837 55.2312 62.1622L56.9251 62.8948ZM63.7878 50.6657L58.4254 63.4396L60.1193 64.0783C60.5936 64.3506 61.2518 64.0783 61.4357 63.618L66.0431 52.6663C66.227 52.1215 66.0431 51.5674 65.4817 51.295L63.7878 50.6657ZM53.3533 59.7952L57.7768 49.2098C54.0115 43.8279 49.9752 42.0903 48.562 41.4516C48.0877 41.2731 47.807 41.1792 47.6231 40.9068C46.2099 39.0847 44.7096 37.2531 43.2964 35.431C42.2607 34.1536 40.2861 33.5149 39.7247 35.5249C39.5408 36.1636 39.5408 36.8962 39.7247 37.7134C40.1022 38.7184 41.6025 41.0853 42.2607 42.1842C43.0157 43.4616 43.8578 44.739 44.8935 46.2888C45.1742 46.749 44.9903 47.3877 44.4192 47.5661L39.1536 48.9375C38.1179 49.1159 37.3629 49.0314 36.424 48.5711C34.7301 47.5661 32.1941 45.744 30.7809 44.4666C30.6841 44.3727 30.5002 44.1942 30.5002 44.0064L28.5256 35.7034C27.9642 33.9657 26.9285 32.9701 25.9896 32.6883C25.5153 32.5944 24.9539 32.5944 24.4893 32.8668C24.2086 33.1392 24.1118 33.5055 24.2086 34.0503C24.6829 35.694 24.9636 37.5161 25.3411 39.4322C25.7186 41.4422 26.0961 43.4428 26.5607 45.2744C26.7446 45.9131 26.9382 46.2794 27.2189 46.8241C29.2903 50.1961 32.3006 53.2111 34.7398 56.3106C36.153 57.9543 37.1887 59.1378 39.6279 59.4102C44.1385 59.9737 48.7459 58.8748 53.3533 59.7952ZM23.8311 40.1742C22.4179 39.2631 20.2594 39.9018 21.0144 41.2731C21.7694 42.729 22.234 43.734 22.7083 44.739C23.1826 45.8379 23.744 47.0214 24.5861 48.6651C24.77 49.1253 25.0604 49.4822 25.525 49.9425C26.9382 51.3983 29.2903 53.1359 31.352 54.7796C29.3774 52.4972 27.1221 49.764 25.8057 47.6601C25.4282 47.0214 25.1475 46.3827 24.9636 45.6501C24.5861 43.9124 24.2086 41.9964 23.8311 40.1742ZM30.7906 56.4139C28.5353 54.6763 25.9025 52.6757 24.3054 51.032C23.744 50.4872 23.3665 49.9331 23.0858 49.3883C22.2437 47.6507 21.6726 46.4672 21.208 45.3777C21.0241 45.0114 20.8305 44.739 20.7337 44.3727C19.3205 43.6401 17.4427 44.4666 18.4784 45.8285C20.1723 47.9231 21.6726 50.1209 23.2697 52.1215C23.6472 52.5818 24.0247 52.8542 24.4893 53.2205C26.0864 54.3194 28.5353 55.4089 30.7906 56.4139Z" fill="#339CD7"/>
<path d="M59.4611 65.628L54.573 63.7119C53.6341 63.2517 52.9758 62.3406 52.9758 61.3356C48.6491 60.4246 43.9449 61.5141 39.6279 61.0632C38.4954 61.1572 37.0919 60.8848 36.153 60.603C33.0459 59.5041 25.9025 56.1322 23.5504 54.4885C22.8922 54.0282 22.4179 53.6713 22.0501 53.1171C20.453 51.0226 18.8559 48.9187 17.162 46.8241C15.4681 44.6357 17.3459 42.3533 19.7948 42.4472L19.5141 41.9024C18.2945 39.2537 20.8305 37.5255 23.4633 38.2487C23.1826 36.9714 22.9019 35.694 22.6212 34.4166C22.3405 33.2331 22.718 32.2281 23.5601 31.5894C24.3151 31.0447 25.4379 30.9507 26.3768 31.1292C27.1318 31.4016 27.79 31.7679 28.3514 32.3126C28.6321 31.1292 29.3871 30.0303 30.4228 29.2131C31.2649 28.5744 32.3006 29.8518 31.4585 30.4905C30.4228 31.2231 29.8614 32.4066 29.8614 33.59C29.8614 35.7785 31.7392 37.5161 33.9945 37.5161C36.2498 37.5161 38.0405 35.7785 38.0405 33.59C38.0405 32.1342 37.2855 30.8568 35.9691 30.1242C35.0302 29.6639 35.8723 28.2081 36.8112 28.7529C38.4083 29.6639 39.444 31.2137 39.6279 32.9513C41.1282 32.1342 43.2964 32.7729 44.516 34.4072C46.0163 36.2293 47.5263 38.0609 48.9395 39.883C49.0363 40.0615 49.1234 40.0615 49.317 40.1554C50.8173 40.7941 55.0569 42.4378 58.9093 47.9982C59.6643 47.6319 60.5064 47.6319 61.2614 47.9043L66.1496 49.8204C67.466 50.3651 68.1242 51.8304 67.5628 53.1923L62.9553 64.144C62.4714 65.5435 60.8743 66.1822 59.4611 65.628ZM34.3623 31.6927C34.1784 32.7917 32.7652 32.6977 32.6684 31.6927C32.6684 29.5982 32.3877 27.4003 31.8263 25.2119C29.0096 26.029 25.525 24.9395 24.2086 21.4736C23.2697 19.0128 22.3308 14.0817 21.0144 12.2596C20.6369 11.7148 21.1112 10.9822 21.7694 10.9822C25.9993 11.2545 29.0096 12.1656 31.081 13.2646C34.4688 15.0022 35.5916 17.2752 35.8723 18.5526C36.153 19.5576 36.0562 20.5626 35.8723 21.3797C36.0562 21.0134 36.3466 20.741 36.7144 20.4686C37.5565 19.736 39.3472 18.731 42.4543 19.0128C44.3321 19.2852 46.6842 20.0178 49.6945 21.6615C50.1688 21.9339 50.3527 22.845 49.5106 23.1173C48.6685 23.3897 47.2553 24.5732 45.8421 25.766C44.9032 26.4987 44.0514 27.2219 43.2093 27.6821C40.6733 29.5043 37.9437 28.6871 36.3466 26.9495C35.5916 27.8606 34.9334 28.9595 34.2752 30.143C34.3623 30.6877 34.3623 31.2325 34.3623 31.6927ZM35.398 25.4843C35.1173 24.6671 35.0205 23.7466 35.2141 22.9295C34.7398 23.5682 34.0816 24.1129 33.3363 24.5732V24.6671C33.617 25.4843 33.8106 26.4047 33.9945 27.2219C34.3623 26.5832 34.9237 26.029 35.398 25.4843ZM36.8015 24.3008C37.6436 23.756 38.5922 23.2019 39.6182 22.845C39.9957 22.6665 40.4604 22.9389 40.6539 23.3052C40.8378 23.7654 40.5571 24.2163 40.1796 24.4041C39.1439 24.7704 38.3018 25.2213 37.5468 25.7754C38.5825 27.0528 40.5571 27.5976 42.251 26.4141C43.006 25.9539 43.8482 25.2307 44.7871 24.498C45.726 23.7654 46.6649 22.9483 47.5167 22.4035C45.4453 21.3046 43.6642 20.7598 42.251 20.6659C39.8022 20.3935 38.3986 21.1261 37.8275 21.6709C36.8983 22.4786 36.6176 23.4743 36.8015 24.3008ZM31.352 23.6621C30.597 21.6521 29.4742 19.736 27.7803 17.7354C27.4996 17.3691 27.4996 16.9183 27.8771 16.6365C28.2546 16.3641 28.7192 16.3641 29.0096 16.7304C30.8003 18.8249 32.0199 20.9289 32.862 23.0234C33.9945 22.1123 34.7398 20.741 34.2752 18.9189C33.9945 17.9139 33.0556 16.0917 30.326 14.7204C28.6321 13.8093 26.28 13.0767 23.0858 12.7104C24.2183 15.3591 24.6829 18.2802 25.7186 20.9195C26.7446 23.4743 29.2806 24.2069 31.352 23.6621ZM33.9848 7.96715C34.3623 7.96715 34.7398 8.33346 34.7398 8.78431C34.7398 9.24454 34.3623 9.60146 33.9848 9.60146C33.5105 9.60146 33.1427 9.23515 33.1427 8.78431C33.133 8.33346 33.5105 7.96715 33.9848 7.96715ZM36.7144 8.23954C37.0919 8.23954 37.4694 8.69977 37.3726 9.15061C37.2758 9.51692 36.8983 9.88323 36.4337 9.78931C35.9594 9.69538 35.6787 9.32907 35.7755 8.87823C35.7658 8.42739 36.2401 8.155 36.7144 8.23954ZM39.3472 8.7937C39.8215 8.97216 40.0054 9.43239 39.9086 9.89263C39.715 10.2495 39.2504 10.5219 38.8729 10.3435C38.3986 10.2495 38.2147 9.7987 38.3115 9.33847C38.4954 8.87823 38.8729 8.69977 39.3472 8.7937ZM41.8832 9.88323C42.2607 10.0617 42.4446 10.5219 42.2607 10.8882C42.0768 11.3485 41.5057 11.433 41.1282 11.2545C40.7507 11.0761 40.5668 10.6159 40.7507 10.1556C40.9443 9.78931 41.5057 9.61085 41.8832 9.88323ZM44.2353 11.2545C44.6128 11.5269 44.7096 11.9872 44.4192 12.3535C44.1385 12.7198 43.5771 12.8137 43.2867 12.5319C42.9092 12.2596 42.8125 11.7993 43.1028 11.433C43.2964 11.0667 43.8578 10.9822 44.2353 11.2545ZM46.297 12.9828C46.6745 13.2552 46.5777 13.7999 46.297 14.0817C46.0163 14.448 45.4549 14.448 45.1646 14.0817C44.7871 13.8093 44.7871 13.2646 45.1646 12.9828C45.4549 12.6259 46.0163 12.6259 46.297 12.9828ZM48.0877 14.9928C48.3684 15.3591 48.2717 15.8099 47.9038 16.0917C47.5263 16.3641 47.0617 16.2702 46.7713 15.9133C46.4906 15.5469 46.5874 15.0961 46.9552 14.8143C47.3327 14.5419 47.807 14.6265 48.0877 14.9928ZM49.5009 17.2752C49.6848 17.6415 49.5977 18.0923 49.1234 18.3741C48.7459 18.5526 48.2813 18.3741 48.0877 18.0078C47.807 17.5476 47.9909 17.0967 48.3684 16.9089C48.8427 16.7304 49.3073 16.9089 49.5009 17.2752ZM50.5366 19.736C50.7205 20.1023 50.4398 20.5532 50.0623 20.741C49.5881 20.8349 49.1234 20.6471 49.0266 20.1963C48.8427 19.8299 49.1234 19.3791 49.5009 19.1913C49.9655 19.0973 50.4398 19.2852 50.5366 19.736ZM51.4755 24.9395C51.4755 25.3997 51.098 25.7566 50.6334 25.7566C50.1591 25.7566 49.7913 25.3903 49.7913 24.9395C49.7913 24.4793 50.1688 24.1223 50.6334 24.2069C51.098 24.1129 51.3787 24.4793 51.4755 24.9395ZM51.1948 27.5882C51.098 28.0484 50.7205 28.3208 50.2559 28.3208C49.7816 28.2269 49.5009 27.776 49.5977 27.4097C49.6945 26.9495 50.072 26.6771 50.5366 26.6771C51.0012 26.7617 51.282 27.2219 51.1948 27.5882ZM50.5366 30.2275C50.4398 30.5938 49.9752 30.8662 49.5009 30.6877C49.1234 30.5938 48.8427 30.143 49.0266 29.6827C49.1234 29.3164 49.5881 29.044 50.0623 29.2225C50.4398 29.3164 50.7205 29.7767 50.5366 30.2275ZM49.5009 32.6977C49.317 33.064 48.8427 33.2425 48.3684 32.9701C47.9909 32.7917 47.807 32.3314 48.0877 31.9651C48.2716 31.5049 48.7459 31.4204 49.1234 31.5988C49.5881 31.7773 49.6848 32.2375 49.5009 32.6977ZM48.0877 34.9707C47.807 35.2431 47.3327 35.337 46.9552 35.0647C46.5777 34.8862 46.481 34.332 46.7713 33.9657C47.052 33.5994 47.5263 33.5055 47.9038 33.7873C48.2717 34.0597 48.3684 34.6138 48.0877 34.9707ZM19.7851 34.9707C19.5044 34.6044 19.6012 34.0597 19.969 33.7873C20.3465 33.5149 20.9079 33.6088 21.1015 33.9657C21.3822 34.332 21.2854 34.8768 20.9176 35.0647C20.6369 35.337 20.0658 35.2525 19.7851 34.9707ZM18.3719 32.6977C18.188 32.2375 18.3719 31.7867 18.7494 31.5988C19.1269 31.4204 19.5915 31.5049 19.8819 31.9651C20.0658 32.3314 19.8819 32.7823 19.5044 32.9701C19.0301 33.2425 18.5655 33.0547 18.3719 32.6977ZM17.3459 30.2275C17.162 29.7673 17.4427 29.3164 17.8202 29.2225C18.2945 29.044 18.7591 29.3164 18.9527 29.6827C19.0495 30.143 18.8559 30.5938 18.3913 30.6877C17.9073 30.8662 17.433 30.5938 17.3459 30.2275ZM16.6877 27.5882C16.5909 27.2219 16.9684 26.771 17.3459 26.6771C17.8202 26.6771 18.2848 26.9495 18.2848 27.4097C18.3816 27.776 18.1009 28.2269 17.6266 28.3208C17.1523 28.3114 16.7748 28.039 16.6877 27.5882ZM16.4941 24.9395C16.4941 24.4793 16.8716 24.2069 17.3362 24.2069C17.7137 24.2069 18.0912 24.4793 18.0912 24.9395C18.0912 25.3997 17.7137 25.7566 17.3362 25.7566C16.8716 25.7566 16.4941 25.3903 16.4941 24.9395ZM16.6877 22.2908C16.7845 21.8306 17.162 21.5582 17.6266 21.6521C18.1009 21.746 18.3816 22.1123 18.2848 22.5632C18.2848 23.0234 17.8105 23.2958 17.3459 23.2019C16.9684 23.1173 16.5909 22.751 16.6877 22.2908ZM17.3459 19.736C17.4427 19.2758 17.9073 19.0973 18.3816 19.1913C18.7591 19.3697 19.0398 19.8299 18.943 20.1963C18.7591 20.6565 18.2848 20.8349 17.8105 20.741C17.433 20.5626 17.1523 20.1023 17.3459 19.736ZM18.3719 17.2752C18.5558 16.9089 19.0301 16.7304 19.5044 16.9089C19.8819 17.0873 20.0658 17.6415 19.8819 18.0078C19.6012 18.3741 19.1269 18.5526 18.7494 18.3741C18.3719 18.0923 18.188 17.6415 18.3719 17.2752ZM19.7851 14.9928C20.0658 14.6265 20.6272 14.5325 20.9176 14.8143C21.2951 15.0867 21.3919 15.5469 21.1015 15.9133C20.9176 16.2796 20.3465 16.3735 19.969 16.0917C19.6012 15.8193 19.5044 15.3591 19.7851 14.9928ZM25.9896 9.88323C26.4639 9.61085 26.9285 9.78931 27.1221 10.1556C27.306 10.6159 27.2189 11.0667 26.7446 11.2545C26.3671 11.433 25.9025 11.3485 25.6121 10.8882C25.4282 10.5219 25.6121 10.0711 25.9896 9.88323ZM28.5353 8.7937C29.0096 8.69977 29.4742 8.97216 29.571 9.33847C29.7549 9.7987 29.4742 10.2495 29.0967 10.3435C28.6224 10.5219 28.1578 10.2495 28.061 9.88323C27.8771 9.43239 28.1578 8.97216 28.5353 8.7937ZM31.2552 8.23954C31.6327 8.14561 32.0973 8.418 32.1941 8.87823C32.1941 9.33847 31.9134 9.69538 31.4391 9.78931C31.0616 9.88323 30.597 9.51692 30.5002 9.15061C30.5099 8.69977 30.7906 8.23954 31.2552 8.23954ZM15.5552 55.8692L14.0549 57.325C18.4784 60.7909 23.5504 62.8948 28.9128 63.7119C34.5559 64.623 40.4797 64.0783 45.9292 61.9743C46.3067 61.7959 46.7713 61.9743 46.9649 62.3406C47.1488 62.8009 46.9649 63.2517 46.4906 63.4396C40.7507 65.628 34.643 66.2667 28.7192 65.3556C22.9793 64.4446 17.5298 62.1622 12.8256 58.5085L11.4124 59.9643C10.9381 60.4245 10.1928 60.2367 9.99919 59.598L8.58599 54.4885L8.1117 54.0282C7.92779 53.7558 7.7342 53.568 7.55029 53.2111C2.46859 47.0965 0.12617 39.7985 0.31008 32.5005C0.406874 25.3809 2.94288 18.3553 7.7342 12.6071L6.05966 11.0667C5.30466 10.3341 6.05966 9.88323 6.43716 9.69538L11.9835 8.23954L12.4578 7.96715V7.87323C12.7385 7.69477 13.0192 7.51631 13.2031 7.32846C19.5044 2.4913 27.0253 0.208906 34.4494 0.302832C41.7864 0.396757 49.0266 2.85761 54.9505 7.42239L56.4508 5.96654C57.2929 5.32785 57.864 5.96654 57.864 6.23892L59.2772 11.4424L59.6547 11.9026C59.9354 12.175 60.2161 12.5413 60.4968 12.8137C64.446 17.7448 66.7981 23.3052 67.4563 29.0534C68.2113 34.9801 67.2724 41.0947 64.7267 46.5705C64.5428 46.9368 64.0685 47.1153 63.5942 46.9368C63.2167 46.7584 63.0328 46.2982 63.2167 45.9318C65.6656 40.7284 66.5077 34.8956 65.8495 29.2319C65.0945 23.85 62.936 18.468 59.1707 13.8093C58.9868 13.5369 58.6964 13.1706 58.4157 12.8982L58.135 12.5319L52.7726 11.433C52.0176 11.2545 51.9305 10.5219 52.2983 10.0617L53.7986 8.60585C48.1845 4.32284 41.3218 2.04045 34.4494 1.94653C27.306 1.8526 20.1529 4.04107 14.2388 8.60585C13.9581 8.78431 13.6774 8.97216 13.4838 9.15061C13.2999 9.32907 13.1063 9.51692 12.9224 9.61085L11.7028 14.7204C11.606 15.453 10.7639 15.5376 10.3864 15.0867L8.88605 13.7154C4.37544 19.1913 2.02334 25.8506 1.92654 32.6038C1.82975 39.451 4.08506 46.3827 8.78926 52.3094C8.97317 52.4878 9.16676 52.6757 9.44746 53.042L9.72816 53.3144L15.1777 54.4978C15.9327 54.6857 16.0295 55.4089 15.5552 55.8692ZM11.2285 57.8792L13.387 55.7846L10.4735 55.1459L11.2285 57.8792ZM8.31497 10.8882L10.4735 12.9828L11.1317 10.1556L8.31497 10.8882ZM56.6444 8.06108L54.573 10.1556L57.3897 10.7943L56.6444 8.06108ZM30.7906 38.2581L32.107 43.4616C33.1427 44.2788 36.153 46.6551 37.2758 47.1998C37.7501 47.4722 38.2147 47.4722 38.7761 47.3783L42.9092 46.2794C42.1542 45.0959 41.496 43.997 40.8378 42.992C39.9957 41.6207 38.5825 39.5261 38.1082 38.1548C38.1082 37.9764 38.0115 37.6946 38.0115 37.5161C36.9758 38.5211 35.4754 39.1598 33.9655 39.1598C32.7652 39.1692 31.7295 38.8029 30.7906 38.2581ZM56.9251 62.8948L62.2875 50.1209L60.5936 49.3883C60.0322 49.2098 59.4611 49.4822 59.2772 49.9331L54.6698 60.8848C54.4858 61.4296 54.7665 61.9837 55.2312 62.1622L56.9251 62.8948ZM63.7878 50.6657L58.4254 63.4396L60.1193 64.0783C60.5936 64.3506 61.2518 64.0783 61.4357 63.618L66.0431 52.6663C66.227 52.1215 66.0431 51.5674 65.4817 51.295L63.7878 50.6657ZM53.3533 59.7952L57.7768 49.2098C54.0115 43.8279 49.9752 42.0903 48.562 41.4516C48.0877 41.2731 47.807 41.1792 47.6231 40.9068C46.2099 39.0847 44.7096 37.2531 43.2964 35.431C42.2607 34.1536 40.2861 33.5149 39.7247 35.5249C39.5408 36.1636 39.5408 36.8962 39.7247 37.7134C40.1022 38.7184 41.6025 41.0853 42.2607 42.1842C43.0157 43.4616 43.8578 44.739 44.8935 46.2888C45.1742 46.749 44.9903 47.3877 44.4192 47.5661L39.1536 48.9375C38.1179 49.1159 37.3629 49.0314 36.424 48.5711C34.7301 47.5661 32.1941 45.744 30.7809 44.4666C30.6841 44.3727 30.5002 44.1942 30.5002 44.0064L28.5256 35.7034C27.9642 33.9657 26.9285 32.9701 25.9896 32.6883C25.5153 32.5944 24.9539 32.5944 24.4893 32.8668C24.2086 33.1392 24.1118 33.5055 24.2086 34.0503C24.6829 35.694 24.9636 37.5161 25.3411 39.4322C25.7186 41.4422 26.0961 43.4428 26.5607 45.2744C26.7446 45.9131 26.9382 46.2794 27.2189 46.8241C29.2903 50.1961 32.3006 53.2111 34.7398 56.3106C36.153 57.9543 37.1887 59.1378 39.6279 59.4102C44.1385 59.9737 48.7459 58.8748 53.3533 59.7952ZM23.8311 40.1742C22.4179 39.2631 20.2594 39.9018 21.0144 41.2731C21.7694 42.729 22.234 43.734 22.7083 44.739C23.1826 45.8379 23.744 47.0214 24.5861 48.6651C24.77 49.1253 25.0604 49.4822 25.525 49.9425C26.9382 51.3983 29.2903 53.1359 31.352 54.7796C29.3774 52.4972 27.1221 49.764 25.8057 47.6601C25.4282 47.0214 25.1475 46.3827 24.9636 45.6501C24.5861 43.9124 24.2086 41.9964 23.8311 40.1742ZM30.7906 56.4139C28.5353 54.6763 25.9025 52.6757 24.3054 51.032C23.744 50.4872 23.3665 49.9331 23.0858 49.3883C22.2437 47.6507 21.6726 46.4672 21.208 45.3777C21.0241 45.0114 20.8305 44.739 20.7337 44.3727C19.3205 43.6401 17.4427 44.4666 18.4784 45.8285C20.1723 47.9231 21.6726 50.1209 23.2697 52.1215C23.6472 52.5818 24.0247 52.8542 24.4893 53.2205C26.0864 54.3194 28.5353 55.4089 30.7906 56.4139Z" stroke="#339CD7" stroke-width="0.6" mask="url(#path-1-outside-1_1172_562)"/>
</svg>
