<svg width="19" height="34" viewBox="0 0 19 34" fill="none" xmlns="http://www.w3.org/2000/svg">
<path d="M14.1375 15.2225C13.9679 13.2469 13.4278 12.6498 12.9511 12.1235C12.4231 11.5403 11.8771 10.9371 11.8771 7.35258V0.00012207H10.746V7.35258C10.746 11.0846 11.3124 11.9987 12.1124 12.8824C12.5208 13.3336 12.8735 13.7236 13.0102 15.3187C13.0248 15.4935 13.0277 15.6691 13.0188 15.8444C11.6995 15.0121 9.71978 15.5714 9.04927 15.8003C8.3785 15.5714 6.39899 15.0122 5.07968 15.8444C5.07087 15.6691 5.07375 15.4935 5.08832 15.3187C5.22501 13.7236 5.57767 13.3336 5.98611 12.8824C6.78615 11.9987 7.35254 11.0846 7.35254 7.35258V0.00012207H6.2214V7.35258C6.2214 10.9371 5.67543 11.5403 5.14741 12.1235C4.67076 12.6499 4.1306 13.2469 3.96104 15.2226C3.89478 15.8093 3.96426 16.4035 4.16412 16.9592C3.96178 17.5199 3.89227 18.1199 3.96104 18.7121C4.1306 20.6877 4.67076 21.2848 5.14741 21.8112C5.67543 22.3944 6.2214 22.9975 6.2214 26.5821V33.9345H7.35254V26.5821C7.35254 22.8501 6.78615 21.936 5.98612 21.0523C5.57768 20.601 5.22503 20.2111 5.08833 18.616C5.01459 17.756 5.18664 17.1629 5.59978 16.8525C6.44927 16.2162 8.23047 16.6923 8.84492 16.9292L9.0501 17.0082L9.25418 16.9287C9.82528 16.7072 11.6479 16.2145 12.4977 16.8519C12.9116 17.1618 13.0842 17.7555 13.0102 18.616C12.8735 20.2111 12.5209 20.601 12.1124 21.0523C11.3124 21.936 10.746 22.8501 10.746 26.5821V33.9345H11.8771V26.5821C11.8771 22.9975 12.4231 22.3944 12.9511 21.8112C13.4278 21.2848 13.9679 20.6877 14.1375 18.7121C14.2063 18.1199 14.1367 17.5199 13.9344 16.9592C14.1343 16.4035 14.2038 15.8093 14.1375 15.2225Z" fill="black"/>
<path d="M2.81351 5.2172L2.82787 0H1.69672V5.02554L1.03173 7.90699C-0.34391 13.8688 -0.34391 20.0656 1.03173 26.0274L1.69672 28.9089V33.9344H2.82787V28.8443L2.13416 25.7734C0.79681 19.9788 0.79681 13.9557 2.13416 8.16105L2.81351 5.2172Z" fill="black"/>
<path d="M17.0666 7.90711L16.4017 5.02566V0.00012207H15.2705V5.09029L15.9642 8.16118C16.6302 11.0492 16.9667 14.0035 16.9672 16.9673C16.9667 19.9312 16.6302 22.8854 15.9642 25.7735L15.2849 28.7174L15.2705 33.9345H16.4017V28.909L17.0666 26.0276C17.7517 23.0562 18.0979 20.0167 18.0984 16.9673C18.0979 13.918 17.7517 10.8785 17.0666 7.90711Z" fill="black"/>
</svg>
