<svg width="23" height="25" viewBox="0 0 23 25" fill="none" xmlns="http://www.w3.org/2000/svg">
<path d="M17.5623 3.89511C17.0694 3.0416 16.8107 2.07343 16.8097 1.08771C16.8097 0.487024 16.3227 0 15.723 0H7.28099C6.6803 0 6.19328 0.487024 6.19328 1.08771C6.19328 2.07353 5.93358 3.0417 5.44069 3.89511L4.38235 5.72954C3.9012 6.54582 3.74539 7.514 3.9453 8.44111C4.14521 9.36715 4.68612 10.1854 5.46126 10.7312C6.21091 11.2241 7.1095 11.4417 8.00224 11.3446C8.89398 11.2486 9.72594 10.8459 10.3541 10.204L10.8411 9.71404C11.2076 9.35147 11.7975 9.35147 12.163 9.71404L12.653 10.204C13.3987 10.9507 14.411 11.3721 15.4674 11.375C16.2092 11.3799 16.9344 11.1565 17.5439 10.7341C18.319 10.1893 18.8599 9.37302 19.0598 8.44698C19.2607 7.52193 19.1049 6.55473 18.6257 5.73842L17.5623 3.89511ZM16.8244 9.70408C15.7779 10.3793 14.4001 10.2166 13.5397 9.317L13.0497 8.82704C12.1942 7.97549 10.8105 7.97549 9.95506 8.82704L9.46705 9.317C8.60569 10.2146 7.22889 10.3773 6.18226 9.70408C5.09553 8.95736 4.78097 7.4914 5.46593 6.3636L6.52916 4.52428C7.10438 3.52966 7.4209 2.40567 7.44932 1.2573H15.5602C15.5886 2.40577 15.9051 3.52976 16.4804 4.52428L17.5485 6.37438C18.2276 7.50033 17.9102 8.96128 16.8244 9.70408Z" fill="black"/>
<path d="M17.3253 13.7995C16.7432 13.4526 16.0788 13.2683 15.4017 13.2683H7.75342C7.01162 13.2536 6.28156 13.4526 5.64952 13.8406C5.01845 14.2287 4.51083 14.7911 4.1904 15.4594C3.68085 16.5815 3.75237 17.8818 4.38149 18.9412L5.44178 20.7805V20.7815C5.93468 21.635 6.19437 22.6032 6.19437 23.5889C6.19437 24.1896 6.68139 24.6756 7.28111 24.6756H15.7271C16.3278 24.6756 16.8139 24.1896 16.8139 23.5889C16.8148 22.603 17.0745 21.6349 17.5665 20.7815L18.6209 18.9412C19.1304 18.0877 19.2794 17.0665 19.0363 16.1024C18.7933 15.1383 18.1779 14.31 17.3253 13.7995ZM17.5399 18.3062L16.4767 20.1455C15.9015 21.1411 15.585 22.2641 15.5565 23.4135H7.44566C7.41724 22.2641 7.10072 21.141 6.5255 20.1455L5.4652 18.3062L5.4603 18.2974C5.04088 17.5909 4.99287 16.7236 5.33389 15.9759C5.78662 15.0607 6.73127 14.4923 7.75333 14.5227H15.4026C16.3022 14.5227 17.1322 15.0078 17.5751 15.7907C18.0181 16.5747 18.0044 17.5351 17.5399 18.3062Z" fill="black"/>
<path d="M2.59386 11.7073H0.632038C0.285146 11.7073 0.00488281 11.9885 0.00488281 12.3344C0.00488281 12.6813 0.285146 12.9616 0.632038 12.9616H2.59386C2.94075 12.9616 3.22101 12.6813 3.22101 12.3344C3.22101 11.9885 2.94075 11.7073 2.59386 11.7073Z" fill="black"/>
<path d="M2.26944 14.6646L0.307622 15.8533C0.163572 15.9385 0.0597003 16.0777 0.0185538 16.2403C-0.0216243 16.403 0.00385472 16.5745 0.091068 16.7175C0.177302 16.8606 0.317431 16.9635 0.480105 17.0027C0.642779 17.0419 0.814254 17.0145 0.957321 16.9263L2.92012 15.7376H2.91914C3.21214 15.5573 3.30426 15.1741 3.1259 14.8792C2.94755 14.5852 2.56538 14.4892 2.26944 14.6646Z" fill="black"/>
<path d="M0.307649 8.81646L2.27045 10.0051H2.26947C2.56541 10.1805 2.94757 10.0845 3.12593 9.79052C3.30428 9.49556 3.21217 9.11339 2.91917 8.93209L0.957351 7.74343C0.661408 7.56802 0.279245 7.66406 0.100882 7.95804C-0.0774662 8.253 0.0146496 8.63614 0.307649 8.81646Z" fill="black"/>
<path d="M22.3729 11.7073H20.4111C20.0642 11.7073 19.7839 11.9885 19.7839 12.3344C19.7839 12.6813 20.0642 12.9616 20.4111 12.9616H22.3729C22.7198 12.9616 23.0001 12.6813 23.0001 12.3344C23.0001 11.9885 22.7198 11.7073 22.3729 11.7073Z" fill="black"/>
<path d="M22.697 15.8533L20.7352 14.6647H20.7362C20.5931 14.5784 20.4226 14.5529 20.2609 14.5921C20.0992 14.6313 19.9601 14.7342 19.8738 14.8763C19.6945 15.1723 19.7886 15.5584 20.0855 15.7377L22.0483 16.9263H22.0473C22.3433 17.1018 22.7254 17.0057 22.9038 16.7117C23.0821 16.4178 22.99 16.0346 22.697 15.8533Z" fill="black"/>
<path d="M20.4112 10.095C20.5258 10.095 20.6375 10.0637 20.7365 10.0049L22.6983 8.81622H22.6974C22.9904 8.63591 23.0825 8.25276 22.9041 7.9578C22.7258 7.66381 22.3436 7.56778 22.0476 7.74319L20.0858 8.93185C19.8448 9.07786 19.7311 9.36597 19.8075 9.6374C19.883 9.90786 20.13 10.095 20.4112 10.095Z" fill="black"/>
</svg>
