<svg width="28" height="31" viewBox="0 0 28 31" fill="none" xmlns="http://www.w3.org/2000/svg">
<path d="M18.5492 0.111869C13.141 4.63302 9.90025 7.59021 8.33399 14.8459C3.17521 18.5575 -0.557794 23.6003 0.0686421 29.8845C0.0944508 30.1533 0.319495 30.3899 0.586484 30.429C0.853476 30.4681 1.13684 30.3059 1.23854 30.0558C2.4467 27.1772 3.49654 25.0422 4.9004 23.6691C6.26568 22.3338 7.98659 21.6507 10.7784 21.6132C14.6248 25.1713 17.421 27.6391 21.9732 29.7702C22.2327 29.9087 22.5892 29.8236 22.7581 29.5827C22.927 29.3419 22.8859 28.9774 22.6676 28.7803C20.8578 26.9648 18.8333 24.7781 17.4744 22.6412C16.1205 20.5122 15.4888 18.5098 16.1143 16.9779C16.7492 15.7336 18.1582 15.1855 20.2136 14.8173C22.2825 14.4466 24.8905 14.2904 27.5374 13.6656C27.8163 13.5967 28.0229 13.3076 27.998 13.0212C27.973 12.7347 27.7194 12.4858 27.4328 12.4663C24.8262 12.3125 22.0301 12.3061 19.7476 12.0095C17.4811 11.7149 15.8309 11.108 15.2297 10.0583C14.8435 9.1401 14.8302 8.32827 15.4294 6.95533C16.035 5.56799 17.3092 3.68683 19.4242 0.958987C19.5682 0.773213 19.5902 0.50115 19.478 0.294619C19.1719 -0.0615287 18.9063 -0.0583221 18.5492 0.111869ZM15.496 4.39497C15.0331 5.13341 14.5826 5.86053 14.3166 6.46992C13.8226 7.64136 13.5792 9.26972 14.1454 10.6294C15.0768 12.3071 17.1902 12.9057 19.5954 13.2183C20.2535 13.3038 20.9831 13.3321 21.6879 13.3801C21.1255 13.4558 20.5291 13.524 20.0044 13.618C17.6871 14.0005 15.9529 14.7168 14.9919 16.4925C14.111 18.6135 14.9976 21.0184 16.4471 23.2979C17.2216 24.5158 18.1681 25.7111 19.1674 26.8482C16.4935 25.1761 14.3101 23.2313 11.4822 20.6138L11.4917 20.6044C10.0253 18.8434 9.50386 17.5427 9.50386 15.2076H9.49436C10.5912 10.0259 12.4565 7.27207 15.496 4.39497ZM18.6348 5.1945C16.8975 5.1945 15.5531 6.58062 15.5531 8.20222C15.5531 9.82385 16.8975 11.2099 18.6348 11.2099C20.3721 11.2099 21.7164 9.82385 21.7164 8.20222C21.7164 6.58062 20.3721 5.1945 18.6348 5.1945ZM18.6348 6.3367C19.587 6.3367 20.4229 7.13241 20.4229 8.20222C20.4229 9.27203 19.587 10.0678 18.6348 10.0678C17.6826 10.0678 16.8466 9.27203 16.8466 8.20222C16.8549 7.04424 17.678 6.40308 18.6348 6.3367ZM8.3435 16.3592C8.49503 17.9076 8.96795 19.1695 9.82727 20.4234C7.30491 20.6078 5.46537 21.4131 4.04438 22.803C2.97597 23.848 2.15109 25.2897 1.36218 26.9053C1.92001 22.7257 4.6021 19.2208 8.3435 16.3592Z" fill="black"/>
</svg>
