<svg width="36" height="21" viewBox="0 0 36 21" fill="none" xmlns="http://www.w3.org/2000/svg">
<path d="M0.666667 8.2867C2.68002 8.2867 3.66665 8.76005 4.71334 9.26001C5.84666 9.80666 7.01333 10.3667 9.33329 10.3667C11.6532 10.3667 12.82 9.8067 13.9532 9.26001C14.9932 8.76 15.9799 8.2867 17.9933 8.2867C20.0066 8.2867 20.9932 8.76005 22.0399 9.26001C23.1732 9.80666 24.3466 10.3667 26.6599 10.3667C28.9732 10.3667 30.1466 9.8067 31.2798 9.26001C32.3265 8.76 33.3132 8.2867 35.3265 8.2867C35.6932 8.2867 35.9932 7.9867 35.9932 7.62004C35.9932 7.25337 35.6932 6.95337 35.3265 6.95337C33.0065 6.95337 31.8332 7.51337 30.7066 8.06006C29.6599 8.56007 28.6732 9.03337 26.6599 9.03337C24.6465 9.03337 23.6599 8.56002 22.6132 8.06006C21.4799 7.51341 20.3066 6.95337 17.9933 6.95337C15.68 6.95337 14.5066 7.51337 13.3733 8.06006C12.3333 8.56007 11.3466 9.03337 9.33329 9.03337C7.31994 9.03337 6.33331 8.56002 5.28661 8.06006C4.1533 7.51341 2.98662 6.95337 0.666667 6.95337C0.299998 6.95337 0 7.25337 0 7.62004C0 7.9867 0.299998 8.2867 0.666667 8.2867Z" fill="black"/>
<path d="M35.3333 10.2866C33.0133 10.2866 31.84 10.8466 30.7134 11.3933C29.6667 11.8933 28.6801 12.3666 26.6667 12.3666C24.6534 12.3666 23.6667 11.8933 22.62 11.3933C21.4867 10.8467 20.3134 10.2866 18.0001 10.2866C15.6868 10.2866 14.5134 10.8466 13.3801 11.3933C12.3401 11.8933 11.3535 12.3666 9.34013 12.3666C7.32677 12.3666 6.34015 11.8933 5.29345 11.3933C4.16014 10.8467 2.99346 10.2866 0.673503 10.2866C0.306834 10.2866 0.00683594 10.5866 0.00683594 10.9533C0.00683594 11.32 0.306834 11.62 0.673503 11.62C2.68686 11.62 3.67348 12.0933 4.72018 12.5933C5.85349 13.1399 7.02017 13.7 9.34013 13.7C11.6601 13.7 12.8268 13.14 13.9601 12.5933C15.0001 12.0933 15.9867 11.62 18.0001 11.62C20.0134 11.62 21.0001 12.0933 22.0468 12.5933C23.1801 13.1399 24.3534 13.7 26.6667 13.7C28.98 13.7 30.1534 13.14 31.2867 12.5933C32.3333 12.0933 33.32 11.62 35.3333 11.62C35.7 11.62 36 11.32 36 10.9533C36 10.5866 35.7 10.2866 35.3333 10.2866Z" fill="black"/>
<path d="M18.4731 14.1867C18.4131 14.1267 18.3398 14.0733 18.2531 14.04C18.0931 13.9733 17.9064 13.9733 17.7464 14.04C17.6664 14.0733 17.5931 14.12 17.5264 14.1867L15.8598 15.8533C15.5998 16.1133 15.5998 16.5333 15.8598 16.7933C15.9931 16.9266 16.1598 16.9866 16.3331 16.9866C16.5065 16.9866 16.6731 16.92 16.8065 16.7933L17.3398 16.26V19.9866C17.3398 20.3533 17.6398 20.6533 18.0065 20.6533C18.3732 20.6533 18.6732 20.3533 18.6732 19.9866V16.26L19.2065 16.7933C19.3398 16.9266 19.5065 16.9866 19.6798 16.9866C19.8532 16.9866 20.0198 16.92 20.1532 16.7933C20.4132 16.5333 20.4132 16.1133 20.1532 15.8533L18.4865 14.1867H18.4731Z" fill="black"/>
<path d="M8.85995 6.46664C8.91995 6.52664 8.99328 6.57998 9.07995 6.61331C9.15995 6.64664 9.24661 6.66664 9.33328 6.66664C9.41995 6.66664 9.50662 6.64664 9.58662 6.61331C9.66662 6.57998 9.73995 6.53331 9.80661 6.46664L11.4733 4.8C11.7333 4.54 11.7333 4.11998 11.4733 3.86001C11.2133 3.60004 10.7932 3.60001 10.5333 3.86001L9.99994 4.39334V0.666667C9.99994 0.299998 9.69994 0 9.33327 0C8.9666 0 8.6666 0.299998 8.6666 0.666667V4.39334L8.13327 3.86001C7.87327 3.60001 7.45325 3.60001 7.19328 3.86001C6.93331 4.12001 6.93328 4.54003 7.19328 4.8L8.85995 6.46664Z" fill="black"/>
<path d="M26.1934 6.46664C26.2534 6.52664 26.3268 6.57998 26.4134 6.61331C26.4934 6.64664 26.5801 6.66664 26.6668 6.66664C26.7534 6.66664 26.8401 6.64664 26.9201 6.61331C27.0001 6.57998 27.0734 6.53331 27.1401 6.46664L28.8068 4.8C29.0668 4.54 29.0668 4.11998 28.8068 3.86001C28.5468 3.60004 28.1267 3.60001 27.8668 3.86001L27.3334 4.39334V0.666667C27.3334 0.299998 27.0334 0 26.6668 0C26.3001 0 26.0001 0.299998 26.0001 0.666667V4.39334L25.4668 3.86001C25.2068 3.60001 24.7867 3.60001 24.5268 3.86001C24.2668 4.12001 24.2668 4.54003 24.5268 4.8L26.1934 6.46664Z" fill="black"/>
</svg>
