<svg width="32" height="33" viewBox="0 0 32 33" fill="none" xmlns="http://www.w3.org/2000/svg">
<path d="M16.2327 5.61246C16.3203 5.58559 25.0443 2.91582 30.863 2.17365C31.0284 2.15252 31.1456 2.00125 31.1245 1.83578C31.1033 1.67032 30.9511 1.55286 30.7866 1.5743C24.9172 2.32312 16.1434 5.00797 16.0667 5.03183C15.9996 5.04964 9.38926 6.92016 11.1251 16.364L13.7834 32.1165C13.8082 32.2639 13.9359 32.3683 14.0808 32.3683C14.0974 32.3683 14.1143 32.3668 14.1312 32.3641C14.2955 32.3363 14.4066 32.1805 14.3785 32.0163L11.7196 16.2589C10.087 7.3776 15.971 5.68311 16.2327 5.61246Z" fill="black"/>
<path d="M31.9911 16.0839C31.951 15.9218 31.7864 15.8225 31.6255 15.8635C27.6939 16.8364 21.8233 17.1214 21.7644 17.1241C21.6524 17.1296 21.5524 17.1963 21.505 17.298C21.4576 17.3998 21.4706 17.5194 21.5385 17.6084C24.689 21.7459 20.5107 32.0074 20.4682 32.1106C20.4047 32.2649 20.4778 32.4416 20.6321 32.5053C20.6699 32.5207 20.7088 32.5279 20.7471 32.5279C20.8658 32.5279 20.9784 32.4579 21.0264 32.3413C21.1998 31.9213 25.1078 22.3199 22.3269 17.6969C23.8789 17.6018 28.4832 17.2627 31.771 16.4496C31.9325 16.4094 32.0313 16.2458 31.9911 16.0839Z" fill="black"/>
<path d="M15.7797 11.0808C15.7797 10.319 15.1601 9.69946 14.3983 9.69946C13.6365 9.69946 13.0166 10.319 13.0166 11.0808C13.0166 11.8426 13.6365 12.4622 14.3983 12.4622C15.1601 12.4622 15.7797 11.8426 15.7797 11.0808ZM13.6205 11.0808C13.6205 10.6521 13.9695 10.3033 14.3983 10.3033C14.827 10.3033 15.1758 10.6521 15.1758 11.0808C15.1758 11.5096 14.827 11.8583 14.3983 11.8583C13.9695 11.8583 13.6205 11.5096 13.6205 11.0808Z" fill="black"/>
<path d="M13.9778 14.2915C14.117 14.3096 14.2586 14.3187 14.3987 14.3187C16.1841 14.3187 17.6367 12.866 17.6367 11.0803C17.6364 10.1292 17.2203 9.23005 16.4954 8.61348C16.3685 8.50539 16.1777 8.52079 16.0696 8.64791C15.9615 8.77502 15.9769 8.96555 16.104 9.07364C16.694 9.57547 17.0325 10.3071 17.0328 11.0806C17.0328 12.5333 15.851 13.7151 14.3987 13.7151C14.2849 13.7151 14.1692 13.7075 14.0557 13.6927C13.892 13.6713 13.7389 13.7878 13.7172 13.9533C13.6955 14.1188 13.8123 14.27 13.9778 14.2915Z" fill="black"/>
<path d="M17.5247 7.40514C17.3976 7.29674 17.207 7.31244 17.0989 7.43926C16.9909 7.56638 17.0059 7.7569 17.1331 7.865C18.0778 8.66967 18.6198 9.8415 18.6198 11.081C18.6198 13.4086 16.7264 15.3021 14.3987 15.3021C14.155 15.3021 13.9123 15.2813 13.6771 15.2405C13.5119 15.2133 13.3561 15.3223 13.3277 15.4863C13.2993 15.6505 13.4092 15.8069 13.5735 15.8356C13.8428 15.8824 14.1206 15.906 14.3987 15.906C17.0594 15.906 19.2237 13.7414 19.2237 11.081C19.2237 9.66426 18.6044 8.32425 17.5247 7.40514Z" fill="black"/>
<path d="M3.72958 14.3941C3.72506 14.508 3.78514 14.6146 3.88448 14.6701C3.93007 14.6955 3.9808 14.7082 4.03122 14.7082C4.0904 14.7082 4.14958 14.6906 4.20061 14.6562L9.43808 11.1054C9.54496 11.0332 9.59388 10.901 9.56006 10.7766C9.52624 10.6522 9.41754 10.5628 9.28892 10.5544L6.72937 10.3822L6.55424 8.42718C6.54548 8.32996 6.49053 8.243 6.40629 8.19378C6.32205 8.14426 6.21909 8.13853 6.13031 8.17838L0.178762 10.8373C0.0525506 10.8937 -0.0193115 11.0287 0.00454183 11.1649C0.0283951 11.3011 0.141925 11.4037 0.27961 11.414L3.83708 11.6764L3.72958 14.3941ZM1.51908 10.8998L5.99052 8.90214L6.15085 10.6929C6.16413 10.8409 6.2831 10.9571 6.43135 10.9671L8.37313 11.0975L4.35672 13.8208L4.45213 11.4082C4.45847 11.2455 4.33498 11.1072 4.17283 11.0951L1.51908 10.8998Z" fill="black"/>
<path d="M9.56247 15.8928L7.1877 16.8633L6.17137 15.1845C6.12095 15.1011 6.03308 15.0471 5.93586 15.0398C5.83863 15.0329 5.74382 15.0725 5.68132 15.1473L1.50337 20.1514C1.4146 20.2577 1.40946 20.4102 1.49069 20.5225C1.57221 20.6342 1.71926 20.6774 1.84758 20.6251L5.15836 19.2969L6.25622 21.7855C6.30211 21.89 6.40296 21.9591 6.51679 21.9655C6.52223 21.9658 6.52736 21.9658 6.53249 21.9658C6.64029 21.9658 6.74053 21.9081 6.79458 21.8139L9.93869 16.3228C10.0027 16.2108 9.98881 16.0707 9.90396 15.9737C9.81882 15.8765 9.68204 15.8442 9.56247 15.8928ZM6.56752 20.9947L5.59316 18.786C5.54334 18.6734 5.43313 18.6058 5.31658 18.6058C5.27914 18.6058 5.24109 18.6127 5.20426 18.6275L2.73499 19.6182L5.87366 15.859L6.80454 17.3968C6.88154 17.5242 7.03915 17.5761 7.17714 17.52L8.97852 16.7839L6.56752 20.9947Z" fill="black"/>
<path d="M6.95803 3.14715L5.00659 5.04244C4.92476 5.12185 4.89487 5.24051 4.92869 5.34921C4.96281 5.45791 5.0549 5.53822 5.16752 5.55694L11.4092 6.59501C11.4258 6.59773 11.4425 6.59924 11.4591 6.59924C11.4603 6.59924 11.4615 6.59924 11.4627 6.59924C11.6381 6.60045 11.7667 6.46488 11.7667 6.2973C11.7667 6.19977 11.7205 6.11312 11.649 6.05816L9.94573 4.20364L11.1659 2.66646C11.2266 2.59007 11.2465 2.48922 11.2196 2.39562C11.1927 2.30172 11.1221 2.22684 11.0303 2.19423L4.88611 0.0175373C4.75598 -0.0289615 4.61074 0.0193488 4.53375 0.13469C4.45706 0.24973 4.46853 0.402512 4.56153 0.50487L6.95803 3.14715ZM10.43 2.62208L9.31226 4.03003C9.21987 4.14627 9.22591 4.31264 9.32645 4.42195L10.6429 5.85556L5.85595 5.05934L7.58788 3.37723C7.70473 3.264 7.71047 3.07831 7.60116 2.95784L5.81368 0.987069L10.43 2.62208Z" fill="black"/>
</svg>
