<svg width="30" height="31" viewBox="0 0 30 31" fill="none" xmlns="http://www.w3.org/2000/svg">
<path d="M29.25 21.8684C29.25 26.4895 25.3401 30.25 20.5337 30.25C18.8333 30.25 17.2458 29.7787 15.9021 28.967C14.3496 29.8036 12.5791 30.25 10.7644 30.25C4.96736 30.25 0.25 25.7151 0.25 20.1403C0.25 18.3997 0.717283 16.6865 1.60257 15.1876L1.70771 15.013L10.4775 0.4096C10.5372 0.311098 10.6462 0.25 10.7657 0.25C10.8838 0.25 10.9941 0.311098 11.0538 0.4096L16.9316 10.1813C17.0238 10.3334 16.9692 10.5291 16.8096 10.6177C16.6512 10.705 16.4474 10.6538 16.3553 10.5005L10.7659 1.2076L2.17925 15.5055C1.35367 16.9058 0.914936 18.5093 0.914936 20.1403C0.914936 25.3621 5.33356 29.6116 10.7647 29.6116C12.3535 29.6116 13.9047 29.2476 15.287 28.5618C13.1751 27.0306 11.8068 24.6005 11.8068 21.8697C11.8068 17.2525 15.7203 13.4971 20.5324 13.4971C23.1973 13.4971 25.6778 14.643 27.3379 16.6392C27.4522 16.7776 27.4288 16.9784 27.286 17.0881C27.1432 17.1991 26.9329 17.1754 26.8187 17.0382C25.2844 15.1941 22.9933 14.1368 20.5309 14.1368C16.0864 14.1368 12.4699 17.6055 12.4699 21.871C12.4699 26.1403 16.0864 29.6141 20.5309 29.6141C24.9701 29.6141 28.5826 26.1403 28.5826 21.871C28.5826 20.5992 28.2724 19.3859 27.6597 18.2637C27.574 18.1078 27.6376 17.9146 27.7999 17.8323C27.9634 17.7512 28.1633 17.8111 28.249 17.9669C28.9123 19.1789 29.25 20.493 29.25 21.8684ZM22.7312 26.103C22.7312 26.3648 22.8364 26.6192 23.0285 26.8174C23.0415 26.8311 23.048 26.8486 23.0583 26.8648C23.0687 26.881 23.083 26.8935 23.0908 26.9109C23.0921 26.9134 23.0921 26.9159 23.0921 26.9184C23.1012 26.9421 23.1038 26.967 23.1077 26.992C23.1103 27.0082 23.1155 27.0244 23.1155 27.0394C23.1142 27.0606 23.1077 27.0818 23.1025 27.103C23.0973 27.1217 23.096 27.1404 23.0895 27.1591C23.083 27.1753 23.0687 27.189 23.0583 27.2039C23.0454 27.2239 23.0337 27.2451 23.0155 27.2613C23.0129 27.2638 23.0129 27.2663 23.0103 27.2675C22.9908 27.285 22.9688 27.2937 22.948 27.3049C22.9363 27.3112 22.9272 27.3224 22.913 27.3274C22.9104 27.3286 22.9078 27.3286 22.9065 27.3299C22.9052 27.3311 22.9026 27.3311 22.9013 27.3324C22.1471 27.6341 21.3514 27.7875 20.5336 27.7875C20.0118 27.7875 19.4887 27.7227 18.9798 27.5955C18.9785 27.5955 18.9772 27.5942 18.976 27.593C18.9383 27.583 18.9033 27.5656 18.8721 27.5444C18.863 27.5381 18.8565 27.5319 18.8487 27.5244C18.8267 27.5057 18.8085 27.4858 18.7916 27.4621C18.7851 27.4533 18.7786 27.4446 18.7735 27.4346C18.7696 27.4284 18.7644 27.4234 18.7618 27.4159C18.7553 27.4022 18.7566 27.3885 18.7527 27.3748C18.7462 27.3548 18.7397 27.3336 18.7384 27.3124C18.7358 27.29 18.7397 27.2688 18.7423 27.2464C18.7436 27.2326 18.741 27.2189 18.7449 27.2052C18.7462 27.199 18.7514 27.1952 18.7527 27.189C18.7592 27.1678 18.7722 27.1478 18.7838 27.1291C18.7942 27.1129 18.802 27.0955 18.815 27.0818C18.8293 27.0656 18.8474 27.0531 18.8643 27.0394C18.8812 27.0269 18.8955 27.0144 18.9149 27.0057C18.9214 27.002 18.9253 26.997 18.9318 26.9945C19.551 26.7289 19.9508 26.1329 19.9508 25.477C19.9508 24.5556 19.1706 23.8062 18.2114 23.8062C17.2521 23.8062 16.472 24.5556 16.472 25.477V25.5494C16.472 25.5531 16.4694 25.5556 16.4694 25.5593C16.4681 25.5818 16.4616 25.6042 16.4551 25.6267C16.4499 25.6454 16.4486 25.6641 16.4395 25.6815C16.4317 25.6977 16.4188 25.7102 16.4084 25.7252C16.3941 25.7451 16.3824 25.7663 16.3629 25.7825C16.3603 25.785 16.359 25.7888 16.3565 25.79C16.3409 25.8037 16.3214 25.81 16.3045 25.8199C16.289 25.8287 16.276 25.8399 16.2591 25.8449C16.2202 25.8598 16.1786 25.8686 16.1371 25.8686C16.0904 25.8686 16.0462 25.8586 16.0047 25.8411C15.9969 25.8374 15.9891 25.8299 15.9813 25.8262C15.9489 25.81 15.919 25.7913 15.8943 25.7651C15.8917 25.7626 15.8879 25.7613 15.8866 25.7588C15.3115 25.1291 14.8896 24.3985 14.6314 23.588C14.6288 23.5818 14.6314 23.5755 14.6288 23.5681C14.6262 23.5606 14.6223 23.5543 14.621 23.5469C14.6184 23.5319 14.6236 23.5182 14.6223 23.5045C14.621 23.4833 14.621 23.4621 14.6249 23.4409C14.6288 23.4209 14.6352 23.4022 14.643 23.3835C14.6508 23.3636 14.6586 23.3461 14.669 23.3287C14.6794 23.3112 14.6937 23.2962 14.7079 23.2813C14.7222 23.2663 14.7365 23.2514 14.7534 23.2401C14.7715 23.2277 14.791 23.2189 14.8118 23.2102C14.8248 23.204 14.8364 23.194 14.8507 23.1903C14.8585 23.1878 14.8663 23.189 14.8728 23.1878C14.8806 23.1865 14.8858 23.1815 14.8936 23.1803C15.4206 23.0955 15.8022 22.6616 15.8022 22.1479C15.8022 21.9995 15.7633 21.8386 15.6932 21.6965C15.6919 21.694 15.6919 21.6915 15.6919 21.6902C15.6828 21.6703 15.6815 21.6491 15.675 21.6279C15.6698 21.6067 15.662 21.5868 15.662 21.5656C15.662 21.5631 15.6607 21.5606 15.6607 21.5593C15.6607 21.5431 15.6672 21.5294 15.6698 21.5144C15.6737 21.4907 15.675 21.4671 15.6854 21.4434C15.6932 21.4234 15.7062 21.4085 15.7178 21.391C15.7295 21.3735 15.7386 21.3561 15.7529 21.3411C15.7711 21.3237 15.7918 21.3112 15.8139 21.2975C15.8269 21.2888 15.836 21.2775 15.8515 21.2701C15.8541 21.2688 15.8554 21.2688 15.858 21.2688C15.8788 21.2601 15.9035 21.2576 15.9268 21.2526C15.9463 21.2489 15.9658 21.2414 15.9865 21.2414C15.9891 21.2414 15.9917 21.2401 15.9943 21.2401H16.1072C16.838 21.2401 17.4326 20.669 17.4326 19.9671C17.4326 19.2651 16.838 18.694 16.1072 18.694C16.0865 18.694 16.0644 18.6927 16.0449 18.6952C16.0397 18.6965 16.0346 18.6952 16.0281 18.6965C16.0099 18.699 15.993 18.699 15.9761 18.699C15.9463 18.7002 15.9164 18.699 15.8879 18.6927C15.884 18.6915 15.8814 18.6903 15.8788 18.689C15.8386 18.6778 15.8022 18.6603 15.7698 18.6354C15.7698 18.6341 15.7685 18.6341 15.7685 18.6341C15.7672 18.6329 15.7672 18.6316 15.7659 18.6304C15.7347 18.6055 15.7087 18.5755 15.688 18.5419C15.6854 18.5369 15.6828 18.5319 15.6802 18.5257C15.6698 18.5045 15.6555 18.4845 15.649 18.4596C15.6464 18.4484 15.649 18.4371 15.6477 18.4259C15.6464 18.4197 15.6477 18.4122 15.6464 18.406C15.6438 18.3723 15.6451 18.3386 15.6542 18.3062C15.6568 18.2962 15.662 18.2875 15.6646 18.2788C15.675 18.2501 15.688 18.2239 15.7074 18.199C15.7113 18.194 15.7113 18.189 15.7152 18.1853C16.8887 16.7688 18.6449 15.9571 20.5349 15.9571C21.2749 15.9571 21.9823 16.0893 22.6404 16.3212C22.7481 16.3498 22.8507 16.386 22.9493 16.4321C25.1456 17.3361 26.689 19.4321 26.689 21.8684C26.689 23.2288 26.201 24.5505 25.3144 25.5941C25.3131 25.5954 25.3131 25.5966 25.3118 25.5966C25.3079 25.6004 25.3053 25.6041 25.3027 25.6079C25.2936 25.6178 25.282 25.6228 25.2716 25.6316C25.2534 25.649 25.2378 25.6677 25.2158 25.6802C25.2106 25.6839 25.2041 25.6827 25.1989 25.6864C25.182 25.6951 25.1638 25.6989 25.1457 25.7051C25.1197 25.7126 25.0937 25.7201 25.0665 25.7226C25.06 25.7226 25.0535 25.7263 25.047 25.7263C25.0301 25.7263 25.0146 25.7201 24.9977 25.7188C24.9821 25.7163 24.9678 25.7151 24.9523 25.7114C24.9276 25.7039 24.9055 25.6926 24.8835 25.6802C24.8705 25.6727 24.8562 25.6677 24.8432 25.659C24.8406 25.6565 24.838 25.6565 24.8354 25.654C24.8186 25.6415 24.8108 25.6241 24.7978 25.6091C24.7861 25.5954 24.7705 25.5854 24.7601 25.5692C24.5615 25.2475 24.2111 25.0567 23.8217 25.0567C23.2207 25.0555 22.7312 25.5257 22.7312 26.103ZM21.1009 17.9234C21.1009 18.2763 21.2865 18.588 21.5669 18.7763C21.5941 18.7925 21.624 18.805 21.65 18.8224C21.8083 18.9085 21.9874 18.9621 22.1809 18.9621C22.7767 18.9621 23.2622 18.4958 23.2622 17.9235C23.2622 17.5319 23.0298 17.1965 22.691 17.022C22.5949 16.9821 22.4937 16.9496 22.395 16.9147C22.3262 16.901 22.2535 16.8948 22.1809 16.8948C21.5863 16.8935 21.1009 17.3561 21.1009 17.9234ZM20.666 19.1653C20.0702 19.1653 19.5848 19.6316 19.5848 20.204C19.5848 20.7763 20.0702 21.2426 20.666 21.2426C21.2619 21.2426 21.7473 20.7763 21.7473 20.204C21.746 19.6404 21.2515 19.1653 20.666 19.1653ZM22.0666 26.1028C22.0666 25.6353 22.2665 25.2125 22.5871 24.9071C22.0186 24.6303 21.624 24.0692 21.624 23.4158C21.624 22.4956 22.4067 21.7475 23.3699 21.7475C24.3317 21.7475 25.1158 22.4956 25.1158 23.4158C25.1158 23.8759 24.9211 24.2924 24.6082 24.5953C24.7653 24.6702 24.9107 24.7662 25.0392 24.8846C25.6766 24.0093 26.0257 22.9519 26.0257 21.8672C26.0257 20.1814 25.1937 18.6814 23.9086 17.715C23.9177 17.7836 23.9307 17.8509 23.9307 17.922C23.9307 18.8123 23.2025 19.5355 22.2899 19.5891C22.3678 19.7799 22.4145 19.9856 22.4145 20.2026C22.4145 21.1265 21.6318 21.8796 20.6687 21.8796C19.7068 21.8796 18.9228 21.1277 18.9228 20.2026C18.9228 19.3123 19.651 18.5891 20.5635 18.5355C20.4856 18.3447 20.4389 18.139 20.4389 17.922C20.4389 17.3946 20.7024 16.9282 21.1035 16.6228C20.9166 16.6041 20.7271 16.5941 20.535 16.5941C19.0617 16.5941 17.6792 17.1477 16.655 18.1302C17.4871 18.3597 18.0971 19.0953 18.0971 19.9669C18.0971 20.9132 17.3767 21.6988 16.4356 21.8497C16.4551 21.9494 16.4681 22.0504 16.4681 22.1477C16.4681 22.8459 16.0268 23.4481 15.3803 23.7025C15.5231 24.0728 15.7061 24.4232 15.9281 24.7486C16.2461 23.8309 17.1483 23.1676 18.2088 23.1676C19.5341 23.1676 20.6128 24.2038 20.6128 25.4768C20.6128 26.1027 20.3454 26.6838 19.9015 27.109C20.7011 27.1975 21.5137 27.1202 22.2756 26.8758C22.1432 26.6377 22.0666 26.3747 22.0666 26.1028ZM23.3686 24.4544C23.9644 24.4544 24.4499 23.9881 24.4499 23.4158C24.4499 22.8485 23.9644 22.3859 23.3686 22.3859C22.7728 22.3859 22.2873 22.8472 22.2873 23.4158C22.2886 23.9881 22.7728 24.4544 23.3686 24.4544ZM17.5234 12.4458C17.5844 12.548 17.696 12.6054 17.8116 12.6054C17.8674 12.6054 17.9245 12.5917 17.9764 12.563C18.1361 12.4757 18.1906 12.28 18.0984 12.1278L17.8817 11.7663C17.7908 11.6129 17.587 11.5605 17.4286 11.6491C17.269 11.7363 17.2145 11.9321 17.3066 12.0842L17.5234 12.4458ZM5.05941 16.7126C4.89845 16.6265 4.69727 16.6801 4.60768 16.8347C4.01967 17.8435 3.70813 18.9856 3.70813 20.1401C3.70813 22.64 5.13212 24.9319 7.4246 26.1212C7.47522 26.1474 7.52845 26.1599 7.58296 26.1599C7.70109 26.1599 7.81532 26.1 7.87632 25.9928C7.96329 25.8382 7.90358 25.6437 7.74262 25.5601C5.66574 24.4828 4.37541 22.4055 4.37541 20.1411C4.37541 19.0962 4.65709 18.0613 5.19058 17.1486C5.27625 16.994 5.21913 16.7994 5.05947 16.7122L5.05941 16.7126Z" fill="black" stroke="black" stroke-width="0.5"/>
</svg>
