<svg width="18" height="36" viewBox="0 0 18 36" fill="none" xmlns="http://www.w3.org/2000/svg">
<path d="M14.1399 33.8047V28.8372C14.1399 28.339 13.9727 27.8488 13.6658 27.455L9.69622 22.3509L10.2619 20.0833C10.3487 19.7393 10.1398 19.389 9.79426 19.3038C9.45033 19.217 9.09998 19.426 9.01482 19.7715L8.37197 22.3429C8.32375 22.5341 8.36714 22.7382 8.48768 22.8925L12.6501 28.2427C12.7818 28.4114 12.8526 28.6219 12.8526 28.8341V34.0686C12.8526 34.239 12.9201 34.4029 13.0406 34.5235L13.2286 34.7115H11.5668V29.5687C11.5668 29.3983 11.4993 29.2344 11.3788 29.1139L10.0931 27.8282C9.8424 27.5775 9.43417 27.5775 9.18349 27.8282C8.93281 28.0789 8.93277 28.4871 9.18349 28.7378L10.2812 29.8355V35.3543C10.2812 35.7095 10.5688 35.9972 10.924 35.9972H14.7811C15.0415 35.9972 15.2761 35.8397 15.3757 35.6002C15.4754 35.3591 15.4208 35.0827 15.2375 34.8995L14.1399 33.8018L14.1399 33.8047Z" fill="black"/>
<path d="M17.9875 23.6701L16.7018 16.5986C16.6375 16.2498 16.3032 16.0168 15.9545 16.0811C15.6057 16.1454 15.3727 16.4797 15.437 16.8284L16.1217 20.5987L14.6849 18.3006C14.6495 18.2427 14.6045 18.1929 14.5563 18.1511C14.3249 17.0261 14.0645 16.0651 13.7753 15.2647C14.0935 15.3708 14.431 15.427 14.7845 15.427C16.5572 15.427 17.9988 13.9854 17.9988 12.2128C17.9988 10.4401 16.5572 8.99854 14.7845 8.99854C13.0119 8.99854 11.5703 10.4401 11.5703 12.2128C11.5703 12.2514 11.5719 12.2867 11.5735 12.3253C11.3662 12.2514 11.1508 12.2128 10.9274 12.2128C9.32193 12.2128 7.77423 12.936 6.45154 14.3069C4.36229 16.4732 3.14407 19.922 3.21479 21.8779C3.25979 23.1507 3.70175 26.9952 3.82872 28.078L0.154824 32.3643C-0.041244 32.5925 -0.0524965 32.9268 0.12911 33.1678L1.57551 35.0964C1.99817 35.6589 2.67159 35.9963 3.37549 35.9963H5.14334C5.3812 35.9963 5.59817 35.8662 5.70905 35.6556C5.82155 35.4451 5.80869 35.1928 5.67691 34.9951L4.64353 33.4458L7.81598 29.216C8.1824 28.7274 8.33668 28.1007 8.23543 27.4964L7.70506 24.3174C7.64721 23.9671 7.31614 23.7292 6.96417 23.7887C6.61382 23.8465 6.37756 24.1776 6.43541 24.5296L6.96577 27.7085C7.00917 27.9672 6.94327 28.2356 6.78578 28.4446L3.3401 33.0377C3.17617 33.2563 3.16814 33.5536 3.31921 33.7802L3.93955 34.7091H3.37385C3.0717 34.7091 2.78242 34.5645 2.60243 34.3234L1.46459 32.8063L4.9858 28.6985C5.10313 28.5618 5.15616 28.3835 5.13687 28.2035C5.13045 28.1536 4.54866 23.231 4.49723 21.828C4.4442 20.3527 5.41652 17.225 7.37399 15.1955C8.46361 14.0673 9.65933 13.4951 10.9257 13.4951C11.6377 13.4951 12.6679 14.9576 13.4264 19.0654C13.6305 20.1775 13.7832 21.2961 13.8925 22.2636L10.8389 17.029C10.6589 16.7221 10.2668 16.6176 9.95983 16.7976C9.65287 16.9776 9.54841 17.3697 9.72841 17.6767L14.2286 25.3909C14.378 25.648 14.6834 25.7686 14.9679 25.6834C15.2523 25.5982 15.4403 25.3298 15.4259 25.0341C15.4211 24.9441 15.3359 23.3675 15.0804 21.3538L16.8112 24.1245C16.9318 24.3174 17.1391 24.4266 17.3576 24.4266C17.4348 24.4266 17.5135 24.4138 17.5891 24.3832C17.8767 24.2708 18.0455 23.9718 17.9892 23.6697L17.9875 23.6701ZM14.7829 10.2861C15.8468 10.2861 16.7114 11.1508 16.7114 12.2147C16.7114 13.277 15.8468 14.1432 14.7829 14.1432C13.719 14.1432 12.8543 13.2786 12.8543 12.2147C12.8543 11.1524 13.719 10.2861 14.7829 10.2861Z" fill="black"/>
<path d="M7.71133 12.2148C8.06651 12.2148 8.35418 11.9271 8.35418 11.5719V2.57205C8.35418 2.21688 8.06651 1.9292 7.71133 1.9292C7.35616 1.9292 7.06848 2.21688 7.06848 2.57205V11.5719C7.06848 11.9271 7.35616 12.2148 7.71133 12.2148Z" fill="black"/>
<path d="M10.2827 10.9287C10.6379 10.9287 10.9256 10.641 10.9256 10.2858V0.64285C10.9256 0.287676 10.6379 0 10.2827 0C9.92757 0 9.63989 0.287676 9.63989 0.64285V10.2858C9.63989 10.641 9.92757 10.9287 10.2827 10.9287Z" fill="black"/>
<path d="M12.8542 8.35721C13.2093 8.35721 13.497 8.06954 13.497 7.71436V2.57156C13.497 2.21639 13.2093 1.92871 12.8542 1.92871C12.499 1.92871 12.2113 2.21639 12.2113 2.57156V7.71436C12.2113 8.06954 12.499 8.35721 12.8542 8.35721Z" fill="black"/>
<path d="M5.13992 10.9288C5.49509 10.9288 5.78277 10.6411 5.78277 10.286V4.50052C5.78277 4.14534 5.49509 3.85767 5.13992 3.85767C4.78475 3.85767 4.49707 4.14534 4.49707 4.50052V10.286C4.49707 10.6411 4.78475 10.9288 5.13992 10.9288Z" fill="black"/>
</svg>
