<svg width="29" height="29" viewBox="0 0 29 29" fill="none" xmlns="http://www.w3.org/2000/svg">
<path d="M27.9184 10.138C27.4987 9.47332 26.6541 9.24002 25.9529 9.59194L22.6215 11.2642L22.2604 10.5421C22.0219 10.0637 21.6192 9.68577 21.1265 9.47592L16.8096 7.64077C15.4032 7.04381 13.7714 7.40486 12.7495 8.54009L9.36583 12.2992C8.81452 12.9104 8.86273 13.8593 9.47141 14.4132C9.77118 14.6856 10.1609 14.8225 10.5636 14.8016C10.9677 14.7795 11.3391 14.5996 11.6063 14.2946L14.6276 10.8642L15.3483 10.9294L13.3829 15.2697C12.8824 16.3737 12.9619 17.6249 13.5393 18.6391L12.9215 20.5003C12.881 20.6228 12.7963 20.7284 12.6855 20.7948L8.77532 23.1253C7.99461 23.5906 7.70786 24.5877 8.11974 25.3971C8.42473 25.9953 9.02821 26.342 9.65903 26.342C9.89885 26.342 10.1439 26.2912 10.3759 26.1856L14.4282 24.3413C14.9405 24.108 15.3458 23.6962 15.57 23.18L16.3168 21.4635L16.8512 21.9627C17.1354 22.2286 17.2292 22.6339 17.0911 22.9976L15.9571 25.9849C15.5909 26.9481 16.0718 28.0443 17.0298 28.4274C17.2592 28.5187 17.4977 28.5643 17.7375 28.5643C17.9943 28.5643 18.2511 28.5109 18.4948 28.4053C18.964 28.2007 19.3251 27.8266 19.5101 27.3495L21.095 23.2738C21.5395 22.1307 21.387 20.8482 20.6858 19.8421L19.5975 18.2767C19.3316 17.8948 19.282 17.393 19.4684 16.9655L20.7275 14.0877L21.6216 14.8149C21.8223 14.9792 22.0999 15.0065 22.3293 14.8879L27.3266 12.2968C27.7033 12.1013 27.9822 11.7546 28.093 11.3454C28.2103 10.9361 28.1439 10.4968 27.9184 10.1384L27.9184 10.138ZM14.8704 22.8707C14.7218 23.2122 14.4534 23.4846 14.1145 23.6384L10.0621 25.4827C9.59292 25.6951 9.04288 25.5035 8.80828 25.0447C8.57888 24.595 8.7392 24.0411 9.17191 23.7831L13.0821 21.4526C13.3519 21.291 13.5553 21.0381 13.6543 20.7397L14.104 19.3829C14.1457 19.4259 14.1874 19.4676 14.2317 19.5093L15.7241 20.9039L14.8704 22.8707ZM27.3568 11.144C27.3008 11.3487 27.1665 11.5155 26.9789 11.6132L22.052 14.1679L20.8268 13.1708C20.7329 13.0952 20.6091 13.0665 20.4931 13.0952C20.3758 13.1238 20.2794 13.2046 20.2311 13.3141L18.7688 16.6561C18.4755 17.3261 18.5524 18.1146 18.9708 18.7142L20.0591 20.2795C20.613 21.0746 20.7329 22.0899 20.3823 22.9931L18.7974 27.0689C18.6866 27.353 18.4716 27.5772 18.1927 27.6984C17.9124 27.8196 17.6022 27.8248 17.3194 27.7114C16.7485 27.4833 16.4618 26.8303 16.6807 26.2555L17.8146 23.2682C18.0636 22.6113 17.8928 21.8775 17.3806 21.3992L14.7569 18.9488C13.8341 18.0873 13.5643 16.7357 14.0857 15.5861L16.274 10.7533C16.3249 10.6399 16.3184 10.5083 16.2558 10.4014C16.1932 10.2932 16.0825 10.2228 15.9586 10.2124L14.5041 10.0808C14.4923 10.0795 14.4806 10.0795 14.4689 10.0795C14.3594 10.0795 14.2538 10.1264 14.1808 10.2098L11.0306 13.7877C10.9002 13.9363 10.719 14.0236 10.5222 14.034C10.3241 14.0484 10.1351 13.978 9.98915 13.845C9.69198 13.5752 9.66852 13.1125 9.93702 12.8154L13.3207 9.05631C14.1236 8.16349 15.4048 7.88067 16.5075 8.34987L20.8244 10.185C21.149 10.3232 21.4136 10.5721 21.5713 10.8876L21.9871 11.7191C22.0653 11.8742 22.1982 11.9889 22.3624 12.0437C22.5267 12.0984 22.7026 12.0854 22.8577 12.0085L26.2975 10.2815C26.6442 10.1068 27.0613 10.2241 27.2672 10.5513C27.3806 10.7272 27.4131 10.9397 27.3571 11.1443L27.3568 11.144Z" fill="black" stroke="black" stroke-width="0.3"/>
<path d="M20.9793 8.83091C22.7089 8.83091 24.1152 7.42458 24.1152 5.695C24.1152 3.96541 22.7089 2.55908 20.9793 2.55908C19.2497 2.55908 17.8434 3.96541 17.8434 5.695C17.8434 7.42458 19.251 8.83091 20.9793 8.83091ZM20.9793 3.32811C22.284 3.32811 23.3462 4.39037 23.3462 5.69506C23.3462 6.99976 22.284 8.06202 20.9793 8.06202C19.6746 8.06202 18.6123 6.99976 18.6123 5.69506C18.6123 4.39037 19.6746 3.32811 20.9793 3.32811Z" fill="black" stroke="black" stroke-width="0.3"/>
<path d="M9.70996 17.5712C9.77513 17.6142 9.84942 17.6364 9.92372 17.6364C10.0215 17.6364 10.1179 17.5999 10.1922 17.5269C10.3225 17.4005 10.346 17.1984 10.2483 17.0459C8.47696 14.2593 7.89045 11.8234 8.50693 9.80708C9.1117 7.82855 10.7566 6.64901 11.9674 6.02465L11.9387 7.02044C11.9348 7.16642 12.013 7.30197 12.1407 7.36976C12.2684 7.43883 12.4249 7.42971 12.5447 7.34499L16.9735 4.22209C17.0725 4.15301 17.1325 4.03962 17.1364 3.9184C17.1403 3.79719 17.0856 3.68119 16.9917 3.60559L12.7492 0.233908C12.6345 0.142671 12.4794 0.124426 12.3478 0.185683C12.2161 0.246941 12.1301 0.378582 12.1262 0.523252L12.091 1.73929C10.2754 2.09511 6.6012 3.33595 5.12707 7.60979C3.21891 13.14 9.44402 17.3928 9.70962 17.5714L9.70996 17.5712ZM5.85313 7.86355C7.28295 3.71743 10.9976 2.69308 12.5278 2.4455C12.7102 2.41552 12.8458 2.26173 12.851 2.07664L12.8732 1.31548L16.112 3.88964L12.7297 6.2735L12.7544 5.41849C12.7584 5.28685 12.6945 5.16302 12.585 5.08873C12.4755 5.01574 12.3374 5.00271 12.2161 5.05485C10.8971 5.63095 8.56551 6.98383 7.77173 9.58268C7.23082 11.354 7.50193 13.3808 8.57592 15.6277C6.92845 14.0363 4.71807 11.1508 5.85313 7.86355Z" fill="black" stroke="black" stroke-width="0.3"/>
<path d="M3.33272 19.4299H7.92595C8.1384 19.4299 8.31044 19.2578 8.31044 19.0454C8.31044 18.8329 8.13839 18.6609 7.92595 18.6609H3.33272C3.12027 18.6609 2.94824 18.8329 2.94824 19.0454C2.94824 19.2578 3.12029 19.4299 3.33272 19.4299Z" fill="black" stroke="black" stroke-width="0.3"/>
<path d="M0.920371 21.4462H9.67774C9.89019 21.4462 10.0622 21.2742 10.0622 21.0617C10.0622 20.8493 9.89018 20.6772 9.67774 20.6772H0.920371C0.70792 20.6772 0.535889 20.8493 0.535889 21.0617C0.535889 21.2742 0.709238 21.4462 0.920371 21.4462Z" fill="black" stroke="black" stroke-width="0.3"/>
<path d="M6.38398 23.3088H0.534507C0.322056 23.3088 0.150024 23.4809 0.150024 23.6933C0.150024 23.9058 0.322072 24.0778 0.534507 24.0778H6.38398C6.59644 24.0778 6.76847 23.9058 6.76847 23.6933C6.76847 23.4809 6.59642 23.3088 6.38398 23.3088Z" fill="black" stroke="black" stroke-width="0.3"/>
</svg>
