<svg width="28" height="28" viewBox="0 0 28 28" fill="none" xmlns="http://www.w3.org/2000/svg">
<path d="M8.92894 9.37915C7.39173 9.37915 6.18982 11.1036 6.18982 13.3072C6.18982 15.5108 7.39173 17.2352 8.92894 17.2352C10.1962 17.2352 15.0387 15.759 15.0387 13.3072C15.043 10.8555 10.1962 9.37915 8.92894 9.37915ZM8.92894 16.3685C7.9143 16.3685 7.06077 14.9663 7.06077 13.3114C7.06077 11.6522 7.9143 10.2543 8.92894 10.2543C10.1744 10.2543 14.1677 11.6652 14.1677 13.3114C14.1721 14.9575 10.1789 16.3685 8.92894 16.3685Z" fill="black" stroke="black" stroke-width="0.3"/>
<path d="M12.6829 7.29336C12.9006 7.39352 13.1271 7.44142 13.3491 7.44142C13.9457 7.44142 14.5205 7.10174 14.7862 6.52694C15.1563 5.73436 14.8123 4.78939 14.0197 4.41925C13.6365 4.2407 13.2054 4.21893 12.8091 4.36264C12.4128 4.50634 12.0949 4.79811 11.912 5.18133C11.7335 5.56454 11.7117 5.99567 11.8598 6.39196C12.0035 6.79694 12.2953 7.11482 12.6829 7.29336ZM12.7046 5.55146C12.7874 5.37727 12.9267 5.24662 13.1096 5.18132C13.188 5.15083 13.2707 5.13777 13.3535 5.13777C13.458 5.13777 13.5582 5.15954 13.6583 5.20745C14.0154 5.37293 14.1678 5.79969 14.0024 6.15677C13.8369 6.51384 13.4101 6.67064 13.053 6.5008C12.8788 6.41806 12.7482 6.2787 12.6829 6.10016C12.6132 5.92162 12.6219 5.72565 12.7046 5.55146Z" fill="black" stroke="black" stroke-width="0.3"/>
<path d="M9.87415 19.5476C9.49093 19.369 9.05981 19.3516 8.66352 19.4953C8.26288 19.639 7.945 19.9308 7.76643 20.314C7.39628 21.1066 7.7403 22.0515 8.53286 22.4217C8.7506 22.5218 8.97706 22.5697 9.19913 22.5697C9.79572 22.5697 10.3706 22.2301 10.6406 21.6553C10.8191 21.272 10.8365 20.8409 10.6928 20.4446C10.5491 20.044 10.2574 19.7261 9.87415 19.5476ZM9.84802 21.2851C9.68254 21.6422 9.25578 21.799 8.8987 21.6291C8.54163 21.4637 8.38483 21.0369 8.55467 20.6798C8.63306 20.5056 8.77677 20.375 8.95966 20.3097C9.03804 20.2792 9.12078 20.2661 9.20352 20.2661C9.30804 20.2661 9.4082 20.2879 9.50399 20.3314C9.67818 20.4142 9.80884 20.5535 9.87414 20.7364C9.93944 20.9193 9.93076 21.1109 9.84802 21.2851Z" fill="black" stroke="black" stroke-width="0.3"/>
<path d="M21.9108 13.0198C21.5276 12.8413 21.0964 12.8195 20.7002 12.9675C20.3039 13.1113 19.986 13.403 19.8074 13.7862C19.6289 14.1695 19.6115 14.6006 19.7552 14.9969C19.8989 15.3932 20.1907 15.711 20.5739 15.8896C20.7873 15.9897 21.0137 16.0376 21.2445 16.0376C21.4274 16.0376 21.6103 16.0072 21.7888 15.9418C22.1851 15.7981 22.503 15.5064 22.6815 15.1232C22.8601 14.7399 22.8775 14.3088 22.7338 13.9125C22.5857 13.5162 22.294 13.2027 21.9108 13.0198ZM21.889 14.7617C21.8106 14.9359 21.6669 15.0665 21.4884 15.1318C21.3098 15.1971 21.1139 15.1885 20.944 15.1057C20.7699 15.023 20.6392 14.8836 20.5739 14.7051C20.5086 14.5265 20.5173 14.3306 20.6 14.1607C20.6828 13.9866 20.8221 13.8559 21.0007 13.7906C21.079 13.7601 21.1618 13.7471 21.2445 13.7471C21.349 13.7471 21.4492 13.7688 21.545 13.8124C21.7192 13.8951 21.8498 14.0345 21.9151 14.2174C21.9761 14.3916 21.9674 14.5875 21.889 14.7617Z" fill="black" stroke="black" stroke-width="0.3"/>
<path d="M27.1102 7.39326C27.0101 7.17553 26.7531 7.07537 26.5354 7.17553L25.6209 7.58923C25.3509 7.04924 25.0417 6.54409 24.6934 6.07813L25.5512 5.44235C25.7428 5.29865 25.7864 5.02865 25.6427 4.83269C25.499 4.64108 25.229 4.59753 25.033 4.74124L24.1403 5.40316C23.8268 5.05478 23.4915 4.73254 23.1343 4.44077L23.744 3.61773C23.8877 3.42612 23.8485 3.15177 23.6526 3.00807C23.461 2.86436 23.1866 2.90355 23.0429 3.09952L22.4289 3.92693C20.9526 2.94712 19.1759 2.39841 17.1859 2.39841C15.3569 2.39841 14.5469 2.01084 13.7673 1.63198C13.0227 1.2749 12.2519 0.904727 10.7668 0.904727C9.69555 0.904727 8.68962 1.07021 7.76212 1.37504L7.40067 0.430067C7.31358 0.20362 7.06537 0.094759 6.83892 0.177492C6.61247 0.264587 6.49924 0.5128 6.58634 0.739247L6.94342 1.68422C6.2815 1.97162 5.65876 2.32872 5.08831 2.75112L4.12155 1.54921C3.97349 1.36196 3.69915 1.33148 3.50754 1.48389C3.32464 1.6276 3.29416 1.90195 3.44221 2.08921L4.4046 3.28677C3.87769 3.74836 3.3943 4.26223 2.95883 4.81964L1.87451 4.03578C1.67855 3.89643 1.40854 3.93998 1.26484 4.13594C1.12549 4.33191 1.16904 4.60191 1.365 4.74561L2.45368 5.53381C0.959992 7.76778 0.150024 10.5591 0.150024 13.3071C0.150024 17.2831 1.83966 21.3502 4.8576 23.6975L4.15215 24.5902C4.00409 24.7774 4.03457 25.0518 4.22618 25.1998C4.30456 25.2608 4.40037 25.2913 4.49617 25.2913C4.62681 25.2913 4.7531 25.2347 4.8402 25.1258L5.5718 24.1939C6.15097 24.5684 6.77371 24.8819 7.43998 25.1258L6.98274 26.4105C6.90435 26.6369 7.02193 26.8851 7.24837 26.9679C7.29628 26.9853 7.34418 26.994 7.39208 26.994C7.57062 26.994 7.74046 26.8808 7.80144 26.7022L8.2674 25.3827C8.92498 25.5569 9.61301 25.6614 10.3403 25.6919L10.362 26.4758C10.3707 26.7109 10.5624 26.8982 10.7975 26.8982H10.8106C11.0501 26.8895 11.2417 26.6892 11.233 26.4496L11.2112 25.6919C12.4088 25.6266 13.0968 25.2956 13.7631 24.9777C14.5469 24.6032 15.3569 24.2113 17.1816 24.2113C22.8906 24.2113 26.8797 19.7258 26.8797 13.2984C26.8797 11.4825 26.5618 9.81905 25.9739 8.37313L26.8884 7.95943C27.1148 7.86798 27.2104 7.61099 27.1102 7.39326ZM17.1859 23.349C15.1609 23.349 14.2202 23.8019 13.3885 24.2026C12.67 24.5466 12.0516 24.8471 10.7626 24.8471C4.66598 24.8427 1.0211 18.977 1.0211 13.3071C1.0211 7.63713 4.66598 1.77126 10.7626 1.77126C12.0516 1.77126 12.67 2.06738 13.3885 2.41576C14.2203 2.8164 15.1609 3.26494 17.1859 3.26494C22.3854 3.26494 26.013 7.39309 26.013 13.3069C26.013 19.2207 22.3812 23.349 17.1859 23.349Z" fill="black" stroke="black" stroke-width="0.3"/>
</svg>
