<svg xmlns="http://www.w3.org/2000/svg" fill="none" viewBox="0 0 94.99 85.41">
<path fill-rule="evenodd" clip-rule="evenodd" d="M20.6479 36.8934L19.2567 29.6261L24.6536 24.5596C24.8107 24.4122 24.9226 24.2232 24.9763 24.0145C25.03 23.8059 25.0233 23.5863 24.9569 23.3813C24.8905 23.1764 24.7672 22.9946 24.6013 22.8571C24.4355 22.7196 24.234 22.6321 24.0203 22.6048L16.678 21.6823L13.5326 14.985C13.4406 14.7901 13.2951 14.6253 13.1131 14.5099C12.9311 14.3946 12.72 14.3333 12.5045 14.3333C12.289 14.3333 12.0779 14.3946 11.8959 14.5099C11.7139 14.6253 11.5684 14.7901 11.4764 14.985L8.33308 21.6865L0.991916 22.609C0.778219 22.6363 0.576688 22.7238 0.410844 22.8613C0.245 22.9988 0.121684 23.1806 0.0552872 23.3856C-0.0111096 23.5905 -0.0178476 23.8101 0.0358588 24.0187C0.0895651 24.2274 0.2015 24.4164 0.358602 24.5638L5.75549 29.6303L4.35903 36.8934C4.31838 37.1051 4.33887 37.324 4.41812 37.5245C4.49737 37.725 4.63209 37.8988 4.80652 38.0255C4.98095 38.1522 5.18786 38.2266 5.40303 38.2399C5.6182 38.2533 5.83272 38.2051 6.02148 38.1009L12.5034 34.5322L18.9854 38.1009C19.1742 38.2051 19.3887 38.2533 19.6039 38.2399C19.819 38.2266 20.0259 38.1522 20.2004 38.0255C20.3748 37.8988 20.5095 37.725 20.5888 37.5245C20.668 37.324 20.6885 37.1051 20.6479 36.8934ZM16.9092 29.4382L17.9647 34.946L13.0513 32.2417C12.8834 32.1496 12.695 32.1013 12.5034 32.1013C12.3119 32.1013 12.1235 32.1496 11.9556 32.2417L7.04323 34.946L8.09875 29.4382C8.13485 29.2504 8.1228 29.0564 8.06375 28.8744C8.00469 28.6924 7.90053 28.5284 7.76098 28.3975L3.66978 24.5607L9.23344 23.8619C9.42332 23.8378 9.60404 23.7662 9.75885 23.6536C9.91366 23.5411 10.0375 23.3912 10.119 23.218L12.5034 18.1431L14.8879 23.218C14.9695 23.3913 15.0936 23.5412 15.2486 23.6537C15.4036 23.7663 15.5845 23.8379 15.7745 23.8619L21.3371 24.5607L17.248 28.3975C17.1084 28.5283 17.0041 28.6924 16.9448 28.8743C16.8856 29.0563 16.8733 29.2503 16.9092 29.4382ZM94.9356 23.6614C94.869 23.4563 94.7454 23.2743 94.5792 23.1369C94.4131 22.9995 94.2112 22.9123 93.9972 22.8856L86.6529 21.963L83.5106 15.2657C83.4186 15.0708 83.2731 14.9061 83.0911 14.7907C82.9091 14.6753 82.698 14.6141 82.4825 14.6141C82.267 14.6141 82.0559 14.6753 81.8739 14.7907C81.6919 14.9061 81.5464 15.0708 81.4544 15.2657L78.309 21.963L70.9668 22.8856C70.7528 22.9124 70.551 22.9997 70.3849 23.1372C70.2187 23.2746 70.0952 23.4566 70.0288 23.6617C69.9623 23.8668 69.9557 24.0866 70.0096 24.2954C70.0636 24.5041 70.1759 24.6932 70.3334 24.8404L75.7303 29.9069L74.3391 37.1742C74.2991 37.3856 74.32 37.6041 74.3993 37.8042C74.4786 38.0043 74.6132 38.1777 74.7873 38.3042C74.9614 38.4308 75.1679 38.5052 75.3827 38.519C75.5975 38.5327 75.8118 38.4851 76.0005 38.3817L82.4825 34.813L88.9645 38.3817C89.1533 38.4859 89.368 38.5342 89.5833 38.5208C89.7985 38.5074 90.0056 38.4329 90.18 38.3061C90.3545 38.1792 90.4892 38.0053 90.5684 37.8046C90.6475 37.604 90.6678 37.3849 90.6269 37.1731L89.2357 29.9058L94.6326 24.8393C94.7896 24.6919 94.9014 24.5029 94.9551 24.2943C95.0087 24.0858 95.0019 23.8662 94.9356 23.6614ZM87.2302 28.673C87.0908 28.8041 86.9867 28.9684 86.9276 29.1505C86.8686 29.3327 86.8565 29.5267 86.8925 29.7148L87.948 35.2225L83.0367 32.5183C82.8689 32.4259 82.6804 32.3774 82.4888 32.3774C82.2973 32.3774 82.1088 32.4259 81.941 32.5183L77.0286 35.2225L78.0841 29.7148C78.1199 29.5267 78.1076 29.3325 78.0484 29.1504C77.9891 28.9683 77.8849 28.8041 77.7453 28.673L73.6552 24.8372L79.2188 24.1374C79.4088 24.1136 79.5897 24.0422 79.7447 23.9298C79.8997 23.8174 80.0238 23.6677 80.1055 23.4946L82.4899 18.4186L84.8669 23.4988C84.9485 23.6719 85.0724 23.8215 85.2272 23.9339C85.382 24.0463 85.5627 24.1177 85.7525 24.1416L91.3162 24.8414L87.2302 28.673ZM40.7376 15.2837L39.3486 22.5488C39.3079 22.7606 39.3284 22.9795 39.4076 23.18C39.4869 23.3805 39.6216 23.5542 39.7961 23.6809C39.9705 23.8076 40.1774 23.882 40.3926 23.8954C40.6077 23.9087 40.8223 23.8605 41.011 23.7564L47.493 20.1898L53.9749 23.7585C54.1639 23.8628 54.3787 23.9111 54.5941 23.8977C54.8095 23.8843 55.0166 23.8097 55.1911 23.6827C55.3656 23.5557 55.5003 23.3816 55.5794 23.1808C55.6584 22.9799 55.6785 22.7607 55.6374 22.5488L54.2483 15.2837L59.6452 10.2172C59.8023 10.0698 59.9143 9.88071 59.968 9.67208C60.0217 9.46345 60.0149 9.24385 59.9485 9.0389C59.8821 8.83396 59.7588 8.65212 59.593 8.51462C59.4271 8.37712 59.2256 8.28962 59.0119 8.26234L51.6665 7.34932L48.5211 0.653078C48.4294 0.457833 48.284 0.292727 48.102 0.177073C47.9199 0.0614193 47.7087 0 47.493 0C47.2773 0 47.0661 0.0614193 46.884 0.177073C46.7019 0.292727 46.5566 0.457833 46.4649 0.653078L43.3194 7.34932L35.9772 8.27184C35.7635 8.29912 35.562 8.38662 35.3962 8.52412C35.2303 8.66162 35.107 8.84346 35.0406 9.0484C34.9742 9.25335 34.9675 9.47295 35.0212 9.68158C35.0749 9.89021 35.1868 10.0793 35.3439 10.2267L40.7376 15.2837ZM44.2209 9.51947C44.4108 9.49547 44.5915 9.42387 44.7464 9.3113C44.9012 9.19873 45.025 9.04886 45.1064 8.8756L47.493 3.80065L49.8774 8.8756C49.9588 9.04886 50.0827 9.19873 50.2375 9.3113C50.3923 9.42387 50.5731 9.49547 50.763 9.51947L56.3266 10.2182L52.2428 14.0551C52.1032 14.1859 51.9989 14.3499 51.9396 14.5319C51.8804 14.7138 51.8681 14.9078 51.904 15.0958L52.9595 20.6035L48.0408 17.9045C47.8729 17.8124 47.6845 17.7641 47.493 17.7641C47.3015 17.7641 47.1131 17.8124 46.9452 17.9045L42.0328 20.6088L43.0883 15.1011C43.1241 14.9131 43.1119 14.7191 43.0527 14.5372C42.9934 14.3552 42.8891 14.1912 42.7495 14.0603L38.6604 10.2235L44.2209 9.51947ZM57.8371 65.2236L57.8334 65.2178L57.8287 65.2236H57.8371Z" fill="black"/>
<path fill-rule="evenodd" clip-rule="evenodd" d="M21.3816 65.0332L25.8222 65.9874C26.1283 66.8772 26.4903 67.7501 26.9041 68.5956L24.4374 72.4113C24.1946 72.7871 24.2463 73.2821 24.564 73.5988L32.4382 81.473C32.7549 81.7896 33.2499 81.8424 33.6257 81.5986L37.4414 79.1318C38.2879 79.5456 39.1608 79.9076 40.0496 80.2137L41.0038 84.6554C41.0977 85.0934 41.4851 85.4058 41.9326 85.4058H53.0695C53.517 85.4058 53.9044 85.0934 53.9983 84.6554L54.9525 80.2137C55.8423 79.9076 56.7152 79.5456 57.5607 79.1318L61.3764 81.5986C61.7522 81.8413 62.2472 81.7886 62.5639 81.473L70.4392 73.5988C70.7558 73.2821 70.8086 72.7871 70.5658 72.4113L68.0991 68.5956C68.5128 67.7491 68.8749 66.8751 69.181 65.9874L73.6226 65.0332C74.0607 64.9393 74.3731 64.5519 74.3731 64.1043V52.9675C74.3731 52.52 74.0607 52.1326 73.6226 52.0387L69.181 51.0845C68.8749 50.1947 68.5128 49.3207 68.0991 48.4763L70.5658 44.6606C70.8086 44.2848 70.7569 43.7898 70.4392 43.4731L62.565 35.5989C62.2483 35.2822 61.7543 35.2295 61.3775 35.4733L57.5607 37.94C56.7142 37.5263 55.8413 37.1642 54.9525 36.8581L53.9983 32.4165C53.9044 31.9785 53.517 31.666 53.0695 31.666H41.9326C41.4851 31.666 41.0977 31.9785 41.0038 32.4165L40.0496 36.8581C39.1598 37.1642 38.2858 37.5263 37.4414 37.94L33.6257 35.4733C33.2499 35.2305 32.7549 35.2833 32.4382 35.5989L24.564 43.4731C24.2474 43.7898 24.1946 44.2848 24.4374 44.6606L26.9041 48.4763C26.4903 49.3217 26.1283 50.1957 25.8222 51.0845L21.3816 52.0387C20.9436 52.1326 20.6311 52.52 20.6311 52.9675V64.1043C20.6311 64.5519 20.9436 64.9393 21.3816 65.0332ZM22.5311 53.7359L26.7532 52.8292C27.0867 52.7575 27.3559 52.5126 27.4593 52.1875C27.8214 51.0444 28.2858 49.9244 28.8399 48.8573C28.9972 48.5544 28.9803 48.1902 28.7946 47.9031L26.4492 44.2742L33.2383 37.4851L36.8672 39.8305C37.1543 40.0163 37.5185 40.0331 37.8214 39.8759C38.8864 39.3217 40.0063 38.8573 41.1516 38.4952C41.4767 38.3918 41.7215 38.1226 41.7933 37.7891L42.7 33.566H52.301L53.2077 37.7891C53.2795 38.1226 53.5244 38.3918 53.8495 38.4952C54.9916 38.8573 56.1125 39.3217 57.1797 39.8759C57.4826 40.0331 57.8468 40.0163 58.1339 39.8305L61.7628 37.4851L68.5519 44.2742L66.2065 47.9031C66.0207 48.1902 66.0038 48.5544 66.1611 48.8573C66.7153 49.9223 67.1797 51.0422 67.5417 52.1875C67.6452 52.5126 67.9143 52.7575 68.2479 52.8292L72.471 53.7359V63.337L68.2479 64.2437C67.9143 64.3154 67.6441 64.5603 67.5417 64.8854C67.1808 66.0275 66.7163 67.1474 66.1611 68.2156C66.0038 68.5185 66.0207 68.8827 66.2065 69.1698L68.5519 72.7987L61.7628 79.5878L58.1339 77.2424C57.8468 77.0567 57.4837 77.0398 57.1797 77.197C56.1136 77.7512 54.9937 78.2156 53.8495 78.5777C53.5244 78.6811 53.2795 78.9503 53.2077 79.2838L52.301 83.507H42.7L41.7933 79.2838C41.7215 78.9503 41.4767 78.6811 41.1516 78.5777C40.0095 78.2156 38.8885 77.7512 37.8214 77.197C37.5185 77.0398 37.1543 77.0567 36.8672 77.2424L33.2383 79.5878L26.4492 72.7987L28.7946 69.1698C28.9803 68.8827 28.9972 68.5185 28.8399 68.2156C28.2858 67.1506 27.8214 66.0296 27.4593 64.8854C27.3559 64.5603 27.0867 64.3154 26.7532 64.2437L22.5311 63.337V53.7359ZM38.7471 61.436L44.1925 61.8054L46.6371 67.1949C46.7912 67.5348 47.13 67.7522 47.5016 67.7522H47.5227C47.9027 67.7438 48.2415 67.5095 48.3829 67.1569L50.4169 62.0925L56.2983 61.4328C56.6762 61.3906 56.9928 61.1267 57.1016 60.7626C57.2113 60.3984 57.0931 60.0036 56.8007 59.7598L52.6124 56.2608L53.802 50.4638C53.8791 50.0912 53.7249 49.7091 53.4125 49.4927C53.1001 49.2764 52.6874 49.2669 52.3665 49.4685L47.7444 52.3701L42.5987 49.4463C42.2672 49.2584 41.8566 49.2859 41.5548 49.516C41.2518 49.7461 41.1157 50.1345 41.2086 50.5039L42.5396 55.7974L38.1687 59.7883C37.8879 60.0448 37.7866 60.4438 37.9122 60.8037C38.0378 61.1626 38.365 61.4128 38.745 61.4381L38.7471 61.436ZM44.2411 56.816C44.4997 56.5806 44.6073 56.2217 44.5218 55.8829L43.594 52.1949L47.301 54.3006C47.605 54.4738 47.9797 54.4653 48.2753 54.2795L51.4957 52.2582L50.6386 56.4339C50.5679 56.7758 50.6914 57.1294 50.9595 57.3543L53.878 59.7925L49.6411 60.2675C49.2939 60.3066 48.9962 60.5335 48.8653 60.8576L47.4488 64.3862L45.6882 60.504C45.5436 60.1852 45.2364 59.972 44.8871 59.9488L41.0935 59.6912L44.2411 56.817V56.816ZM47.5016 74.2331C56.1569 74.2331 63.1983 67.1917 63.1983 58.5365C63.1983 49.8812 56.1569 42.8398 47.5016 42.8398C38.8463 42.8398 31.8049 49.8812 31.8049 58.5365C31.8049 67.1917 38.8463 74.2331 47.5016 74.2331ZM47.5016 44.7408C55.1087 44.7408 61.2983 50.9304 61.2983 58.5375C61.2983 66.1447 55.1087 72.3343 47.5016 72.3343C39.8944 72.3343 33.7048 66.1447 33.7048 58.5375C33.7048 50.9304 39.8934 44.7408 47.5016 44.7408Z" fill="black"/>
</svg>