<svg width="71" height="91" viewBox="0 0 71 91" fill="none" xmlns="http://www.w3.org/2000/svg">
<path d="M49.8764 15.3175C49.8764 11.2528 48.3515 7.35887 45.6349 4.48603C42.9216 1.61645 39.2364 0 35.3962 0C31.556 0 27.8713 1.61645 25.1576 4.48603C22.441 7.35924 20.916 11.2532 20.916 15.3175C20.916 19.3786 22.441 23.2726 25.1576 26.1462C27.8708 29.0195 31.556 30.6323 35.3962 30.6323C39.236 30.6286 42.9143 29.0122 45.6313 26.1426C48.3446 23.2694 49.873 19.3753 49.8764 15.3175ZM25.3133 15.3175C25.3133 11.0022 27.769 7.11189 31.5366 5.46243C35.3077 3.80972 39.6455 4.72505 42.527 7.77268C45.4119 10.8239 46.274 15.4116 44.7148 19.3965C43.1521 23.3849 39.4772 25.982 35.3967 25.982C29.8294 25.9748 25.3203 21.2059 25.3133 15.3175Z" fill="white" fill-opacity="0.93"/>
<path d="M20.916 15.318C20.916 11.3808 22.3469 7.60287 24.906 4.75848L25.1576 4.48605C27.8712 1.61656 31.5557 0.000111056 35.3958 0C39.236 0 42.9216 1.61647 45.6349 4.48605C48.3515 7.35888 49.8764 11.2533 49.8764 15.318L49.8713 15.6975C49.7759 19.6177 48.2598 23.3592 45.6314 26.1426L45.3738 26.4078C42.6843 29.1115 39.1156 30.6287 35.3958 30.6323V29.8885C39.0488 29.885 42.5487 28.3467 45.1343 25.6159C47.7155 22.882 49.1697 19.1776 49.1732 15.318L49.1689 14.9556C49.0814 11.2196 47.6416 7.65974 45.1377 5.01184C42.5563 2.28166 39.0493 0.74374 35.3958 0.74374C31.7425 0.743851 28.2365 2.28172 25.6547 5.01184C23.07 7.74551 21.6192 11.4509 21.6192 15.318C21.6193 19.1815 23.0701 22.8863 25.6547 25.6204H25.6556C28.2365 28.3535 31.7421 29.8884 35.3958 29.8885V30.6323L35.0369 30.6277C31.3268 30.5305 27.7861 28.9297 25.1576 26.1462C22.5258 23.3623 21.0123 19.6208 20.9203 15.6975L20.916 15.318ZM31.2676 4.77483C35.3015 3.00706 39.9421 3.98646 43.0246 7.2467C46.1105 10.5106 47.0321 15.418 45.3644 19.6805V19.6814C43.6929 23.9476 39.7617 26.7256 35.3967 26.7256H35.3958C29.4409 26.7178 24.6175 21.6172 24.6098 15.3189V15.318C24.6098 10.7022 27.2367 6.53957 31.2676 4.77483ZM42.5266 7.77249C39.6452 4.72504 35.3073 3.80959 31.5363 5.46226C27.7688 7.11177 25.313 11.0027 25.313 15.318C25.32 21.0222 29.5522 25.6755 34.8781 25.9673L35.3967 25.9819C39.4771 25.9818 43.1518 23.3847 44.7144 19.3963C46.2736 15.4115 45.4116 10.8237 42.5266 7.77249Z" fill="white" fill-opacity="0.93"/>
<path d="M9.09055 37.0574C3.49005 40.4464 0.0534797 46.4877 0 53.024C0 76.3908 30.0454 90.2846 35.3961 90.2846C40.7435 90.2846 70.7922 76.3835 70.7922 53.014V53.0104C70.7779 47.8399 68.5962 42.9074 64.7709 39.4153C60.8709 35.8095 55.7446 33.8217 50.4254 33.8572C44.7786 33.8216 39.3599 36.0655 35.3954 40.0767C31.9909 36.6949 27.5419 34.5577 22.7684 34.01C17.9949 33.4624 13.1754 34.5361 9.09055 37.0574ZM33.5388 44.9483C33.9915 45.5137 34.6725 45.8409 35.3962 45.8409C36.1199 45.8409 36.8008 45.5137 37.2535 44.9483C40.3336 40.7842 45.2319 38.3518 50.4227 38.4158C54.5794 38.3803 58.597 39.9272 61.6489 42.7435C64.5436 45.3821 66.1977 49.1053 66.212 53.0168C66.2298 72.9125 39.3827 85.7329 35.3964 85.7329C31.41 85.7329 4.56339 72.9207 4.56339 53.0204C4.62399 48.0562 7.25134 43.4764 11.515 40.9155C14.1673 39.2655 17.2331 38.3943 20.3596 38.405C25.5502 38.3445 30.455 40.7769 33.5388 44.941V44.9483Z" fill="white" fill-opacity="0.93"/>
<path d="M70.0613 53.0136V53.0118C70.0476 48.0448 67.9523 43.3065 64.2782 39.9522L64.2746 39.9486C60.5107 36.4687 55.5634 34.551 50.4302 34.5852H50.4204C44.9709 34.5509 39.741 36.7165 35.9148 40.5878L35.3996 41.1088L34.8801 40.5923C31.592 37.3262 27.2948 35.2617 22.6845 34.7328C18.0743 34.204 13.4197 35.2413 9.47466 37.6763L9.46932 37.6799C4.08564 40.9376 0.781335 46.7452 0.729917 53.0296C0.732495 64.3817 8.03622 73.507 16.142 79.8431C20.1844 83.003 24.3935 85.4419 27.9178 87.0886C29.6796 87.9118 31.2628 88.5332 32.5611 88.9475C33.8795 89.3682 34.8453 89.5556 35.3961 89.5556V90.2846L35.1269 90.2739C29.1126 89.8471 0 76.0247 0 53.0233C0.0535514 46.4871 3.49013 40.4456 9.09054 37.0567C13.1754 34.5355 17.9949 33.4615 22.7682 34.0091C27.5416 34.5568 31.9907 36.6941 35.3952 40.0758C39.3595 36.0648 44.7783 33.8216 50.4249 33.8571L50.9231 33.8589C56.0634 33.9466 60.9928 35.922 64.771 39.4152C68.596 42.9073 70.7779 47.8397 70.7922 53.01V53.0136L70.7868 53.5594C70.3244 76.5992 40.7021 90.2843 35.3961 90.2846V89.5556C35.9464 89.5555 36.9113 89.3683 38.2293 88.9475C39.5274 88.533 41.1107 87.9113 42.8726 87.0877C46.3966 85.4403 50.6059 83.0004 54.6484 79.8395C62.756 73.5001 70.0613 64.3698 70.0613 53.0136ZM50.416 37.687C54.7583 37.6498 58.956 39.2659 62.1446 42.2085H62.1437C65.0921 44.8974 66.8164 48.6562 66.9349 52.6286L66.942 53.0136V53.0153C66.9513 63.2998 60.0266 71.6669 52.759 77.4063C49.1105 80.2875 45.3369 82.5391 42.2184 84.0721C40.6592 84.8387 39.2553 85.4295 38.1063 85.8306C36.9863 86.2216 36.0286 86.4609 35.3961 86.4609C34.7636 86.4609 33.806 86.2214 32.6858 85.8306C31.5369 85.4298 30.1338 84.8391 28.5746 84.073C25.456 82.5407 21.6818 80.2903 18.0323 77.4099C10.7624 71.672 3.83318 63.3064 3.83318 53.0198V53.0109C3.89494 47.958 6.48776 43.2835 10.7233 40.5496L11.1386 40.2909C13.902 38.5744 17.0948 37.6672 20.3512 37.6763H20.361C25.7824 37.6164 30.9048 40.1578 34.1261 44.5075L34.1457 44.5342C34.4596 44.9009 34.9131 45.112 35.3961 45.112V45.8401L35.2606 45.8366C34.5879 45.7985 33.9631 45.4775 33.5388 44.9475V44.9404C30.455 40.7763 25.5498 38.344 20.3593 38.4044C17.2329 38.3938 14.1669 39.265 11.5147 40.915C7.25118 43.4758 4.62377 48.0557 4.5631 53.0198C4.5631 72.6092 30.5778 85.3304 35.1929 85.723L35.3961 85.7328C39.3824 85.7328 66.23 72.9119 66.2121 53.0162C66.1983 49.227 64.6452 45.6144 61.9164 42.9935L61.649 42.7428C58.5972 39.9264 54.5789 38.3795 50.4222 38.4151C45.2316 38.3512 40.3334 40.7836 37.2534 44.9475L37.1661 45.0507C36.7155 45.5527 36.0747 45.8401 35.3961 45.8401V45.112C35.8972 45.112 36.3685 44.8861 36.683 44.4933C39.9004 40.1586 45.0051 37.6252 50.416 37.687Z" fill="white" fill-opacity="0.93"/>
</svg>
