<svg width="97" height="93" viewBox="0 0 97 93" fill="none" xmlns="http://www.w3.org/2000/svg">
<path fill-rule="evenodd" clip-rule="evenodd" d="M37.3888 91.4472C36.9371 91.2392 8.24947 77.8962 1.79942 53.778C-4.69991 29.4729 13.8254 3.31996 13.8254 3.31996C14.1469 2.8673 14.7452 2.70825 15.2498 2.93662C15.2498 2.93662 32.2121 10.7013 43.1066 25.1746C59.2958 5.49335 89.1759 0.433136 89.1759 0.433136C89.7253 0.343418 90.2585 0.649272 90.4538 1.17127C90.4538 1.17127 103.204 35.5581 88.8422 60.4823C74.5783 85.2405 38.866 91.4553 38.3941 91.5368H38.39C38.3249 91.549 38.2638 91.5531 38.1987 91.5531C38.1458 91.5531 38.0929 91.549 38.0359 91.5408C37.983 91.549 37.9301 91.5531 37.8731 91.5531C37.7063 91.5531 37.5435 91.5164 37.3929 91.4471C37.3929 91.4471 37.3889 91.4471 37.3889 91.443L37.3888 91.4472ZM41.6253 27.0665C32.5377 14.6817 18.7496 7.25893 15.1646 5.46849C12.2018 9.94218 -1.55803 32.2614 4.03771 53.1735C9.2062 72.5082 29.2899 84.5913 36.0911 88.2003L17.9442 20.337C17.7815 19.7171 18.1437 19.0809 18.7623 18.9178C19.3808 18.7546 20.0116 19.1176 20.1785 19.7375L31.9805 63.8668C31.5044 53.4963 32.8392 41.6988 38.7241 31.4865C39.6113 29.9409 40.5835 28.4694 41.6253 27.0665ZM40.4817 88.7432C48.6984 86.9 75.1876 79.5431 86.8354 59.3195C99.3584 37.5878 90.4697 8.40836 88.6057 2.89923C83.3598 3.95136 57.7901 9.87683 43.9815 27.7879C42.8013 29.3171 41.7106 30.9321 40.7257 32.6449C29.0779 52.8554 35.9601 79.5063 38.4751 87.5805L78.859 17.4903C79.1805 16.9357 79.8887 16.744 80.4421 17.0662C80.9956 17.3884 81.1869 18.098 80.8654 18.6525L40.4814 88.7469L40.4817 88.7432Z" fill="white" fill-opacity="0.93"/>
<path d="M89.1089 0.0209773C89.852 -0.10036 90.5776 0.313933 90.8437 1.02418L90.8457 1.02826C90.8461 1.02942 90.846 1.03142 90.8467 1.03336C90.8484 1.03784 90.8517 1.0442 90.8548 1.05273C90.8611 1.06998 90.8703 1.09575 90.8823 1.12919C90.9065 1.19631 90.9418 1.29571 90.9871 1.42588C91.0779 1.68654 91.2084 2.07128 91.3697 2.56876C91.6922 3.56372 92.1367 5.01117 92.6241 6.82525C93.599 10.453 94.7485 15.5504 95.4475 21.4309C96.8442 33.1802 96.4501 48.1155 89.2036 60.6916C82.0064 73.1837 69.416 80.9728 58.6116 85.6463C47.7994 90.3233 38.7171 91.9044 38.4646 91.948L38.43 91.9541H38.4127C38.337 91.9651 38.2668 91.9704 38.199 91.9704C38.1437 91.9704 38.0895 91.9661 38.0352 91.9602C37.9821 91.966 37.9288 91.9704 37.8735 91.9704C37.848 91.9704 37.8225 91.9676 37.7971 91.9663L37.7961 92.0948L37.2152 91.8267C36.9732 91.7153 29.655 88.3118 21.5845 81.9067C13.5204 75.5069 4.65553 66.0715 1.39673 53.8863C-1.8869 41.6067 1.15552 28.8907 4.98824 19.2797C6.90681 14.4687 9.02886 10.4213 10.6716 7.57664C11.4929 6.1544 12.1949 5.03208 12.6922 4.26422C12.9408 3.88025 13.1384 3.58424 13.2741 3.38437C13.342 3.28445 13.3952 3.20837 13.4308 3.15702C13.4485 3.13153 13.4623 3.11205 13.4715 3.09891C13.4761 3.09239 13.4793 3.08703 13.4817 3.08361C13.4829 3.08195 13.4841 3.08045 13.4848 3.07954L13.4858 3.07852C13.9237 2.46205 14.7366 2.24618 15.4209 2.5555L15.423 2.55652L15.424 2.55754C15.4246 2.55783 15.4259 2.55803 15.427 2.55856C15.4293 2.55961 15.433 2.56069 15.4372 2.56264C15.4458 2.56664 15.4583 2.57326 15.4748 2.58099C15.5082 2.59656 15.558 2.61968 15.6224 2.65032C15.7512 2.71165 15.9407 2.8034 16.185 2.92457C16.6742 3.16719 17.3839 3.52882 18.2687 4.00832C20.0385 4.96746 22.5108 6.39757 25.3245 8.28112C30.8411 11.974 37.6857 17.4233 43.1223 24.5078C51.2615 14.8231 62.6657 8.72123 72.06 5.03497C76.8258 3.1649 81.084 1.91237 84.151 1.12716C85.6848 0.734499 86.9219 0.457895 87.7761 0.279935C88.203 0.191008 88.5347 0.126518 88.76 0.0841875C88.8722 0.063091 88.9582 0.0476734 89.0164 0.0372896C89.0455 0.0320926 89.0685 0.0276671 89.0835 0.0250553C89.0906 0.0238294 89.096 0.0226522 89.0998 0.0219968C89.1017 0.0216601 89.1038 0.022177 89.1049 0.0219968L89.1059 0.0209773H89.1089ZM90.454 1.171C90.2586 0.649162 89.7254 0.343238 89.1761 0.432863C89.1761 0.432863 59.2963 5.49346 43.1071 25.1746C32.2314 10.7263 15.3087 2.9637 15.25 2.9368C14.7453 2.70843 14.1471 2.86748 13.8256 3.32014C13.7849 3.3776 -4.69255 29.4999 1.79963 53.7782C8.24982 77.8962 36.9374 91.2394 37.3892 91.4474V91.4433C37.3894 91.447 37.3932 91.4474 37.3932 91.4474C37.5437 91.5166 37.7067 91.5534 37.8735 91.5534C37.9303 91.5534 37.9834 91.5494 38.0362 91.5412C38.0931 91.5493 38.1462 91.5534 38.199 91.5534C38.2641 91.5534 38.3253 91.5493 38.3903 91.5371H38.3944C38.8744 91.4543 74.5801 85.2378 88.8424 60.4826C103.204 35.5584 90.454 1.171 90.454 1.171ZM88.6053 2.89908C90.4693 8.40821 99.358 37.5876 86.835 59.3193C75.1874 79.5425 48.6993 86.8992 40.4821 88.7426L80.8658 18.6527C81.1872 18.0982 80.9958 17.3886 80.4425 17.0663C79.8891 16.7442 79.1809 16.9358 78.8594 17.4904L38.4748 87.5804C35.9597 79.5059 29.0776 52.8549 40.7253 32.6446C41.7101 30.9318 42.8009 29.3168 43.9811 27.7876C57.7893 9.87699 83.3585 3.95144 88.6053 2.89908ZM15.1645 5.46827C18.7495 7.25871 32.538 14.682 41.6257 27.0668C40.5839 28.4697 39.6112 29.9408 38.724 31.4864C32.8393 41.6985 31.5044 53.4959 31.9805 63.8663L20.1784 19.7375C20.0115 19.1176 19.3807 18.7546 18.7621 18.9178C18.1437 19.081 17.7814 19.7171 17.9441 20.3369L36.0909 88.2002C29.2896 84.591 9.20647 72.508 4.03796 53.1736C-1.55778 32.2615 12.2017 9.94197 15.1645 5.46827ZM88.3255 3.38437C85.423 3.98573 78.0351 5.73239 69.6721 9.40361C60.9305 13.241 51.1565 19.1652 44.3117 28.0435C43.2888 29.369 42.3335 30.7591 41.4578 32.2215L41.0865 32.8536C35.3189 42.8611 34.1287 54.4845 34.7052 64.6402C35.2409 74.0771 37.3009 82.2123 38.5938 86.5394L78.4982 17.2814L78.4992 17.2804C78.9352 16.5286 79.8968 16.2665 80.6511 16.7054C81.4016 17.1423 81.6642 18.1067 81.2259 18.8627L81.2249 18.8617L41.3235 88.1197C45.7025 87.0826 53.7611 84.8042 62.1848 80.5508C71.252 75.9725 80.7073 69.1241 86.4748 59.1103C92.6759 48.349 93.5868 35.7194 92.7005 25.0604C91.8493 14.826 89.3422 6.45387 88.3255 3.38437ZM15.31 6.01065C13.6877 8.4975 9.74652 14.9609 6.78399 23.2966C3.68697 32.0108 1.67294 42.7252 4.43985 53.0656C6.99532 62.6253 13.2465 70.414 19.7317 76.2739C25.71 81.6757 31.8639 85.4159 35.4388 87.3734L17.5422 20.445L17.5412 20.443C17.3212 19.6047 17.8108 18.7371 18.6563 18.514C19.4426 18.3067 20.2469 18.7266 20.5314 19.4744L20.5813 19.6284L31.4769 60.3714C31.4403 50.8554 33.0818 40.4419 38.3628 31.2774C39.2059 29.8087 40.1255 28.4075 41.1068 27.0678C32.3394 15.2647 19.3037 8.04027 15.31 6.01065Z" fill="white" fill-opacity="0.93"/>
</svg>
