<svg width="76" height="82" viewBox="0 0 76 82" fill="none" xmlns="http://www.w3.org/2000/svg">
<path d="M69.9005 54.1677C69.293 55.6879 70.0012 57.5137 71.6255 58.2252C71.9309 58.3259 72.337 58.4266 72.7398 58.4266C74.0587 58.4266 75.1729 57.7151 75.579 56.5002C76.2905 54.9799 75.579 53.1542 73.9547 52.4426C73.5486 52.3419 73.1425 52.2412 72.7364 52.2412C71.5181 52.2412 70.404 52.9527 69.8971 54.1677H69.9005ZM54.177 49.9088C54.4824 47.1702 54.5831 44.2269 54.5831 41.2871C54.5831 38.2431 54.4824 35.4039 54.177 32.5649C58.842 35.3035 62.8992 38.2468 66.0437 41.2871C65.3322 41.8946 64.7247 42.5054 64.0166 43.1128C61.1774 45.546 57.8283 47.8817 54.177 49.9088ZM50.831 60.4567C47.485 59.9499 44.0349 59.1377 40.5847 58.1243C41.8029 57.6175 43.0178 57.1107 44.3368 56.604C47.0754 55.4897 49.7132 54.1708 52.2471 52.8519C51.841 55.5904 51.3342 58.0236 50.8275 60.4602L50.831 60.4567ZM25.167 60.4567C24.5596 58.0236 24.0528 55.587 23.7474 52.8484C26.2846 54.1674 28.8185 55.4863 31.6577 56.6005C32.876 57.1073 34.1949 57.6141 35.4098 58.0201C31.8591 59.1344 28.4124 59.9465 25.1635 60.4533L25.167 60.4567ZM9.95043 41.2871C13.0951 38.2431 17.1526 35.3032 21.8172 32.5649C21.5117 35.4042 21.4111 38.2468 21.4111 41.2871C21.4111 44.2304 21.5117 47.0697 21.8172 49.9088C17.1522 47.1702 13.095 44.2269 9.95043 41.2871ZM25.167 22.1175C28.4123 22.5236 31.8625 23.3358 35.4134 24.45C34.1951 24.8561 32.8762 25.3628 31.6612 25.8696C28.9227 27.0879 26.2848 28.3027 23.751 29.6217C24.0564 26.9838 24.5631 24.45 25.1705 22.1141L25.167 22.1175ZM52.9591 41.2871C52.9591 44.5324 52.7578 47.7778 52.4524 50.9226C49.7138 52.4429 46.7705 53.8659 43.7302 55.0808C41.8038 55.8929 39.874 56.6011 37.9476 57.2119C36.1219 56.6045 34.1955 55.8929 32.2657 55.0808C29.2217 53.8625 26.2818 52.4429 23.5435 50.9226C23.1374 47.7779 23.0368 44.5326 23.0368 41.2871C23.0368 37.9411 23.1374 34.6924 23.5435 31.5477C26.2821 30.1281 29.2254 28.7084 32.2657 27.3895C34.1921 26.5773 36.1219 25.8692 37.9476 25.2584C39.874 25.8658 41.8038 26.5774 43.7302 27.3895C46.7742 28.7085 49.7141 30.1281 52.4524 31.5477C52.7578 34.6924 52.9591 37.9377 52.9591 41.2871ZM50.828 22.0127C51.4354 24.4459 51.8415 26.9831 52.2476 29.621C49.7104 28.302 47.0759 27.0838 44.3373 25.8689C43.119 25.3621 41.8001 24.8553 40.5852 24.4493C44.1359 23.3351 47.5826 22.5229 50.8315 22.0162L50.828 22.0127ZM73.7538 29.923C73.3477 29.923 72.841 30.2284 72.841 30.6345C72.3342 33.4738 70.4078 36.7191 67.1591 40.0681C63.709 36.7221 59.2488 33.4733 53.9727 30.5331C53.5666 27.4891 53.0598 24.5492 52.4524 21.8109C59.856 20.8981 66.1457 21.5055 69.7971 23.838C70.1025 24.1434 70.6093 24.0394 70.9114 23.6367C71.1128 23.2306 71.0121 22.7238 70.606 22.5224C67.1559 20.2906 61.5779 19.3777 54.477 19.9852C53.6648 20.0859 52.8526 20.1866 52.0438 20.2906C51.7384 19.3778 51.537 18.5656 51.2316 17.6527C49.1005 10.8566 46.0599 6.08759 42.61 3.75497C42.2039 3.5536 41.6971 3.65428 41.4957 4.06037C41.1903 4.36578 41.395 4.87255 41.6971 5.17462C45.3485 7.50707 48.3925 13.0849 50.4193 20.4917C46.3617 21.0992 42.2036 22.1161 37.9417 23.5357C33.6828 22.1161 29.5212 21.1026 25.5681 20.4917C27.5952 13.0882 30.6391 7.50724 34.2903 5.17462C34.5957 4.86921 34.6964 4.36245 34.4916 3.95633C34.1862 3.65092 33.7802 3.55024 33.3774 3.75496C29.9274 6.08741 26.8867 10.8564 24.6552 17.6527C24.4538 18.4649 24.1484 19.3778 23.9437 20.1899C16.2347 19.2771 9.64041 19.8845 5.5826 22.3211C5.17651 22.6265 5.07583 23.0326 5.27719 23.4353C5.5826 23.8414 6.08936 23.9421 6.39144 23.7407C10.0429 21.5089 16.2314 20.9015 23.5343 21.8143C22.8228 24.6536 22.316 27.4962 22.014 30.5365C16.7382 33.4798 12.2745 36.7251 8.82759 40.0715C5.48159 36.6214 3.45113 33.1747 3.04501 30.2315C3.04501 29.7247 2.63892 29.4193 2.13215 29.4193C1.72606 29.52 1.42066 29.9261 1.42066 30.3322C1.82675 33.7822 4.05854 37.5344 7.60928 41.2865C4.56527 44.4312 2.43756 47.6765 1.72601 50.7201C1.62532 51.2268 1.82669 51.6329 2.33346 51.7336H2.53483C2.84023 51.7336 3.14228 51.5323 3.24632 51.1262C3.9578 48.3876 5.8842 45.4443 8.82416 42.404C12.2742 45.75 16.7344 48.9987 22.0105 51.9389C22.316 54.9829 22.8227 57.9228 23.5308 60.6611C15.5165 61.6747 8.92511 60.8625 5.47472 58.1239C5.16931 57.8185 4.66255 57.9226 4.36048 58.2246C4.05507 58.6307 4.1591 59.1375 4.46116 59.3389C7.30043 61.5707 11.764 62.6849 17.3417 62.6849C19.3688 62.6849 21.6005 62.5842 23.9364 62.2788C24.1378 63.1916 24.4432 64.0038 24.7486 64.9167C26.8798 71.7128 29.9203 76.4818 33.3703 78.7139C33.5717 78.8146 33.6757 78.9153 33.8771 78.9153C34.0784 78.9153 34.3838 78.7139 34.4845 78.5092C34.7899 78.1031 34.6859 77.5963 34.2831 77.395C30.6317 74.9618 27.5877 69.3806 25.5609 61.9773C29.5178 61.3699 33.676 60.353 37.9346 58.9333C42.2975 60.3529 46.4557 61.3665 50.4122 61.9773C48.385 69.2802 45.4417 74.8579 41.7905 77.2944C41.4851 77.4958 41.3844 78.0059 41.5891 78.4087C41.7905 78.61 41.9952 78.8148 42.3006 78.8148C42.4013 78.8148 42.606 78.7141 42.7067 78.6134C46.1567 76.281 49.0967 71.5119 51.3284 64.7156C51.5297 63.9034 51.7345 63.0913 52.0399 62.2825C54.3723 62.5879 56.5035 62.6886 58.6346 62.6886C63.9104 62.6886 68.374 61.675 71.1122 59.6446C71.5183 59.3392 71.619 58.8324 71.3136 58.5303C71.1122 58.1242 70.6021 58.0236 70.1993 58.329C67.1553 60.5608 61.8829 61.4737 55.0867 60.9668C54.2745 60.8662 53.3617 60.7655 52.4488 60.6614C53.0563 57.9229 53.563 54.9795 53.9691 51.9392C59.1408 48.9959 63.7085 45.7506 67.1555 42.4043C70.0988 45.4483 72.0252 48.4888 72.7333 51.3318C72.834 51.6372 73.1394 51.9393 73.4448 51.9393H73.6462C74.1529 51.8386 74.3577 51.4325 74.2536 50.9257C73.5421 47.8817 71.5151 44.5357 68.2698 41.1863C71.7198 37.6355 73.8476 34.0848 74.4584 30.9399C74.4584 30.4332 74.153 30.0271 73.7469 29.9264L73.7538 29.923ZM37.9475 6.1887C39.6725 6.1887 41.0922 4.76911 41.0922 3.1447C41.0922 1.41968 39.6726 0 37.9475 0C36.3231 0 34.9035 1.41959 34.9035 3.1447C34.9035 4.76903 36.323 6.1887 37.9475 6.1887ZM40.0786 36.4174C40.7901 36.4174 41.4982 36.6188 42.1057 37.0249C43.73 37.9377 44.3376 39.6627 43.626 40.9817C43.1192 41.6932 42.4077 42.096 41.3942 42.096C40.6827 42.096 40.0752 41.8946 39.3671 41.4885C37.8468 40.5757 37.1352 38.8506 37.9475 37.5317C38.3536 36.8202 39.1658 36.4174 40.0786 36.4174ZM30.645 41.2871C30.645 45.3447 33.8903 48.59 37.9479 48.59C42.0054 48.59 45.3514 45.3447 45.3514 41.2871C45.3514 37.2296 42.0054 33.8836 37.9479 33.8836C33.8903 33.8836 30.645 37.2296 30.645 41.2871ZM75.7845 25.3626C75.2777 24.2483 74.1601 23.4362 72.8411 23.4362C72.4351 23.4362 72.1296 23.5369 71.7269 23.7416C70.1026 24.349 69.3944 26.1747 70.0019 27.6984C70.5086 28.9167 71.6262 29.6249 72.8411 29.6249C73.2472 29.6249 73.6533 29.6249 74.0594 29.4235C75.6838 28.816 76.3919 26.9903 75.7845 25.3659V25.3626ZM3.05481 51.9399C2.64872 51.9399 2.24264 52.0405 1.94056 52.2453C0.316236 52.8527 -0.391885 54.6784 0.215542 56.2021C0.722309 57.4204 1.83987 58.1285 3.05481 58.1285C3.4609 58.1285 3.86698 58.1285 4.2731 57.9272C5.79338 57.3197 6.60555 55.494 5.89743 53.8696C5.49134 52.7554 4.37714 51.9432 3.05816 51.9432L3.05481 51.9399ZM5.99812 27.4942C6.40421 26.682 6.40421 25.8698 6.09881 25.1617C5.69272 24.3495 5.18595 23.7421 4.37378 23.4367C3.96769 23.2353 3.56161 23.2353 3.15549 23.2353C1.9372 23.2353 0.823046 23.9468 0.316227 25.061C0.0108212 25.8732 0.0108212 26.6854 0.316227 27.4942C0.621633 28.2057 1.22908 28.8132 2.04125 29.1185C2.34665 29.3199 2.75274 29.4239 3.15549 29.4239C4.47448 29.4239 5.58864 28.6117 5.99476 27.4975L5.99812 27.4942ZM37.9512 75.4731C36.3268 75.4731 34.9072 76.7921 34.9072 78.5171C34.9072 80.2421 36.3267 81.6618 37.9512 81.6618C39.6762 81.6618 41.0959 80.2422 41.0959 78.5171C41.0959 76.7921 39.6763 75.4731 37.9512 75.4731Z" fill="black"/>
</svg>
