<svg width="102" height="89" viewBox="0 0 102 89" fill="none" xmlns="http://www.w3.org/2000/svg">
<path d="M67.2915 16.9093L82.4576 43.2276C82.7671 43.7593 82.7671 44.4239 82.4576 44.9999L67.2915 71.3182C66.982 71.8499 66.4072 72.2043 65.7882 72.2043H35.4561C34.837 72.2043 34.2622 71.8942 33.9527 71.3182L26.3476 58.1147C25.8612 57.2729 26.1707 56.2095 27.0108 55.7222C27.8509 55.2348 28.9121 55.5449 29.3985 56.3868L36.5172 68.7484H64.8154L78.9645 44.2023L64.8154 19.6563H36.5172L29.3985 32.0179C28.9121 32.8598 27.8509 33.1256 27.0108 32.6382C26.1707 32.1509 25.9054 31.0875 26.3918 30.2457L33.9969 17.0422C34.3065 16.5105 34.8813 16.1561 35.5003 16.1561H65.8324C66.4514 16.1561 67.0262 16.4662 67.3357 17.0422L67.2915 16.9093Z" fill="white" fill-opacity="0.93"/>
<path d="M66.0619 16.1701C66.591 16.2372 67.0655 16.5378 67.3364 17.0418L67.292 16.9094L82.4579 43.2276C82.7674 43.7593 82.7674 44.4243 82.4579 45.0003L67.292 71.3185L67.1633 71.5095C66.8375 71.9332 66.3297 72.2042 65.7883 72.2042V71.3642C66.088 71.3642 66.3957 71.1878 66.5659 70.8979L81.7236 44.5914C81.8999 44.2563 81.8843 43.9085 81.7341 43.6506L81.7318 43.6471L66.6232 17.4285L66.5986 17.4402C66.4456 17.1555 66.1659 16.9961 65.8328 16.9961H35.5009C35.2002 16.9961 34.8909 17.1743 34.7211 17.4659L27.1176 30.6655C26.8556 31.119 27.0048 31.6634 27.431 31.9109C27.8837 32.1735 28.427 32.0242 28.6739 31.5969L36.0341 18.8168H65.2996L79.9324 44.2024L65.2996 69.588H36.0341L28.6727 56.8068C28.4064 56.348 27.8505 56.206 27.431 56.4494C26.972 56.7158 26.8302 57.2728 27.0732 57.6937L34.679 70.8979L34.6848 70.9096L34.6907 70.9201C34.8437 71.2049 35.1234 71.3642 35.4565 71.3642V72.2042L35.2273 72.1902C34.6982 72.1231 34.2238 71.8226 33.9529 71.3185L26.3483 58.1143C25.8924 57.325 26.1358 56.3417 26.8604 55.8202L27.0112 55.7218C27.8513 55.2346 28.9124 55.5455 29.3988 56.3873L36.5181 68.7479H64.8156L78.9654 44.2024L64.8156 19.6569H36.5181L29.3988 32.0175C28.9428 32.8067 27.982 33.0897 27.1714 32.7205L27.0112 32.6385C26.2235 32.1815 25.9409 31.2177 26.3097 30.4054L26.3915 30.246L33.9973 17.0418C34.2681 16.5769 34.7419 16.2477 35.2706 16.1725L35.5009 16.1561H65.8328L66.0619 16.1701ZM65.7883 71.3642V72.2042H35.4565V71.3642H65.7883Z" fill="white" fill-opacity="0.93"/>
<path d="M76.1991 0L101.645 44.1128L76.1991 88.1811H25.4001L0 44.1128L25.4001 0H76.1991ZM4.14722 44.1117L27.4731 84.5819H74.1272L97.4952 44.1117L74.1261 3.59923H27.4743L4.14722 44.1117Z" fill="white" fill-opacity="0.93"/>
</svg>
